<svg xmlns="http://www.w3.org/2000/svg" xmlns:xlink="http://www.w3.org/1999/xlink" width="1024" zoomAndPan="magnify" viewBox="0 0 768 546.000001" height="728" preserveAspectRatio="xMidYMid meet" version="1.0"><defs><g/><clipPath id="a5aada3da5"><path d="M 0.703125 0 L 767.296875 0 L 767.296875 545 L 0.703125 545 Z M 0.703125 0 " clip-rule="nonzero"/></clipPath></defs><g clip-path="url(#a5aada3da5)"><path fill="#ffffff" d="M 0.703125 0 L 767.296875 0 L 767.296875 545 L 0.703125 545 Z M 0.703125 0 " fill-opacity="1" fill-rule="nonzero"/><path fill="#f1efe7" d="M 0.703125 0 L 767.296875 0 L 767.296875 545 L 0.703125 545 Z M 0.703125 0 " fill-opacity="1" fill-rule="nonzero"/></g><g fill="#000000" fill-opacity="1"><g transform="translate(150.612814, 284.770515)"><g><path d="M 6.984375 -39.796875 L 6.984375 -54.609375 L 20.703125 -54.609375 L 20.703125 -39.796875 L 29.09375 -39.796875 L 29.09375 -29.3125 L 20.703125 -29.3125 L 20.703125 -16.671875 C 20.703125 -13.003906 21.738281 -11.171875 23.8125 -11.171875 C 24.332031 -11.171875 24.875 -11.273438 25.4375 -11.484375 C 26.007812 -11.691406 26.453125 -11.894531 26.765625 -12.09375 L 27.21875 -12.40625 L 30.640625 -1.3125 C 27.691406 0.332031 24.328125 1.15625 20.546875 1.15625 C 17.960938 1.15625 15.738281 0.707031 13.875 -0.1875 C 12.019531 -1.09375 10.613281 -2.304688 9.65625 -3.828125 C 8.695312 -5.359375 8.007812 -6.960938 7.59375 -8.640625 C 7.1875 -10.328125 6.984375 -12.125 6.984375 -14.03125 L 6.984375 -29.3125 L 1.234375 -29.3125 L 1.234375 -39.796875 Z M 6.984375 -39.796875 "/></g></g></g><g fill="#000000" fill-opacity="1"><g transform="translate(173.949922, 284.770515)"><g><path d="M 44.90625 -18 L 16.0625 -18 C 16.0625 -15.207031 16.960938 -13.132812 18.765625 -11.78125 C 20.578125 -10.4375 22.546875 -9.765625 24.671875 -9.765625 C 26.890625 -9.765625 28.644531 -10.0625 29.9375 -10.65625 C 31.226562 -11.257812 32.703125 -12.4375 34.359375 -14.1875 L 44.28125 -9.234375 C 40.144531 -2.304688 33.269531 1.15625 23.65625 1.15625 C 17.65625 1.15625 12.507812 -0.894531 8.21875 -5 C 3.925781 -9.113281 1.78125 -14.066406 1.78125 -19.859375 C 1.78125 -25.648438 3.925781 -30.613281 8.21875 -34.75 C 12.507812 -38.882812 17.65625 -40.953125 23.65625 -40.953125 C 29.96875 -40.953125 35.097656 -39.128906 39.046875 -35.484375 C 43.003906 -31.835938 44.984375 -26.628906 44.984375 -19.859375 C 44.984375 -18.921875 44.957031 -18.300781 44.90625 -18 Z M 16.4375 -25.59375 L 31.5625 -25.59375 C 31.257812 -27.664062 30.445312 -29.253906 29.125 -30.359375 C 27.800781 -31.472656 26.109375 -32.03125 24.046875 -32.03125 C 21.765625 -32.03125 19.953125 -31.4375 18.609375 -30.25 C 17.265625 -29.0625 16.539062 -27.507812 16.4375 -25.59375 Z M 16.4375 -25.59375 "/></g></g></g><g fill="#000000" fill-opacity="1"><g transform="translate(213.415149, 284.770515)"><g><path d="M 25.828125 -29.703125 C 23.242188 -29.703125 21.019531 -28.742188 19.15625 -26.828125 C 17.289062 -24.921875 16.359375 -22.625 16.359375 -19.9375 C 16.359375 -17.195312 17.289062 -14.867188 19.15625 -12.953125 C 21.019531 -11.035156 23.242188 -10.078125 25.828125 -10.078125 C 27.066406 -10.078125 28.242188 -10.234375 29.359375 -10.546875 C 30.472656 -10.859375 31.285156 -11.171875 31.796875 -11.484375 L 32.5 -11.9375 L 37.15625 -2.40625 C 36.789062 -2.144531 36.285156 -1.820312 35.640625 -1.4375 C 34.992188 -1.050781 33.519531 -0.523438 31.21875 0.140625 C 28.914062 0.816406 26.445312 1.15625 23.8125 1.15625 C 17.96875 1.15625 12.832031 -0.894531 8.40625 -5 C 3.988281 -9.113281 1.78125 -14.039062 1.78125 -19.78125 C 1.78125 -25.570312 3.988281 -30.546875 8.40625 -34.703125 C 12.832031 -38.867188 17.96875 -40.953125 23.8125 -40.953125 C 26.445312 -40.953125 28.875 -40.640625 31.09375 -40.015625 C 33.320312 -39.398438 34.898438 -38.78125 35.828125 -38.15625 L 37.15625 -37.234375 L 32.5 -27.84375 C 30.789062 -29.082031 28.566406 -29.703125 25.828125 -29.703125 Z M 25.828125 -29.703125 "/></g></g></g><g fill="#000000" fill-opacity="1"><g transform="translate(244.196011, 284.770515)"><g><path d="M 4.65625 0 L 4.65625 -66.703125 L 18.375 -66.703125 L 18.375 -35.59375 L 18.53125 -35.59375 C 22.101562 -39.164062 25.90625 -40.953125 29.9375 -40.953125 C 31.90625 -40.953125 33.859375 -40.691406 35.796875 -40.171875 C 37.734375 -39.660156 39.59375 -38.859375 41.375 -37.765625 C 43.164062 -36.679688 44.613281 -35.144531 45.71875 -33.15625 C 46.832031 -31.164062 47.390625 -28.851562 47.390625 -26.21875 L 47.390625 0 L 33.65625 0 L 33.65625 -22.5 C 33.65625 -24.5625 32.992188 -26.367188 31.671875 -27.921875 C 30.359375 -29.472656 28.644531 -30.25 26.53125 -30.25 C 24.457031 -30.25 22.578125 -29.445312 20.890625 -27.84375 C 19.210938 -26.238281 18.375 -24.457031 18.375 -22.5 L 18.375 0 Z M 4.65625 0 "/></g></g></g><g fill="#000000" fill-opacity="1"><g transform="translate(288.158504, 284.770515)"><g><path d="M 21.953125 -40.953125 C 24.222656 -40.953125 26.46875 -40.691406 28.6875 -40.171875 C 30.914062 -39.660156 32.570312 -39.144531 33.65625 -38.625 L 35.296875 -37.84375 L 30.796875 -28.859375 C 27.691406 -30.503906 24.742188 -31.328125 21.953125 -31.328125 C 20.398438 -31.328125 19.300781 -31.160156 18.65625 -30.828125 C 18.007812 -30.492188 17.6875 -29.863281 17.6875 -28.9375 C 17.6875 -28.726562 17.710938 -28.519531 17.765625 -28.3125 C 17.816406 -28.101562 17.921875 -27.90625 18.078125 -27.71875 C 18.234375 -27.539062 18.375 -27.382812 18.5 -27.25 C 18.625 -27.125 18.84375 -26.984375 19.15625 -26.828125 C 19.46875 -26.679688 19.710938 -26.566406 19.890625 -26.484375 C 20.078125 -26.410156 20.375 -26.296875 20.78125 -26.140625 C 21.195312 -25.984375 21.507812 -25.863281 21.71875 -25.78125 C 21.925781 -25.707031 22.273438 -25.59375 22.765625 -25.4375 C 23.253906 -25.28125 23.628906 -25.175781 23.890625 -25.125 C 25.492188 -24.664062 26.890625 -24.148438 28.078125 -23.578125 C 29.265625 -23.003906 30.515625 -22.226562 31.828125 -21.25 C 33.148438 -20.269531 34.171875 -19.03125 34.890625 -17.53125 C 35.617188 -16.03125 35.984375 -14.320312 35.984375 -12.40625 C 35.984375 -3.363281 29.703125 1.15625 17.140625 1.15625 C 14.296875 1.15625 11.59375 0.71875 9.03125 -0.15625 C 6.476562 -1.03125 4.628906 -1.910156 3.484375 -2.796875 L 1.78125 -4.1875 L 7.375 -13.578125 C 7.78125 -13.210938 8.316406 -12.785156 8.984375 -12.296875 C 9.660156 -11.804688 10.878906 -11.132812 12.640625 -10.28125 C 14.398438 -9.425781 15.925781 -9 17.21875 -9 C 20.0625 -9 21.484375 -9.953125 21.484375 -11.859375 C 21.484375 -12.742188 21.117188 -13.429688 20.390625 -13.921875 C 19.671875 -14.410156 18.441406 -14.960938 16.703125 -15.578125 C 14.972656 -16.203125 13.617188 -16.773438 12.640625 -17.296875 C 10.160156 -18.585938 8.195312 -20.046875 6.75 -21.671875 C 5.300781 -23.304688 4.578125 -25.46875 4.578125 -28.15625 C 4.578125 -32.1875 6.140625 -35.328125 9.265625 -37.578125 C 12.398438 -39.828125 16.628906 -40.953125 21.953125 -40.953125 Z M 21.953125 -40.953125 "/></g></g></g><g fill="#000000" fill-opacity="1"><g transform="translate(319.016899, 284.770515)"><g><path d="M 7.359375 -4.921875 C 3.640625 -8.984375 1.78125 -13.960938 1.78125 -19.859375 C 1.78125 -25.753906 3.640625 -30.742188 7.359375 -34.828125 C 11.085938 -38.910156 15.820312 -40.953125 21.5625 -40.953125 C 26.832031 -40.953125 31.175781 -39.296875 34.59375 -35.984375 L 34.59375 -39.796875 L 48.328125 -39.796875 L 48.328125 0 L 34.75 0 L 34.75 -4.5 L 34.59375 -4.5 C 31.175781 -0.726562 26.832031 1.15625 21.5625 1.15625 C 15.820312 1.15625 11.085938 -0.867188 7.359375 -4.921875 Z M 19.03125 -26.59375 C 17.25 -24.84375 16.359375 -22.597656 16.359375 -19.859375 C 16.359375 -17.117188 17.210938 -14.878906 18.921875 -13.140625 C 20.628906 -11.410156 22.878906 -10.546875 25.671875 -10.546875 C 28.359375 -10.546875 30.566406 -11.425781 32.296875 -13.1875 C 34.035156 -14.945312 34.90625 -17.171875 34.90625 -19.859375 C 34.90625 -22.597656 34.007812 -24.84375 32.21875 -26.59375 C 30.4375 -28.351562 28.253906 -29.234375 25.671875 -29.234375 C 23.035156 -29.234375 20.820312 -28.351562 19.03125 -26.59375 Z M 19.03125 -26.59375 "/></g></g></g><g fill="#000000" fill-opacity="1"><g transform="translate(364.685242, 284.770515)"><g><path d="M 14.734375 -39.796875 L 24.4375 -18.15625 L 34.125 -39.796875 L 50.421875 -39.796875 L 29.09375 0 L 19.78125 0 L -1.546875 -39.796875 Z M 14.734375 -39.796875 "/></g></g></g><g fill="#000000" fill-opacity="1"><g transform="translate(406.244027, 284.770515)"><g><path d="M 14.734375 -39.796875 L 24.4375 -18.15625 L 34.125 -39.796875 L 50.421875 -39.796875 L 29.09375 0 L 19.78125 0 L -1.546875 -39.796875 Z M 14.734375 -39.796875 "/></g></g></g><g fill="#000000" fill-opacity="1"><g transform="translate(447.802812, 284.770515)"><g><path d="M 34.828125 -39.796875 L 50.640625 -39.796875 L 19.390625 20.171875 L 3.5625 20.171875 L 17.296875 -6.203125 L -1.546875 -39.796875 L 14.265625 -39.796875 L 25.359375 -19.390625 Z M 34.828125 -39.796875 "/></g></g></g><g fill="#000000" fill-opacity="1"><g transform="translate(489.594222, 284.770515)"><g><path d="M 7.359375 -4.921875 C 3.640625 -8.984375 1.78125 -13.960938 1.78125 -19.859375 C 1.78125 -25.753906 3.640625 -30.742188 7.359375 -34.828125 C 11.085938 -38.910156 15.820312 -40.953125 21.5625 -40.953125 C 26.832031 -40.953125 31.175781 -39.296875 34.59375 -35.984375 L 34.59375 -39.796875 L 48.328125 -39.796875 L 48.328125 0 L 34.75 0 L 34.75 -4.5 L 34.59375 -4.5 C 31.175781 -0.726562 26.832031 1.15625 21.5625 1.15625 C 15.820312 1.15625 11.085938 -0.867188 7.359375 -4.921875 Z M 19.03125 -26.59375 C 17.25 -24.84375 16.359375 -22.597656 16.359375 -19.859375 C 16.359375 -17.117188 17.210938 -14.878906 18.921875 -13.140625 C 20.628906 -11.410156 22.878906 -10.546875 25.671875 -10.546875 C 28.359375 -10.546875 30.566406 -11.425781 32.296875 -13.1875 C 34.035156 -14.945312 34.90625 -17.171875 34.90625 -19.859375 C 34.90625 -22.597656 34.007812 -24.84375 32.21875 -26.59375 C 30.4375 -28.351562 28.253906 -29.234375 25.671875 -29.234375 C 23.035156 -29.234375 20.820312 -28.351562 19.03125 -26.59375 Z M 19.03125 -26.59375 "/></g></g></g><g fill="#000000" fill-opacity="1"><g transform="translate(535.262566, 284.770515)"><g><path d="M 21.953125 -40.953125 C 24.222656 -40.953125 26.46875 -40.691406 28.6875 -40.171875 C 30.914062 -39.660156 32.570312 -39.144531 33.65625 -38.625 L 35.296875 -37.84375 L 30.796875 -28.859375 C 27.691406 -30.503906 24.742188 -31.328125 21.953125 -31.328125 C 20.398438 -31.328125 19.300781 -31.160156 18.65625 -30.828125 C 18.007812 -30.492188 17.6875 -29.863281 17.6875 -28.9375 C 17.6875 -28.726562 17.710938 -28.519531 17.765625 -28.3125 C 17.816406 -28.101562 17.921875 -27.90625 18.078125 -27.71875 C 18.234375 -27.539062 18.375 -27.382812 18.5 -27.25 C 18.625 -27.125 18.84375 -26.984375 19.15625 -26.828125 C 19.46875 -26.679688 19.710938 -26.566406 19.890625 -26.484375 C 20.078125 -26.410156 20.375 -26.296875 20.78125 -26.140625 C 21.195312 -25.984375 21.507812 -25.863281 21.71875 -25.78125 C 21.925781 -25.707031 22.273438 -25.59375 22.765625 -25.4375 C 23.253906 -25.28125 23.628906 -25.175781 23.890625 -25.125 C 25.492188 -24.664062 26.890625 -24.148438 28.078125 -23.578125 C 29.265625 -23.003906 30.515625 -22.226562 31.828125 -21.25 C 33.148438 -20.269531 34.171875 -19.03125 34.890625 -17.53125 C 35.617188 -16.03125 35.984375 -14.320312 35.984375 -12.40625 C 35.984375 -3.363281 29.703125 1.15625 17.140625 1.15625 C 14.296875 1.15625 11.59375 0.71875 9.03125 -0.15625 C 6.476562 -1.03125 4.628906 -1.910156 3.484375 -2.796875 L 1.78125 -4.1875 L 7.375 -13.578125 C 7.78125 -13.210938 8.316406 -12.785156 8.984375 -12.296875 C 9.660156 -11.804688 10.878906 -11.132812 12.640625 -10.28125 C 14.398438 -9.425781 15.925781 -9 17.21875 -9 C 20.0625 -9 21.484375 -9.953125 21.484375 -11.859375 C 21.484375 -12.742188 21.117188 -13.429688 20.390625 -13.921875 C 19.671875 -14.410156 18.441406 -14.960938 16.703125 -15.578125 C 14.972656 -16.203125 13.617188 -16.773438 12.640625 -17.296875 C 10.160156 -18.585938 8.195312 -20.046875 6.75 -21.671875 C 5.300781 -23.304688 4.578125 -25.46875 4.578125 -28.15625 C 4.578125 -32.1875 6.140625 -35.328125 9.265625 -37.578125 C 12.398438 -39.828125 16.628906 -40.953125 21.953125 -40.953125 Z M 21.953125 -40.953125 "/></g></g></g><g fill="#000000" fill-opacity="1"><g transform="translate(566.120978, 284.770515)"><g><path d="M 4.65625 0 L 4.65625 -66.703125 L 18.375 -66.703125 L 18.375 -35.59375 L 18.53125 -35.59375 C 22.101562 -39.164062 25.90625 -40.953125 29.9375 -40.953125 C 31.90625 -40.953125 33.859375 -40.691406 35.796875 -40.171875 C 37.734375 -39.660156 39.59375 -38.859375 41.375 -37.765625 C 43.164062 -36.679688 44.613281 -35.144531 45.71875 -33.15625 C 46.832031 -31.164062 47.390625 -28.851562 47.390625 -26.21875 L 47.390625 0 L 33.65625 0 L 33.65625 -22.5 C 33.65625 -24.5625 32.992188 -26.367188 31.671875 -27.921875 C 30.359375 -29.472656 28.644531 -30.25 26.53125 -30.25 C 24.457031 -30.25 22.578125 -29.445312 20.890625 -27.84375 C 19.210938 -26.238281 18.375 -24.457031 18.375 -22.5 L 18.375 0 Z M 4.65625 0 "/></g></g></g><g fill="#000000" fill-opacity="1"><g transform="translate(160.321315, 323.180639)"><g><path d="M 3.28125 -6.640625 L 3.28125 -2.046875 C 3.28125 -1.535156 3.507812 -1.28125 3.96875 -1.28125 C 4.039062 -1.28125 4.140625 -1.296875 4.265625 -1.328125 C 4.390625 -1.367188 4.488281 -1.390625 4.5625 -1.390625 C 4.6875 -1.390625 4.796875 -1.332031 4.890625 -1.21875 C 4.984375 -1.101562 5.03125 -0.957031 5.03125 -0.78125 C 5.03125 -0.570312 4.90625 -0.390625 4.65625 -0.234375 C 4.414062 -0.078125 4.140625 0 3.828125 0 C 3.492188 0 3.1875 -0.0351562 2.90625 -0.109375 C 2.625 -0.179688 2.367188 -0.363281 2.140625 -0.65625 C 1.921875 -0.945312 1.8125 -1.390625 1.8125 -1.984375 L 1.8125 -6.640625 L 0.921875 -6.640625 C 0.722656 -6.640625 0.5625 -6.703125 0.4375 -6.828125 C 0.3125 -6.953125 0.25 -7.113281 0.25 -7.3125 C 0.25 -7.507812 0.3125 -7.664062 0.4375 -7.78125 C 0.5625 -7.90625 0.722656 -7.96875 0.921875 -7.96875 L 1.8125 -7.96875 L 1.8125 -9.265625 C 1.8125 -9.472656 1.878906 -9.644531 2.015625 -9.78125 C 2.160156 -9.925781 2.34375 -10 2.5625 -10 C 2.757812 -10 2.925781 -9.925781 3.0625 -9.78125 C 3.207031 -9.644531 3.28125 -9.472656 3.28125 -9.265625 L 3.28125 -7.96875 L 4.5625 -7.96875 C 4.75 -7.96875 4.90625 -7.90625 5.03125 -7.78125 C 5.164062 -7.65625 5.234375 -7.492188 5.234375 -7.296875 C 5.234375 -7.097656 5.164062 -6.9375 5.03125 -6.8125 C 4.90625 -6.695312 4.75 -6.640625 4.5625 -6.640625 Z M 3.28125 -6.640625 "/></g></g></g><g fill="#000000" fill-opacity="1"><g transform="translate(169.846844, 323.180639)"><g><path d="M 5.109375 -8.25 C 5.378906 -8.25 5.609375 -8.175781 5.796875 -8.03125 C 5.992188 -7.894531 6.09375 -7.726562 6.09375 -7.53125 C 6.09375 -7.28125 6.023438 -7.085938 5.890625 -6.953125 C 5.765625 -6.828125 5.613281 -6.765625 5.4375 -6.765625 C 5.34375 -6.765625 5.203125 -6.796875 5.015625 -6.859375 C 4.796875 -6.929688 4.628906 -6.96875 4.515625 -6.96875 C 4.191406 -6.96875 3.878906 -6.859375 3.578125 -6.640625 C 3.273438 -6.421875 3.03125 -6.117188 2.84375 -5.734375 C 2.65625 -5.347656 2.5625 -4.921875 2.5625 -4.453125 L 2.5625 -0.734375 C 2.5625 -0.535156 2.488281 -0.363281 2.34375 -0.21875 C 2.207031 -0.0703125 2.03125 0 1.8125 0 C 1.601562 0 1.429688 -0.0664062 1.296875 -0.203125 C 1.160156 -0.347656 1.09375 -0.523438 1.09375 -0.734375 L 1.09375 -7.328125 C 1.09375 -7.535156 1.160156 -7.707031 1.296875 -7.84375 C 1.441406 -7.988281 1.613281 -8.0625 1.8125 -8.0625 C 2.03125 -8.0625 2.207031 -7.988281 2.34375 -7.84375 C 2.488281 -7.707031 2.5625 -7.535156 2.5625 -7.328125 L 2.5625 -6.546875 C 2.78125 -7.046875 3.113281 -7.453125 3.5625 -7.765625 C 4.019531 -8.078125 4.535156 -8.238281 5.109375 -8.25 Z M 5.109375 -8.25 "/></g></g></g><g fill="#000000" fill-opacity="1"><g transform="translate(179.880153, 323.180639)"><g><path d="M 7.09375 -8.140625 C 7.3125 -8.140625 7.488281 -8.066406 7.625 -7.921875 C 7.757812 -7.773438 7.828125 -7.601562 7.828125 -7.40625 L 7.828125 -0.75 C 7.828125 0.53125 7.472656 1.488281 6.765625 2.125 C 6.054688 2.757812 5.125 3.078125 3.96875 3.078125 C 3.59375 3.078125 3.21875 3.039062 2.84375 2.96875 C 2.476562 2.894531 2.175781 2.796875 1.9375 2.671875 C 1.5625 2.503906 1.375 2.269531 1.375 1.96875 C 1.375 1.914062 1.382812 1.847656 1.40625 1.765625 C 1.46875 1.597656 1.550781 1.46875 1.65625 1.375 C 1.769531 1.28125 1.898438 1.234375 2.046875 1.234375 C 2.128906 1.234375 2.207031 1.25 2.28125 1.28125 C 2.59375 1.425781 2.875 1.535156 3.125 1.609375 C 3.375 1.691406 3.660156 1.734375 3.984375 1.734375 C 5.578125 1.734375 6.375 0.921875 6.375 -0.703125 L 6.375 -1.015625 C 6.09375 -0.648438 5.734375 -0.363281 5.296875 -0.15625 C 4.859375 0.0507812 4.359375 0.15625 3.796875 0.15625 C 2.953125 0.15625 2.289062 -0.113281 1.8125 -0.65625 C 1.332031 -1.207031 1.09375 -1.921875 1.09375 -2.796875 L 1.09375 -7.40625 C 1.09375 -7.613281 1.160156 -7.785156 1.296875 -7.921875 C 1.429688 -8.066406 1.601562 -8.140625 1.8125 -8.140625 C 2.03125 -8.140625 2.207031 -8.066406 2.34375 -7.921875 C 2.488281 -7.773438 2.5625 -7.601562 2.5625 -7.40625 L 2.5625 -3.1875 C 2.5625 -2.507812 2.707031 -2.007812 3 -1.6875 C 3.300781 -1.363281 3.753906 -1.203125 4.359375 -1.203125 C 4.941406 -1.203125 5.421875 -1.382812 5.796875 -1.75 C 6.179688 -2.125 6.375 -2.601562 6.375 -3.1875 L 6.375 -7.40625 C 6.375 -7.613281 6.4375 -7.785156 6.5625 -7.921875 C 6.695312 -8.066406 6.875 -8.140625 7.09375 -8.140625 Z M 7.09375 -8.140625 "/></g></g></g><g fill="#000000" fill-opacity="1"><g transform="translate(192.467721, 323.180639)"><g><path d="M 2.484375 -0.734375 C 2.484375 -0.535156 2.410156 -0.363281 2.265625 -0.21875 C 2.128906 -0.0703125 1.953125 0 1.734375 0 C 1.535156 0 1.363281 -0.0703125 1.21875 -0.21875 C 1.082031 -0.363281 1.015625 -0.535156 1.015625 -0.734375 L 1.015625 -7.40625 C 1.015625 -7.601562 1.082031 -7.773438 1.21875 -7.921875 C 1.363281 -8.066406 1.535156 -8.140625 1.734375 -8.140625 C 1.953125 -8.140625 2.128906 -8.066406 2.265625 -7.921875 C 2.410156 -7.773438 2.484375 -7.601562 2.484375 -7.40625 Z M 1.75 -9.15625 C 1.445312 -9.15625 1.226562 -9.207031 1.09375 -9.3125 C 0.96875 -9.425781 0.90625 -9.597656 0.90625 -9.828125 L 0.90625 -10.078125 C 0.90625 -10.328125 0.972656 -10.503906 1.109375 -10.609375 C 1.253906 -10.710938 1.472656 -10.765625 1.765625 -10.765625 C 2.046875 -10.765625 2.25 -10.707031 2.375 -10.59375 C 2.507812 -10.488281 2.578125 -10.316406 2.578125 -10.078125 L 2.578125 -9.828125 C 2.578125 -9.585938 2.507812 -9.414062 2.375 -9.3125 C 2.238281 -9.207031 2.03125 -9.15625 1.75 -9.15625 Z M 1.75 -9.15625 "/></g></g></g><g fill="#000000" fill-opacity="1"><g transform="translate(199.638998, 323.180639)"><g><path d="M 5.203125 -8.25 C 7.046875 -8.25 7.96875 -7.140625 7.96875 -4.921875 L 7.96875 -0.734375 C 7.96875 -0.535156 7.898438 -0.363281 7.765625 -0.21875 C 7.628906 -0.0703125 7.453125 0 7.234375 0 C 7.023438 0 6.851562 -0.0703125 6.71875 -0.21875 C 6.582031 -0.363281 6.515625 -0.535156 6.515625 -0.734375 L 6.515625 -4.90625 C 6.515625 -5.507812 6.375 -5.988281 6.09375 -6.34375 C 5.8125 -6.707031 5.359375 -6.890625 4.734375 -6.890625 C 4.328125 -6.890625 3.957031 -6.800781 3.625 -6.625 C 3.289062 -6.445312 3.03125 -6.207031 2.84375 -5.90625 C 2.65625 -5.601562 2.5625 -5.269531 2.5625 -4.90625 L 2.5625 -0.734375 C 2.5625 -0.535156 2.488281 -0.363281 2.34375 -0.21875 C 2.207031 -0.0703125 2.03125 0 1.8125 0 C 1.601562 0 1.429688 -0.0664062 1.296875 -0.203125 C 1.160156 -0.347656 1.09375 -0.523438 1.09375 -0.734375 L 1.09375 -7.328125 C 1.09375 -7.535156 1.160156 -7.707031 1.296875 -7.84375 C 1.441406 -7.988281 1.613281 -8.0625 1.8125 -8.0625 C 2.03125 -8.0625 2.207031 -7.988281 2.34375 -7.84375 C 2.488281 -7.707031 2.5625 -7.535156 2.5625 -7.328125 L 2.5625 -6.78125 C 2.820312 -7.195312 3.191406 -7.546875 3.671875 -7.828125 C 4.148438 -8.109375 4.660156 -8.25 5.203125 -8.25 Z M 5.203125 -8.25 "/></g></g></g><g fill="#000000" fill-opacity="1"><g transform="translate(212.38045, 323.180639)"><g><path d="M 7.828125 -8.171875 C 8.046875 -8.171875 8.222656 -8.097656 8.359375 -7.953125 C 8.503906 -7.816406 8.578125 -7.640625 8.578125 -7.421875 L 8.578125 -0.640625 C 8.578125 0.179688 8.398438 0.875 8.046875 1.4375 C 7.691406 2 7.207031 2.410156 6.59375 2.671875 C 5.988281 2.941406 5.3125 3.078125 4.5625 3.078125 C 4.144531 3.078125 3.660156 3.003906 3.109375 2.859375 C 2.566406 2.710938 2.21875 2.566406 2.0625 2.421875 C 1.738281 2.253906 1.578125 2.046875 1.578125 1.796875 C 1.578125 1.734375 1.597656 1.648438 1.640625 1.546875 C 1.753906 1.296875 1.945312 1.171875 2.21875 1.171875 C 2.351562 1.171875 2.492188 1.203125 2.640625 1.265625 C 3.460938 1.578125 4.109375 1.734375 4.578125 1.734375 C 5.390625 1.734375 6.015625 1.535156 6.453125 1.140625 C 6.890625 0.742188 7.109375 0.203125 7.109375 -0.484375 L 7.109375 -1.3125 C 6.890625 -0.90625 6.523438 -0.554688 6.015625 -0.265625 C 5.515625 0.015625 4.984375 0.15625 4.421875 0.15625 C 3.710938 0.15625 3.0625 -0.0195312 2.46875 -0.375 C 1.882812 -0.738281 1.425781 -1.238281 1.09375 -1.875 C 0.757812 -2.519531 0.59375 -3.242188 0.59375 -4.046875 C 0.59375 -4.847656 0.757812 -5.566406 1.09375 -6.203125 C 1.425781 -6.847656 1.882812 -7.347656 2.46875 -7.703125 C 3.050781 -8.066406 3.691406 -8.25 4.390625 -8.25 C 4.953125 -8.25 5.472656 -8.117188 5.953125 -7.859375 C 6.441406 -7.609375 6.828125 -7.296875 7.109375 -6.921875 L 7.109375 -7.421875 C 7.109375 -7.628906 7.175781 -7.804688 7.3125 -7.953125 C 7.445312 -8.097656 7.617188 -8.171875 7.828125 -8.171875 Z M 4.59375 -1.203125 C 5.09375 -1.203125 5.535156 -1.320312 5.921875 -1.5625 C 6.316406 -1.800781 6.625 -2.140625 6.84375 -2.578125 C 7.0625 -3.015625 7.171875 -3.503906 7.171875 -4.046875 C 7.171875 -4.585938 7.0625 -5.070312 6.84375 -5.5 C 6.625 -5.9375 6.316406 -6.273438 5.921875 -6.515625 C 5.535156 -6.765625 5.09375 -6.890625 4.59375 -6.890625 C 4.09375 -6.890625 3.644531 -6.765625 3.25 -6.515625 C 2.863281 -6.273438 2.5625 -5.9375 2.34375 -5.5 C 2.125 -5.0625 2.015625 -4.578125 2.015625 -4.046875 C 2.015625 -3.515625 2.125 -3.03125 2.34375 -2.59375 C 2.5625 -2.15625 2.863281 -1.8125 3.25 -1.5625 C 3.644531 -1.320312 4.09375 -1.203125 4.59375 -1.203125 Z M 4.59375 -1.203125 "/></g></g></g><g fill="#000000" fill-opacity="1"><g transform="translate(225.7066, 323.180639)"><g/></g></g><g fill="#000000" fill-opacity="1"><g transform="translate(233.647241, 323.180639)"><g><path d="M 3.28125 -6.640625 L 3.28125 -2.046875 C 3.28125 -1.535156 3.507812 -1.28125 3.96875 -1.28125 C 4.039062 -1.28125 4.140625 -1.296875 4.265625 -1.328125 C 4.390625 -1.367188 4.488281 -1.390625 4.5625 -1.390625 C 4.6875 -1.390625 4.796875 -1.332031 4.890625 -1.21875 C 4.984375 -1.101562 5.03125 -0.957031 5.03125 -0.78125 C 5.03125 -0.570312 4.90625 -0.390625 4.65625 -0.234375 C 4.414062 -0.078125 4.140625 0 3.828125 0 C 3.492188 0 3.1875 -0.0351562 2.90625 -0.109375 C 2.625 -0.179688 2.367188 -0.363281 2.140625 -0.65625 C 1.921875 -0.945312 1.8125 -1.390625 1.8125 -1.984375 L 1.8125 -6.640625 L 0.921875 -6.640625 C 0.722656 -6.640625 0.5625 -6.703125 0.4375 -6.828125 C 0.3125 -6.953125 0.25 -7.113281 0.25 -7.3125 C 0.25 -7.507812 0.3125 -7.664062 0.4375 -7.78125 C 0.5625 -7.90625 0.722656 -7.96875 0.921875 -7.96875 L 1.8125 -7.96875 L 1.8125 -9.265625 C 1.8125 -9.472656 1.878906 -9.644531 2.015625 -9.78125 C 2.160156 -9.925781 2.34375 -10 2.5625 -10 C 2.757812 -10 2.925781 -9.925781 3.0625 -9.78125 C 3.207031 -9.644531 3.28125 -9.472656 3.28125 -9.265625 L 3.28125 -7.96875 L 4.5625 -7.96875 C 4.75 -7.96875 4.90625 -7.90625 5.03125 -7.78125 C 5.164062 -7.65625 5.234375 -7.492188 5.234375 -7.296875 C 5.234375 -7.097656 5.164062 -6.9375 5.03125 -6.8125 C 4.90625 -6.695312 4.75 -6.640625 4.5625 -6.640625 Z M 3.28125 -6.640625 "/></g></g></g><g fill="#000000" fill-opacity="1"><g transform="translate(243.172768, 323.180639)"><g><path d="M 8.71875 -4.03125 C 8.71875 -3.226562 8.539062 -2.507812 8.1875 -1.875 C 7.832031 -1.238281 7.34375 -0.738281 6.71875 -0.375 C 6.09375 -0.0195312 5.40625 0.15625 4.65625 0.15625 C 3.914062 0.15625 3.234375 -0.0195312 2.609375 -0.375 C 1.984375 -0.738281 1.488281 -1.238281 1.125 -1.875 C 0.769531 -2.507812 0.59375 -3.226562 0.59375 -4.03125 C 0.59375 -4.832031 0.769531 -5.554688 1.125 -6.203125 C 1.488281 -6.847656 1.984375 -7.347656 2.609375 -7.703125 C 3.234375 -8.066406 3.914062 -8.25 4.65625 -8.25 C 5.40625 -8.25 6.09375 -8.066406 6.71875 -7.703125 C 7.34375 -7.347656 7.832031 -6.847656 8.1875 -6.203125 C 8.539062 -5.554688 8.71875 -4.832031 8.71875 -4.03125 Z M 7.265625 -4.03125 C 7.265625 -4.582031 7.148438 -5.078125 6.921875 -5.515625 C 6.691406 -5.953125 6.378906 -6.289062 5.984375 -6.53125 C 5.585938 -6.769531 5.144531 -6.890625 4.65625 -6.890625 C 4.175781 -6.890625 3.738281 -6.769531 3.34375 -6.53125 C 2.945312 -6.289062 2.632812 -5.953125 2.40625 -5.515625 C 2.175781 -5.078125 2.0625 -4.582031 2.0625 -4.03125 C 2.0625 -3.488281 2.175781 -3 2.40625 -2.5625 C 2.632812 -2.132812 2.945312 -1.800781 3.34375 -1.5625 C 3.738281 -1.320312 4.175781 -1.203125 4.65625 -1.203125 C 5.144531 -1.203125 5.585938 -1.320312 5.984375 -1.5625 C 6.378906 -1.800781 6.691406 -2.132812 6.921875 -2.5625 C 7.148438 -3 7.265625 -3.488281 7.265625 -4.03125 Z M 7.265625 -4.03125 "/></g></g></g><g fill="#000000" fill-opacity="1"><g transform="translate(256.175788, 323.180639)"><g/></g></g><g fill="#000000" fill-opacity="1"><g transform="translate(264.11643, 323.180639)"><g><path d="M 5.140625 -8.25 C 5.835938 -8.25 6.46875 -8.066406 7.03125 -7.703125 C 7.59375 -7.347656 8.035156 -6.851562 8.359375 -6.21875 C 8.679688 -5.582031 8.84375 -4.863281 8.84375 -4.0625 C 8.84375 -3.257812 8.679688 -2.535156 8.359375 -1.890625 C 8.035156 -1.242188 7.59375 -0.738281 7.03125 -0.375 C 6.46875 -0.0195312 5.847656 0.15625 5.171875 0.15625 C 4.640625 0.15625 4.140625 0.0390625 3.671875 -0.1875 C 3.210938 -0.425781 2.84375 -0.722656 2.5625 -1.078125 L 2.5625 -0.625 C 2.5625 -0.425781 2.488281 -0.253906 2.34375 -0.109375 C 2.207031 0.0351562 2.03125 0.109375 1.8125 0.109375 C 1.613281 0.109375 1.441406 0.0390625 1.296875 -0.09375 C 1.160156 -0.238281 1.09375 -0.414062 1.09375 -0.625 L 1.09375 -10.65625 C 1.09375 -10.863281 1.160156 -11.035156 1.296875 -11.171875 C 1.429688 -11.316406 1.601562 -11.390625 1.8125 -11.390625 C 2.03125 -11.390625 2.207031 -11.316406 2.34375 -11.171875 C 2.488281 -11.023438 2.5625 -10.851562 2.5625 -10.65625 L 2.5625 -6.890625 C 2.800781 -7.265625 3.15625 -7.582031 3.625 -7.84375 C 4.101562 -8.113281 4.609375 -8.25 5.140625 -8.25 Z M 4.96875 -1.203125 C 5.4375 -1.203125 5.859375 -1.328125 6.234375 -1.578125 C 6.617188 -1.828125 6.914062 -2.171875 7.125 -2.609375 C 7.34375 -3.046875 7.453125 -3.53125 7.453125 -4.0625 C 7.453125 -4.59375 7.34375 -5.070312 7.125 -5.5 C 6.914062 -5.9375 6.617188 -6.273438 6.234375 -6.515625 C 5.859375 -6.765625 5.4375 -6.890625 4.96875 -6.890625 C 4.488281 -6.890625 4.054688 -6.765625 3.671875 -6.515625 C 3.296875 -6.273438 3.003906 -5.941406 2.796875 -5.515625 C 2.585938 -5.085938 2.484375 -4.601562 2.484375 -4.0625 C 2.484375 -3.519531 2.585938 -3.03125 2.796875 -2.59375 C 3.003906 -2.164062 3.296875 -1.828125 3.671875 -1.578125 C 4.054688 -1.328125 4.488281 -1.203125 4.96875 -1.203125 Z M 4.96875 -1.203125 "/></g></g></g><g fill="#000000" fill-opacity="1"><g transform="translate(277.242556, 323.180639)"><g><path d="M 7.09375 -8.0625 C 7.3125 -8.0625 7.488281 -7.988281 7.625 -7.84375 C 7.757812 -7.707031 7.828125 -7.535156 7.828125 -7.328125 L 7.828125 -3.234375 C 7.828125 -2.160156 7.53125 -1.328125 6.9375 -0.734375 C 6.351562 -0.148438 5.523438 0.140625 4.453125 0.140625 C 3.378906 0.140625 2.550781 -0.148438 1.96875 -0.734375 C 1.382812 -1.328125 1.09375 -2.160156 1.09375 -3.234375 L 1.09375 -7.328125 C 1.09375 -7.535156 1.160156 -7.707031 1.296875 -7.84375 C 1.441406 -7.988281 1.613281 -8.0625 1.8125 -8.0625 C 2.03125 -8.0625 2.207031 -7.988281 2.34375 -7.84375 C 2.488281 -7.707031 2.5625 -7.535156 2.5625 -7.328125 L 2.5625 -3.234375 C 2.5625 -1.890625 3.191406 -1.21875 4.453125 -1.21875 C 5.078125 -1.21875 5.550781 -1.382812 5.875 -1.71875 C 6.207031 -2.0625 6.375 -2.566406 6.375 -3.234375 L 6.375 -7.328125 C 6.375 -7.535156 6.441406 -7.707031 6.578125 -7.84375 C 6.710938 -7.988281 6.882812 -8.0625 7.09375 -8.0625 Z M 7.09375 -8.0625 "/></g></g></g><g fill="#000000" fill-opacity="1"><g transform="translate(289.845511, 323.180639)"><g><path d="M 2.484375 -0.734375 C 2.484375 -0.535156 2.410156 -0.363281 2.265625 -0.21875 C 2.128906 -0.0703125 1.953125 0 1.734375 0 C 1.535156 0 1.363281 -0.0703125 1.21875 -0.21875 C 1.082031 -0.363281 1.015625 -0.535156 1.015625 -0.734375 L 1.015625 -7.40625 C 1.015625 -7.601562 1.082031 -7.773438 1.21875 -7.921875 C 1.363281 -8.066406 1.535156 -8.140625 1.734375 -8.140625 C 1.953125 -8.140625 2.128906 -8.066406 2.265625 -7.921875 C 2.410156 -7.773438 2.484375 -7.601562 2.484375 -7.40625 Z M 1.75 -9.15625 C 1.445312 -9.15625 1.226562 -9.207031 1.09375 -9.3125 C 0.96875 -9.425781 0.90625 -9.597656 0.90625 -9.828125 L 0.90625 -10.078125 C 0.90625 -10.328125 0.972656 -10.503906 1.109375 -10.609375 C 1.253906 -10.710938 1.472656 -10.765625 1.765625 -10.765625 C 2.046875 -10.765625 2.25 -10.707031 2.375 -10.59375 C 2.507812 -10.488281 2.578125 -10.316406 2.578125 -10.078125 L 2.578125 -9.828125 C 2.578125 -9.585938 2.507812 -9.414062 2.375 -9.3125 C 2.238281 -9.207031 2.03125 -9.15625 1.75 -9.15625 Z M 1.75 -9.15625 "/></g></g></g><g fill="#000000" fill-opacity="1"><g transform="translate(297.016787, 323.180639)"><g><path d="M 2.671875 -0.734375 C 2.671875 -0.535156 2.597656 -0.363281 2.453125 -0.21875 C 2.316406 -0.0703125 2.144531 0 1.9375 0 C 1.726562 0 1.554688 -0.0703125 1.421875 -0.21875 C 1.285156 -0.363281 1.21875 -0.535156 1.21875 -0.734375 L 1.21875 -10.65625 C 1.21875 -10.851562 1.285156 -11.023438 1.421875 -11.171875 C 1.566406 -11.316406 1.742188 -11.390625 1.953125 -11.390625 C 2.160156 -11.390625 2.332031 -11.316406 2.46875 -11.171875 C 2.601562 -11.023438 2.671875 -10.851562 2.671875 -10.65625 Z M 2.671875 -0.734375 "/></g></g></g><g fill="#000000" fill-opacity="1"><g transform="translate(304.588145, 323.180639)"><g><path d="M 7.640625 -11.390625 C 7.847656 -11.390625 8.019531 -11.316406 8.15625 -11.171875 C 8.300781 -11.035156 8.375 -10.863281 8.375 -10.65625 L 8.375 -0.734375 C 8.375 -0.535156 8.300781 -0.363281 8.15625 -0.21875 C 8.019531 -0.0703125 7.847656 0 7.640625 0 C 7.421875 0 7.242188 -0.0664062 7.109375 -0.203125 C 6.972656 -0.347656 6.90625 -0.523438 6.90625 -0.734375 L 6.90625 -1.171875 C 6.65625 -0.796875 6.296875 -0.476562 5.828125 -0.21875 C 5.359375 0.03125 4.859375 0.15625 4.328125 0.15625 C 3.628906 0.15625 2.992188 -0.0195312 2.421875 -0.375 C 1.859375 -0.738281 1.410156 -1.238281 1.078125 -1.875 C 0.753906 -2.519531 0.59375 -3.242188 0.59375 -4.046875 C 0.59375 -4.847656 0.753906 -5.566406 1.078125 -6.203125 C 1.398438 -6.847656 1.84375 -7.347656 2.40625 -7.703125 C 2.976562 -8.066406 3.601562 -8.25 4.28125 -8.25 C 4.820312 -8.25 5.320312 -8.132812 5.78125 -7.90625 C 6.25 -7.6875 6.625 -7.394531 6.90625 -7.03125 L 6.90625 -10.65625 C 6.90625 -10.863281 6.972656 -11.035156 7.109375 -11.171875 C 7.242188 -11.316406 7.421875 -11.390625 7.640625 -11.390625 Z M 4.5 -1.203125 C 4.976562 -1.203125 5.40625 -1.320312 5.78125 -1.5625 C 6.15625 -1.8125 6.445312 -2.148438 6.65625 -2.578125 C 6.863281 -3.015625 6.96875 -3.503906 6.96875 -4.046875 C 6.96875 -4.578125 6.863281 -5.0625 6.65625 -5.5 C 6.445312 -5.9375 6.15625 -6.273438 5.78125 -6.515625 C 5.40625 -6.765625 4.976562 -6.890625 4.5 -6.890625 C 4.007812 -6.890625 3.578125 -6.765625 3.203125 -6.515625 C 2.828125 -6.273438 2.535156 -5.9375 2.328125 -5.5 C 2.117188 -5.0625 2.015625 -4.578125 2.015625 -4.046875 C 2.015625 -3.503906 2.117188 -3.015625 2.328125 -2.578125 C 2.535156 -2.148438 2.828125 -1.8125 3.203125 -1.5625 C 3.578125 -1.320312 4.007812 -1.203125 4.5 -1.203125 Z M 4.5 -1.203125 "/></g></g></g><g fill="#000000" fill-opacity="1"><g transform="translate(317.714271, 323.180639)"><g/></g></g><g fill="#000000" fill-opacity="1"><g transform="translate(325.654921, 323.180639)"><g><path d="M 3.28125 -6.640625 L 3.28125 -2.046875 C 3.28125 -1.535156 3.507812 -1.28125 3.96875 -1.28125 C 4.039062 -1.28125 4.140625 -1.296875 4.265625 -1.328125 C 4.390625 -1.367188 4.488281 -1.390625 4.5625 -1.390625 C 4.6875 -1.390625 4.796875 -1.332031 4.890625 -1.21875 C 4.984375 -1.101562 5.03125 -0.957031 5.03125 -0.78125 C 5.03125 -0.570312 4.90625 -0.390625 4.65625 -0.234375 C 4.414062 -0.078125 4.140625 0 3.828125 0 C 3.492188 0 3.1875 -0.0351562 2.90625 -0.109375 C 2.625 -0.179688 2.367188 -0.363281 2.140625 -0.65625 C 1.921875 -0.945312 1.8125 -1.390625 1.8125 -1.984375 L 1.8125 -6.640625 L 0.921875 -6.640625 C 0.722656 -6.640625 0.5625 -6.703125 0.4375 -6.828125 C 0.3125 -6.953125 0.25 -7.113281 0.25 -7.3125 C 0.25 -7.507812 0.3125 -7.664062 0.4375 -7.78125 C 0.5625 -7.90625 0.722656 -7.96875 0.921875 -7.96875 L 1.8125 -7.96875 L 1.8125 -9.265625 C 1.8125 -9.472656 1.878906 -9.644531 2.015625 -9.78125 C 2.160156 -9.925781 2.34375 -10 2.5625 -10 C 2.757812 -10 2.925781 -9.925781 3.0625 -9.78125 C 3.207031 -9.644531 3.28125 -9.472656 3.28125 -9.265625 L 3.28125 -7.96875 L 4.5625 -7.96875 C 4.75 -7.96875 4.90625 -7.90625 5.03125 -7.78125 C 5.164062 -7.65625 5.234375 -7.492188 5.234375 -7.296875 C 5.234375 -7.097656 5.164062 -6.9375 5.03125 -6.8125 C 4.90625 -6.695312 4.75 -6.640625 4.5625 -6.640625 Z M 3.28125 -6.640625 "/></g></g></g><g fill="#000000" fill-opacity="1"><g transform="translate(335.180456, 323.180639)"><g><path d="M 5.109375 -8.203125 C 6.910156 -8.203125 7.8125 -7.082031 7.8125 -4.84375 L 7.8125 -0.734375 C 7.8125 -0.535156 7.742188 -0.363281 7.609375 -0.21875 C 7.472656 -0.0703125 7.296875 0 7.078125 0 C 6.867188 0 6.695312 -0.0703125 6.5625 -0.21875 C 6.425781 -0.363281 6.359375 -0.535156 6.359375 -0.734375 L 6.359375 -4.84375 C 6.359375 -6.175781 5.789062 -6.84375 4.65625 -6.84375 C 4.050781 -6.84375 3.550781 -6.648438 3.15625 -6.265625 C 2.757812 -5.878906 2.5625 -5.40625 2.5625 -4.84375 L 2.5625 -0.734375 C 2.5625 -0.535156 2.488281 -0.363281 2.34375 -0.21875 C 2.207031 -0.0703125 2.03125 0 1.8125 0 C 1.601562 0 1.429688 -0.0664062 1.296875 -0.203125 C 1.160156 -0.347656 1.09375 -0.523438 1.09375 -0.734375 L 1.09375 -10.65625 C 1.09375 -10.851562 1.160156 -11.023438 1.296875 -11.171875 C 1.441406 -11.316406 1.613281 -11.390625 1.8125 -11.390625 C 2.03125 -11.390625 2.207031 -11.316406 2.34375 -11.171875 C 2.488281 -11.023438 2.5625 -10.851562 2.5625 -10.65625 L 2.5625 -6.75 C 2.8125 -7.15625 3.164062 -7.5 3.625 -7.78125 C 4.09375 -8.0625 4.585938 -8.203125 5.109375 -8.203125 Z M 5.109375 -8.203125 "/></g></g></g><g fill="#000000" fill-opacity="1"><g transform="translate(347.76803, 323.180639)"><g><path d="M 2.484375 -0.734375 C 2.484375 -0.535156 2.410156 -0.363281 2.265625 -0.21875 C 2.128906 -0.0703125 1.953125 0 1.734375 0 C 1.535156 0 1.363281 -0.0703125 1.21875 -0.21875 C 1.082031 -0.363281 1.015625 -0.535156 1.015625 -0.734375 L 1.015625 -7.40625 C 1.015625 -7.601562 1.082031 -7.773438 1.21875 -7.921875 C 1.363281 -8.066406 1.535156 -8.140625 1.734375 -8.140625 C 1.953125 -8.140625 2.128906 -8.066406 2.265625 -7.921875 C 2.410156 -7.773438 2.484375 -7.601562 2.484375 -7.40625 Z M 1.75 -9.15625 C 1.445312 -9.15625 1.226562 -9.207031 1.09375 -9.3125 C 0.96875 -9.425781 0.90625 -9.597656 0.90625 -9.828125 L 0.90625 -10.078125 C 0.90625 -10.328125 0.972656 -10.503906 1.109375 -10.609375 C 1.253906 -10.710938 1.472656 -10.765625 1.765625 -10.765625 C 2.046875 -10.765625 2.25 -10.707031 2.375 -10.59375 C 2.507812 -10.488281 2.578125 -10.316406 2.578125 -10.078125 L 2.578125 -9.828125 C 2.578125 -9.585938 2.507812 -9.414062 2.375 -9.3125 C 2.238281 -9.207031 2.03125 -9.15625 1.75 -9.15625 Z M 1.75 -9.15625 "/></g></g></g><g fill="#000000" fill-opacity="1"><g transform="translate(354.939314, 323.180639)"><g><path d="M 5.203125 -8.25 C 7.046875 -8.25 7.96875 -7.140625 7.96875 -4.921875 L 7.96875 -0.734375 C 7.96875 -0.535156 7.898438 -0.363281 7.765625 -0.21875 C 7.628906 -0.0703125 7.453125 0 7.234375 0 C 7.023438 0 6.851562 -0.0703125 6.71875 -0.21875 C 6.582031 -0.363281 6.515625 -0.535156 6.515625 -0.734375 L 6.515625 -4.90625 C 6.515625 -5.507812 6.375 -5.988281 6.09375 -6.34375 C 5.8125 -6.707031 5.359375 -6.890625 4.734375 -6.890625 C 4.328125 -6.890625 3.957031 -6.800781 3.625 -6.625 C 3.289062 -6.445312 3.03125 -6.207031 2.84375 -5.90625 C 2.65625 -5.601562 2.5625 -5.269531 2.5625 -4.90625 L 2.5625 -0.734375 C 2.5625 -0.535156 2.488281 -0.363281 2.34375 -0.21875 C 2.207031 -0.0703125 2.03125 0 1.8125 0 C 1.601562 0 1.429688 -0.0664062 1.296875 -0.203125 C 1.160156 -0.347656 1.09375 -0.523438 1.09375 -0.734375 L 1.09375 -7.328125 C 1.09375 -7.535156 1.160156 -7.707031 1.296875 -7.84375 C 1.441406 -7.988281 1.613281 -8.0625 1.8125 -8.0625 C 2.03125 -8.0625 2.207031 -7.988281 2.34375 -7.84375 C 2.488281 -7.707031 2.5625 -7.535156 2.5625 -7.328125 L 2.5625 -6.78125 C 2.820312 -7.195312 3.191406 -7.546875 3.671875 -7.828125 C 4.148438 -8.109375 4.660156 -8.25 5.203125 -8.25 Z M 5.203125 -8.25 "/></g></g></g><g fill="#000000" fill-opacity="1"><g transform="translate(367.680775, 323.180639)"><g><path d="M 7.828125 -8.171875 C 8.046875 -8.171875 8.222656 -8.097656 8.359375 -7.953125 C 8.503906 -7.816406 8.578125 -7.640625 8.578125 -7.421875 L 8.578125 -0.640625 C 8.578125 0.179688 8.398438 0.875 8.046875 1.4375 C 7.691406 2 7.207031 2.410156 6.59375 2.671875 C 5.988281 2.941406 5.3125 3.078125 4.5625 3.078125 C 4.144531 3.078125 3.660156 3.003906 3.109375 2.859375 C 2.566406 2.710938 2.21875 2.566406 2.0625 2.421875 C 1.738281 2.253906 1.578125 2.046875 1.578125 1.796875 C 1.578125 1.734375 1.597656 1.648438 1.640625 1.546875 C 1.753906 1.296875 1.945312 1.171875 2.21875 1.171875 C 2.351562 1.171875 2.492188 1.203125 2.640625 1.265625 C 3.460938 1.578125 4.109375 1.734375 4.578125 1.734375 C 5.390625 1.734375 6.015625 1.535156 6.453125 1.140625 C 6.890625 0.742188 7.109375 0.203125 7.109375 -0.484375 L 7.109375 -1.3125 C 6.890625 -0.90625 6.523438 -0.554688 6.015625 -0.265625 C 5.515625 0.015625 4.984375 0.15625 4.421875 0.15625 C 3.710938 0.15625 3.0625 -0.0195312 2.46875 -0.375 C 1.882812 -0.738281 1.425781 -1.238281 1.09375 -1.875 C 0.757812 -2.519531 0.59375 -3.242188 0.59375 -4.046875 C 0.59375 -4.847656 0.757812 -5.566406 1.09375 -6.203125 C 1.425781 -6.847656 1.882812 -7.347656 2.46875 -7.703125 C 3.050781 -8.066406 3.691406 -8.25 4.390625 -8.25 C 4.953125 -8.25 5.472656 -8.117188 5.953125 -7.859375 C 6.441406 -7.609375 6.828125 -7.296875 7.109375 -6.921875 L 7.109375 -7.421875 C 7.109375 -7.628906 7.175781 -7.804688 7.3125 -7.953125 C 7.445312 -8.097656 7.617188 -8.171875 7.828125 -8.171875 Z M 4.59375 -1.203125 C 5.09375 -1.203125 5.535156 -1.320312 5.921875 -1.5625 C 6.316406 -1.800781 6.625 -2.140625 6.84375 -2.578125 C 7.0625 -3.015625 7.171875 -3.503906 7.171875 -4.046875 C 7.171875 -4.585938 7.0625 -5.070312 6.84375 -5.5 C 6.625 -5.9375 6.316406 -6.273438 5.921875 -6.515625 C 5.535156 -6.765625 5.09375 -6.890625 4.59375 -6.890625 C 4.09375 -6.890625 3.644531 -6.765625 3.25 -6.515625 C 2.863281 -6.273438 2.5625 -5.9375 2.34375 -5.5 C 2.125 -5.0625 2.015625 -4.578125 2.015625 -4.046875 C 2.015625 -3.515625 2.125 -3.03125 2.34375 -2.59375 C 2.5625 -2.15625 2.863281 -1.8125 3.25 -1.5625 C 3.644531 -1.320312 4.09375 -1.203125 4.59375 -1.203125 Z M 4.59375 -1.203125 "/></g></g></g><g fill="#000000" fill-opacity="1"><g transform="translate(381.006933, 323.180639)"><g><path d="M 0.625 -1.265625 C 0.539062 -1.410156 0.5 -1.546875 0.5 -1.671875 C 0.5 -1.878906 0.601562 -2.054688 0.8125 -2.203125 C 0.914062 -2.273438 1.035156 -2.3125 1.171875 -2.3125 C 1.359375 -2.3125 1.523438 -2.234375 1.671875 -2.078125 C 1.984375 -1.722656 2.316406 -1.457031 2.671875 -1.28125 C 3.023438 -1.113281 3.445312 -1.03125 3.9375 -1.03125 C 4.332031 -1.039062 4.675781 -1.128906 4.96875 -1.296875 C 5.269531 -1.460938 5.421875 -1.738281 5.421875 -2.125 C 5.421875 -2.46875 5.269531 -2.734375 4.96875 -2.921875 C 4.664062 -3.109375 4.21875 -3.28125 3.625 -3.4375 C 3.050781 -3.582031 2.570312 -3.738281 2.1875 -3.90625 C 1.8125 -4.082031 1.492188 -4.332031 1.234375 -4.65625 C 0.972656 -4.976562 0.84375 -5.398438 0.84375 -5.921875 C 0.84375 -6.390625 0.972656 -6.796875 1.234375 -7.140625 C 1.492188 -7.492188 1.84375 -7.765625 2.28125 -7.953125 C 2.71875 -8.148438 3.191406 -8.25 3.703125 -8.25 C 4.203125 -8.25 4.691406 -8.15625 5.171875 -7.96875 C 5.660156 -7.789062 6.0625 -7.507812 6.375 -7.125 C 6.5 -6.976562 6.5625 -6.828125 6.5625 -6.671875 C 6.5625 -6.515625 6.476562 -6.359375 6.3125 -6.203125 C 6.207031 -6.109375 6.078125 -6.0625 5.921875 -6.0625 C 5.734375 -6.0625 5.585938 -6.125 5.484375 -6.25 C 5.265625 -6.5 5 -6.6875 4.6875 -6.8125 C 4.375 -6.945312 4.023438 -7.015625 3.640625 -7.015625 C 3.253906 -7.015625 2.925781 -6.9375 2.65625 -6.78125 C 2.382812 -6.625 2.25 -6.351562 2.25 -5.96875 C 2.257812 -5.613281 2.414062 -5.347656 2.71875 -5.171875 C 3.019531 -4.992188 3.484375 -4.820312 4.109375 -4.65625 C 4.648438 -4.519531 5.097656 -4.367188 5.453125 -4.203125 C 5.816406 -4.035156 6.117188 -3.789062 6.359375 -3.46875 C 6.609375 -3.144531 6.734375 -2.722656 6.734375 -2.203125 C 6.734375 -1.722656 6.59375 -1.304688 6.3125 -0.953125 C 6.039062 -0.597656 5.679688 -0.320312 5.234375 -0.125 C 4.796875 0.0625 4.320312 0.15625 3.8125 0.15625 C 3.164062 0.15625 2.566406 0.046875 2.015625 -0.171875 C 1.472656 -0.398438 1.007812 -0.765625 0.625 -1.265625 Z M 0.625 -1.265625 "/></g></g></g><g fill="#000000" fill-opacity="1"><g transform="translate(392.025029, 323.180639)"><g/></g></g><g fill="#000000" fill-opacity="1"><g transform="translate(399.965679, 323.180639)"><g><path d="M 5.140625 -8.203125 C 5.835938 -8.203125 6.46875 -8.023438 7.03125 -7.671875 C 7.59375 -7.316406 8.035156 -6.820312 8.359375 -6.1875 C 8.679688 -5.550781 8.84375 -4.832031 8.84375 -4.03125 C 8.84375 -3.226562 8.679688 -2.507812 8.359375 -1.875 C 8.035156 -1.25 7.59375 -0.753906 7.03125 -0.390625 C 6.46875 -0.0351562 5.847656 0.140625 5.171875 0.140625 C 4.640625 0.140625 4.140625 0.0234375 3.671875 -0.203125 C 3.210938 -0.441406 2.84375 -0.734375 2.5625 -1.078125 L 2.5625 2.34375 C 2.5625 2.539062 2.488281 2.710938 2.34375 2.859375 C 2.207031 3.003906 2.03125 3.078125 1.8125 3.078125 C 1.613281 3.078125 1.441406 3.003906 1.296875 2.859375 C 1.160156 2.722656 1.09375 2.550781 1.09375 2.34375 L 1.09375 -7.34375 C 1.09375 -7.5625 1.160156 -7.738281 1.296875 -7.875 C 1.429688 -8.019531 1.601562 -8.09375 1.8125 -8.09375 C 2.03125 -8.09375 2.207031 -8.019531 2.34375 -7.875 C 2.488281 -7.738281 2.5625 -7.5625 2.5625 -7.34375 L 2.5625 -6.890625 C 2.800781 -7.253906 3.15625 -7.5625 3.625 -7.8125 C 4.101562 -8.070312 4.609375 -8.203125 5.140625 -8.203125 Z M 4.96875 -1.21875 C 5.4375 -1.21875 5.859375 -1.335938 6.234375 -1.578125 C 6.617188 -1.828125 6.914062 -2.164062 7.125 -2.59375 C 7.34375 -3.019531 7.453125 -3.5 7.453125 -4.03125 C 7.453125 -4.5625 7.34375 -5.039062 7.125 -5.46875 C 6.914062 -5.894531 6.617188 -6.226562 6.234375 -6.46875 C 5.859375 -6.71875 5.4375 -6.84375 4.96875 -6.84375 C 4.488281 -6.84375 4.054688 -6.722656 3.671875 -6.484375 C 3.296875 -6.242188 3.003906 -5.90625 2.796875 -5.46875 C 2.585938 -5.039062 2.484375 -4.5625 2.484375 -4.03125 C 2.484375 -3.5 2.585938 -3.015625 2.796875 -2.578125 C 3.003906 -2.148438 3.296875 -1.816406 3.671875 -1.578125 C 4.054688 -1.335938 4.488281 -1.21875 4.96875 -1.21875 Z M 4.96875 -1.21875 "/></g></g></g><g fill="#000000" fill-opacity="1"><g transform="translate(413.091814, 323.180639)"><g><path d="M 8.171875 -4.34375 C 8.160156 -4.15625 8.082031 -3.992188 7.9375 -3.859375 C 7.789062 -3.734375 7.625 -3.671875 7.4375 -3.671875 L 2.015625 -3.671875 C 2.085938 -2.929688 2.367188 -2.332031 2.859375 -1.875 C 3.359375 -1.425781 3.96875 -1.203125 4.6875 -1.203125 C 5.1875 -1.203125 5.585938 -1.269531 5.890625 -1.40625 C 6.203125 -1.550781 6.472656 -1.738281 6.703125 -1.96875 C 6.859375 -2.0625 7.007812 -2.109375 7.15625 -2.109375 C 7.332031 -2.109375 7.476562 -2.046875 7.59375 -1.921875 C 7.707031 -1.796875 7.765625 -1.65625 7.765625 -1.5 C 7.765625 -1.28125 7.664062 -1.082031 7.46875 -0.90625 C 7.164062 -0.613281 6.769531 -0.363281 6.28125 -0.15625 C 5.789062 0.0507812 5.285156 0.15625 4.765625 0.15625 C 3.941406 0.15625 3.210938 -0.015625 2.578125 -0.359375 C 1.941406 -0.710938 1.453125 -1.203125 1.109375 -1.828125 C 0.765625 -2.453125 0.59375 -3.160156 0.59375 -3.953125 C 0.59375 -4.816406 0.769531 -5.570312 1.125 -6.21875 C 1.476562 -6.875 1.945312 -7.375 2.53125 -7.71875 C 3.113281 -8.070312 3.738281 -8.25 4.40625 -8.25 C 5.0625 -8.25 5.675781 -8.078125 6.25 -7.734375 C 6.820312 -7.398438 7.28125 -6.9375 7.625 -6.34375 C 7.976562 -5.75 8.160156 -5.082031 8.171875 -4.34375 Z M 4.40625 -6.890625 C 3.832031 -6.890625 3.332031 -6.726562 2.90625 -6.40625 C 2.488281 -6.082031 2.210938 -5.582031 2.078125 -4.90625 L 6.625 -4.90625 L 6.625 -5.03125 C 6.570312 -5.570312 6.328125 -6.015625 5.890625 -6.359375 C 5.453125 -6.710938 4.957031 -6.890625 4.40625 -6.890625 Z M 4.40625 -6.890625 "/></g></g></g><g fill="#000000" fill-opacity="1"><g transform="translate(425.540909, 323.180639)"><g><path d="M 8.71875 -4.03125 C 8.71875 -3.226562 8.539062 -2.507812 8.1875 -1.875 C 7.832031 -1.238281 7.34375 -0.738281 6.71875 -0.375 C 6.09375 -0.0195312 5.40625 0.15625 4.65625 0.15625 C 3.914062 0.15625 3.234375 -0.0195312 2.609375 -0.375 C 1.984375 -0.738281 1.488281 -1.238281 1.125 -1.875 C 0.769531 -2.507812 0.59375 -3.226562 0.59375 -4.03125 C 0.59375 -4.832031 0.769531 -5.554688 1.125 -6.203125 C 1.488281 -6.847656 1.984375 -7.347656 2.609375 -7.703125 C 3.234375 -8.066406 3.914062 -8.25 4.65625 -8.25 C 5.40625 -8.25 6.09375 -8.066406 6.71875 -7.703125 C 7.34375 -7.347656 7.832031 -6.847656 8.1875 -6.203125 C 8.539062 -5.554688 8.71875 -4.832031 8.71875 -4.03125 Z M 7.265625 -4.03125 C 7.265625 -4.582031 7.148438 -5.078125 6.921875 -5.515625 C 6.691406 -5.953125 6.378906 -6.289062 5.984375 -6.53125 C 5.585938 -6.769531 5.144531 -6.890625 4.65625 -6.890625 C 4.175781 -6.890625 3.738281 -6.769531 3.34375 -6.53125 C 2.945312 -6.289062 2.632812 -5.953125 2.40625 -5.515625 C 2.175781 -5.078125 2.0625 -4.582031 2.0625 -4.03125 C 2.0625 -3.488281 2.175781 -3 2.40625 -2.5625 C 2.632812 -2.132812 2.945312 -1.800781 3.34375 -1.5625 C 3.738281 -1.320312 4.175781 -1.203125 4.65625 -1.203125 C 5.144531 -1.203125 5.585938 -1.320312 5.984375 -1.5625 C 6.378906 -1.800781 6.691406 -2.132812 6.921875 -2.5625 C 7.148438 -3 7.265625 -3.488281 7.265625 -4.03125 Z M 7.265625 -4.03125 "/></g></g></g><g fill="#000000" fill-opacity="1"><g transform="translate(438.543937, 323.180639)"><g><path d="M 5.140625 -8.203125 C 5.835938 -8.203125 6.46875 -8.023438 7.03125 -7.671875 C 7.59375 -7.316406 8.035156 -6.820312 8.359375 -6.1875 C 8.679688 -5.550781 8.84375 -4.832031 8.84375 -4.03125 C 8.84375 -3.226562 8.679688 -2.507812 8.359375 -1.875 C 8.035156 -1.25 7.59375 -0.753906 7.03125 -0.390625 C 6.46875 -0.0351562 5.847656 0.140625 5.171875 0.140625 C 4.640625 0.140625 4.140625 0.0234375 3.671875 -0.203125 C 3.210938 -0.441406 2.84375 -0.734375 2.5625 -1.078125 L 2.5625 2.34375 C 2.5625 2.539062 2.488281 2.710938 2.34375 2.859375 C 2.207031 3.003906 2.03125 3.078125 1.8125 3.078125 C 1.613281 3.078125 1.441406 3.003906 1.296875 2.859375 C 1.160156 2.722656 1.09375 2.550781 1.09375 2.34375 L 1.09375 -7.34375 C 1.09375 -7.5625 1.160156 -7.738281 1.296875 -7.875 C 1.429688 -8.019531 1.601562 -8.09375 1.8125 -8.09375 C 2.03125 -8.09375 2.207031 -8.019531 2.34375 -7.875 C 2.488281 -7.738281 2.5625 -7.5625 2.5625 -7.34375 L 2.5625 -6.890625 C 2.800781 -7.253906 3.15625 -7.5625 3.625 -7.8125 C 4.101562 -8.070312 4.609375 -8.203125 5.140625 -8.203125 Z M 4.96875 -1.21875 C 5.4375 -1.21875 5.859375 -1.335938 6.234375 -1.578125 C 6.617188 -1.828125 6.914062 -2.164062 7.125 -2.59375 C 7.34375 -3.019531 7.453125 -3.5 7.453125 -4.03125 C 7.453125 -4.5625 7.34375 -5.039062 7.125 -5.46875 C 6.914062 -5.894531 6.617188 -6.226562 6.234375 -6.46875 C 5.859375 -6.71875 5.4375 -6.84375 4.96875 -6.84375 C 4.488281 -6.84375 4.054688 -6.722656 3.671875 -6.484375 C 3.296875 -6.242188 3.003906 -5.90625 2.796875 -5.46875 C 2.585938 -5.039062 2.484375 -4.5625 2.484375 -4.03125 C 2.484375 -3.5 2.585938 -3.015625 2.796875 -2.578125 C 3.003906 -2.148438 3.296875 -1.816406 3.671875 -1.578125 C 4.054688 -1.335938 4.488281 -1.21875 4.96875 -1.21875 Z M 4.96875 -1.21875 "/></g></g></g><g fill="#000000" fill-opacity="1"><g transform="translate(451.670055, 323.180639)"><g><path d="M 2.671875 -0.734375 C 2.671875 -0.535156 2.597656 -0.363281 2.453125 -0.21875 C 2.316406 -0.0703125 2.144531 0 1.9375 0 C 1.726562 0 1.554688 -0.0703125 1.421875 -0.21875 C 1.285156 -0.363281 1.21875 -0.535156 1.21875 -0.734375 L 1.21875 -10.65625 C 1.21875 -10.851562 1.285156 -11.023438 1.421875 -11.171875 C 1.566406 -11.316406 1.742188 -11.390625 1.953125 -11.390625 C 2.160156 -11.390625 2.332031 -11.316406 2.46875 -11.171875 C 2.601562 -11.023438 2.671875 -10.851562 2.671875 -10.65625 Z M 2.671875 -0.734375 "/></g></g></g><g fill="#000000" fill-opacity="1"><g transform="translate(459.241421, 323.180639)"><g><path d="M 8.171875 -4.34375 C 8.160156 -4.15625 8.082031 -3.992188 7.9375 -3.859375 C 7.789062 -3.734375 7.625 -3.671875 7.4375 -3.671875 L 2.015625 -3.671875 C 2.085938 -2.929688 2.367188 -2.332031 2.859375 -1.875 C 3.359375 -1.425781 3.96875 -1.203125 4.6875 -1.203125 C 5.1875 -1.203125 5.585938 -1.269531 5.890625 -1.40625 C 6.203125 -1.550781 6.472656 -1.738281 6.703125 -1.96875 C 6.859375 -2.0625 7.007812 -2.109375 7.15625 -2.109375 C 7.332031 -2.109375 7.476562 -2.046875 7.59375 -1.921875 C 7.707031 -1.796875 7.765625 -1.65625 7.765625 -1.5 C 7.765625 -1.28125 7.664062 -1.082031 7.46875 -0.90625 C 7.164062 -0.613281 6.769531 -0.363281 6.28125 -0.15625 C 5.789062 0.0507812 5.285156 0.15625 4.765625 0.15625 C 3.941406 0.15625 3.210938 -0.015625 2.578125 -0.359375 C 1.941406 -0.710938 1.453125 -1.203125 1.109375 -1.828125 C 0.765625 -2.453125 0.59375 -3.160156 0.59375 -3.953125 C 0.59375 -4.816406 0.769531 -5.570312 1.125 -6.21875 C 1.476562 -6.875 1.945312 -7.375 2.53125 -7.71875 C 3.113281 -8.070312 3.738281 -8.25 4.40625 -8.25 C 5.0625 -8.25 5.675781 -8.078125 6.25 -7.734375 C 6.820312 -7.398438 7.28125 -6.9375 7.625 -6.34375 C 7.976562 -5.75 8.160156 -5.082031 8.171875 -4.34375 Z M 4.40625 -6.890625 C 3.832031 -6.890625 3.332031 -6.726562 2.90625 -6.40625 C 2.488281 -6.082031 2.210938 -5.582031 2.078125 -4.90625 L 6.625 -4.90625 L 6.625 -5.03125 C 6.570312 -5.570312 6.328125 -6.015625 5.890625 -6.359375 C 5.453125 -6.710938 4.957031 -6.890625 4.40625 -6.890625 Z M 4.40625 -6.890625 "/></g></g></g><g fill="#000000" fill-opacity="1"><g transform="translate(471.690516, 323.180639)"><g/></g></g><g fill="#000000" fill-opacity="1"><g transform="translate(479.631148, 323.180639)"><g><path d="M 7.640625 -8.171875 C 7.847656 -8.171875 8.019531 -8.097656 8.15625 -7.953125 C 8.300781 -7.816406 8.375 -7.640625 8.375 -7.421875 L 8.375 -0.734375 C 8.375 -0.535156 8.300781 -0.363281 8.15625 -0.21875 C 8.019531 -0.0703125 7.847656 0 7.640625 0 C 7.421875 0 7.242188 -0.0664062 7.109375 -0.203125 C 6.972656 -0.347656 6.90625 -0.523438 6.90625 -0.734375 L 6.90625 -1.140625 C 6.644531 -0.773438 6.28125 -0.46875 5.8125 -0.21875 C 5.351562 0.03125 4.859375 0.15625 4.328125 0.15625 C 3.628906 0.15625 2.992188 -0.0195312 2.421875 -0.375 C 1.847656 -0.738281 1.398438 -1.238281 1.078125 -1.875 C 0.753906 -2.519531 0.59375 -3.242188 0.59375 -4.046875 C 0.59375 -4.847656 0.753906 -5.566406 1.078125 -6.203125 C 1.398438 -6.847656 1.84375 -7.347656 2.40625 -7.703125 C 2.976562 -8.066406 3.601562 -8.25 4.28125 -8.25 C 4.820312 -8.25 5.328125 -8.132812 5.796875 -7.90625 C 6.265625 -7.6875 6.632812 -7.398438 6.90625 -7.046875 L 6.90625 -7.421875 C 6.90625 -7.628906 6.972656 -7.804688 7.109375 -7.953125 C 7.242188 -8.097656 7.421875 -8.171875 7.640625 -8.171875 Z M 4.5 -1.203125 C 4.976562 -1.203125 5.40625 -1.320312 5.78125 -1.5625 C 6.15625 -1.8125 6.445312 -2.148438 6.65625 -2.578125 C 6.863281 -3.015625 6.96875 -3.503906 6.96875 -4.046875 C 6.96875 -4.578125 6.863281 -5.054688 6.65625 -5.484375 C 6.445312 -5.921875 6.15625 -6.265625 5.78125 -6.515625 C 5.40625 -6.765625 4.976562 -6.890625 4.5 -6.890625 C 4.007812 -6.890625 3.578125 -6.765625 3.203125 -6.515625 C 2.828125 -6.273438 2.535156 -5.9375 2.328125 -5.5 C 2.117188 -5.070312 2.015625 -4.585938 2.015625 -4.046875 C 2.015625 -3.503906 2.117188 -3.015625 2.328125 -2.578125 C 2.535156 -2.148438 2.828125 -1.8125 3.203125 -1.5625 C 3.578125 -1.320312 4.007812 -1.203125 4.5 -1.203125 Z M 4.5 -1.203125 "/></g></g></g><g fill="#000000" fill-opacity="1"><g transform="translate(492.757283, 323.180639)"><g><path d="M 4.609375 -8.25 C 5.410156 -8.25 6.082031 -8.117188 6.625 -7.859375 C 7.164062 -7.609375 7.4375 -7.28125 7.4375 -6.875 C 7.4375 -6.707031 7.378906 -6.550781 7.265625 -6.40625 C 7.148438 -6.269531 7.003906 -6.203125 6.828125 -6.203125 C 6.703125 -6.203125 6.597656 -6.222656 6.515625 -6.265625 C 6.441406 -6.304688 6.335938 -6.375 6.203125 -6.46875 C 6.140625 -6.53125 6.039062 -6.597656 5.90625 -6.671875 C 5.78125 -6.734375 5.601562 -6.785156 5.375 -6.828125 C 5.15625 -6.867188 4.953125 -6.890625 4.765625 -6.890625 C 4.234375 -6.890625 3.757812 -6.765625 3.34375 -6.515625 C 2.9375 -6.273438 2.617188 -5.9375 2.390625 -5.5 C 2.171875 -5.0625 2.0625 -4.578125 2.0625 -4.046875 C 2.0625 -3.503906 2.171875 -3.015625 2.390625 -2.578125 C 2.609375 -2.148438 2.914062 -1.8125 3.3125 -1.5625 C 3.71875 -1.320312 4.175781 -1.203125 4.6875 -1.203125 C 5.226562 -1.203125 5.660156 -1.285156 5.984375 -1.453125 C 6.054688 -1.492188 6.15625 -1.554688 6.28125 -1.640625 C 6.382812 -1.722656 6.472656 -1.785156 6.546875 -1.828125 C 6.628906 -1.867188 6.722656 -1.890625 6.828125 -1.890625 C 7.035156 -1.890625 7.195312 -1.828125 7.3125 -1.703125 C 7.4375 -1.578125 7.5 -1.410156 7.5 -1.203125 C 7.5 -0.984375 7.359375 -0.769531 7.078125 -0.5625 C 6.804688 -0.351562 6.441406 -0.179688 5.984375 -0.046875 C 5.535156 0.0859375 5.050781 0.15625 4.53125 0.15625 C 3.75 0.15625 3.054688 -0.0234375 2.453125 -0.390625 C 1.859375 -0.753906 1.398438 -1.253906 1.078125 -1.890625 C 0.753906 -2.535156 0.59375 -3.253906 0.59375 -4.046875 C 0.59375 -4.835938 0.757812 -5.550781 1.09375 -6.1875 C 1.4375 -6.832031 1.910156 -7.335938 2.515625 -7.703125 C 3.128906 -8.066406 3.828125 -8.25 4.609375 -8.25 Z M 4.609375 -8.25 "/></g></g></g><g fill="#000000" fill-opacity="1"><g transform="translate(504.344686, 323.180639)"><g><path d="M 3.28125 -6.640625 L 3.28125 -2.046875 C 3.28125 -1.535156 3.507812 -1.28125 3.96875 -1.28125 C 4.039062 -1.28125 4.140625 -1.296875 4.265625 -1.328125 C 4.390625 -1.367188 4.488281 -1.390625 4.5625 -1.390625 C 4.6875 -1.390625 4.796875 -1.332031 4.890625 -1.21875 C 4.984375 -1.101562 5.03125 -0.957031 5.03125 -0.78125 C 5.03125 -0.570312 4.90625 -0.390625 4.65625 -0.234375 C 4.414062 -0.078125 4.140625 0 3.828125 0 C 3.492188 0 3.1875 -0.0351562 2.90625 -0.109375 C 2.625 -0.179688 2.367188 -0.363281 2.140625 -0.65625 C 1.921875 -0.945312 1.8125 -1.390625 1.8125 -1.984375 L 1.8125 -6.640625 L 0.921875 -6.640625 C 0.722656 -6.640625 0.5625 -6.703125 0.4375 -6.828125 C 0.3125 -6.953125 0.25 -7.113281 0.25 -7.3125 C 0.25 -7.507812 0.3125 -7.664062 0.4375 -7.78125 C 0.5625 -7.90625 0.722656 -7.96875 0.921875 -7.96875 L 1.8125 -7.96875 L 1.8125 -9.265625 C 1.8125 -9.472656 1.878906 -9.644531 2.015625 -9.78125 C 2.160156 -9.925781 2.34375 -10 2.5625 -10 C 2.757812 -10 2.925781 -9.925781 3.0625 -9.78125 C 3.207031 -9.644531 3.28125 -9.472656 3.28125 -9.265625 L 3.28125 -7.96875 L 4.5625 -7.96875 C 4.75 -7.96875 4.90625 -7.90625 5.03125 -7.78125 C 5.164062 -7.65625 5.234375 -7.492188 5.234375 -7.296875 C 5.234375 -7.097656 5.164062 -6.9375 5.03125 -6.8125 C 4.90625 -6.695312 4.75 -6.640625 4.5625 -6.640625 Z M 3.28125 -6.640625 "/></g></g></g><g fill="#000000" fill-opacity="1"><g transform="translate(513.870222, 323.180639)"><g><path d="M 7.09375 -8.0625 C 7.3125 -8.0625 7.488281 -7.988281 7.625 -7.84375 C 7.757812 -7.707031 7.828125 -7.535156 7.828125 -7.328125 L 7.828125 -3.234375 C 7.828125 -2.160156 7.53125 -1.328125 6.9375 -0.734375 C 6.351562 -0.148438 5.523438 0.140625 4.453125 0.140625 C 3.378906 0.140625 2.550781 -0.148438 1.96875 -0.734375 C 1.382812 -1.328125 1.09375 -2.160156 1.09375 -3.234375 L 1.09375 -7.328125 C 1.09375 -7.535156 1.160156 -7.707031 1.296875 -7.84375 C 1.441406 -7.988281 1.613281 -8.0625 1.8125 -8.0625 C 2.03125 -8.0625 2.207031 -7.988281 2.34375 -7.84375 C 2.488281 -7.707031 2.5625 -7.535156 2.5625 -7.328125 L 2.5625 -3.234375 C 2.5625 -1.890625 3.191406 -1.21875 4.453125 -1.21875 C 5.078125 -1.21875 5.550781 -1.382812 5.875 -1.71875 C 6.207031 -2.0625 6.375 -2.566406 6.375 -3.234375 L 6.375 -7.328125 C 6.375 -7.535156 6.441406 -7.707031 6.578125 -7.84375 C 6.710938 -7.988281 6.882812 -8.0625 7.09375 -8.0625 Z M 7.09375 -8.0625 "/></g></g></g><g fill="#000000" fill-opacity="1"><g transform="translate(526.473186, 323.180639)"><g><path d="M 7.640625 -8.171875 C 7.847656 -8.171875 8.019531 -8.097656 8.15625 -7.953125 C 8.300781 -7.816406 8.375 -7.640625 8.375 -7.421875 L 8.375 -0.734375 C 8.375 -0.535156 8.300781 -0.363281 8.15625 -0.21875 C 8.019531 -0.0703125 7.847656 0 7.640625 0 C 7.421875 0 7.242188 -0.0664062 7.109375 -0.203125 C 6.972656 -0.347656 6.90625 -0.523438 6.90625 -0.734375 L 6.90625 -1.140625 C 6.644531 -0.773438 6.28125 -0.46875 5.8125 -0.21875 C 5.351562 0.03125 4.859375 0.15625 4.328125 0.15625 C 3.628906 0.15625 2.992188 -0.0195312 2.421875 -0.375 C 1.847656 -0.738281 1.398438 -1.238281 1.078125 -1.875 C 0.753906 -2.519531 0.59375 -3.242188 0.59375 -4.046875 C 0.59375 -4.847656 0.753906 -5.566406 1.078125 -6.203125 C 1.398438 -6.847656 1.84375 -7.347656 2.40625 -7.703125 C 2.976562 -8.066406 3.601562 -8.25 4.28125 -8.25 C 4.820312 -8.25 5.328125 -8.132812 5.796875 -7.90625 C 6.265625 -7.6875 6.632812 -7.398438 6.90625 -7.046875 L 6.90625 -7.421875 C 6.90625 -7.628906 6.972656 -7.804688 7.109375 -7.953125 C 7.242188 -8.097656 7.421875 -8.171875 7.640625 -8.171875 Z M 4.5 -1.203125 C 4.976562 -1.203125 5.40625 -1.320312 5.78125 -1.5625 C 6.15625 -1.8125 6.445312 -2.148438 6.65625 -2.578125 C 6.863281 -3.015625 6.96875 -3.503906 6.96875 -4.046875 C 6.96875 -4.578125 6.863281 -5.054688 6.65625 -5.484375 C 6.445312 -5.921875 6.15625 -6.265625 5.78125 -6.515625 C 5.40625 -6.765625 4.976562 -6.890625 4.5 -6.890625 C 4.007812 -6.890625 3.578125 -6.765625 3.203125 -6.515625 C 2.828125 -6.273438 2.535156 -5.9375 2.328125 -5.5 C 2.117188 -5.070312 2.015625 -4.585938 2.015625 -4.046875 C 2.015625 -3.503906 2.117188 -3.015625 2.328125 -2.578125 C 2.535156 -2.148438 2.828125 -1.8125 3.203125 -1.5625 C 3.578125 -1.320312 4.007812 -1.203125 4.5 -1.203125 Z M 4.5 -1.203125 "/></g></g></g><g fill="#000000" fill-opacity="1"><g transform="translate(539.599321, 323.180639)"><g><path d="M 2.671875 -0.734375 C 2.671875 -0.535156 2.597656 -0.363281 2.453125 -0.21875 C 2.316406 -0.0703125 2.144531 0 1.9375 0 C 1.726562 0 1.554688 -0.0703125 1.421875 -0.21875 C 1.285156 -0.363281 1.21875 -0.535156 1.21875 -0.734375 L 1.21875 -10.65625 C 1.21875 -10.851562 1.285156 -11.023438 1.421875 -11.171875 C 1.566406 -11.316406 1.742188 -11.390625 1.953125 -11.390625 C 2.160156 -11.390625 2.332031 -11.316406 2.46875 -11.171875 C 2.601562 -11.023438 2.671875 -10.851562 2.671875 -10.65625 Z M 2.671875 -0.734375 "/></g></g></g><g fill="#000000" fill-opacity="1"><g transform="translate(547.170687, 323.180639)"><g><path d="M 2.671875 -0.734375 C 2.671875 -0.535156 2.597656 -0.363281 2.453125 -0.21875 C 2.316406 -0.0703125 2.144531 0 1.9375 0 C 1.726562 0 1.554688 -0.0703125 1.421875 -0.21875 C 1.285156 -0.363281 1.21875 -0.535156 1.21875 -0.734375 L 1.21875 -10.65625 C 1.21875 -10.851562 1.285156 -11.023438 1.421875 -11.171875 C 1.566406 -11.316406 1.742188 -11.390625 1.953125 -11.390625 C 2.160156 -11.390625 2.332031 -11.316406 2.46875 -11.171875 C 2.601562 -11.023438 2.671875 -10.851562 2.671875 -10.65625 Z M 2.671875 -0.734375 "/></g></g></g><g fill="#000000" fill-opacity="1"><g transform="translate(554.742053, 323.180639)"><g><path d="M 7.09375 -8.140625 C 7.3125 -8.140625 7.488281 -8.066406 7.625 -7.921875 C 7.757812 -7.773438 7.828125 -7.601562 7.828125 -7.40625 L 7.828125 -0.75 C 7.828125 0.53125 7.472656 1.488281 6.765625 2.125 C 6.054688 2.757812 5.125 3.078125 3.96875 3.078125 C 3.59375 3.078125 3.21875 3.039062 2.84375 2.96875 C 2.476562 2.894531 2.175781 2.796875 1.9375 2.671875 C 1.5625 2.503906 1.375 2.269531 1.375 1.96875 C 1.375 1.914062 1.382812 1.847656 1.40625 1.765625 C 1.46875 1.597656 1.550781 1.46875 1.65625 1.375 C 1.769531 1.28125 1.898438 1.234375 2.046875 1.234375 C 2.128906 1.234375 2.207031 1.25 2.28125 1.28125 C 2.59375 1.425781 2.875 1.535156 3.125 1.609375 C 3.375 1.691406 3.660156 1.734375 3.984375 1.734375 C 5.578125 1.734375 6.375 0.921875 6.375 -0.703125 L 6.375 -1.015625 C 6.09375 -0.648438 5.734375 -0.363281 5.296875 -0.15625 C 4.859375 0.0507812 4.359375 0.15625 3.796875 0.15625 C 2.953125 0.15625 2.289062 -0.113281 1.8125 -0.65625 C 1.332031 -1.207031 1.09375 -1.921875 1.09375 -2.796875 L 1.09375 -7.40625 C 1.09375 -7.613281 1.160156 -7.785156 1.296875 -7.921875 C 1.429688 -8.066406 1.601562 -8.140625 1.8125 -8.140625 C 2.03125 -8.140625 2.207031 -8.066406 2.34375 -7.921875 C 2.488281 -7.773438 2.5625 -7.601562 2.5625 -7.40625 L 2.5625 -3.1875 C 2.5625 -2.507812 2.707031 -2.007812 3 -1.6875 C 3.300781 -1.363281 3.753906 -1.203125 4.359375 -1.203125 C 4.941406 -1.203125 5.421875 -1.382812 5.796875 -1.75 C 6.179688 -2.125 6.375 -2.601562 6.375 -3.1875 L 6.375 -7.40625 C 6.375 -7.613281 6.4375 -7.785156 6.5625 -7.921875 C 6.695312 -8.066406 6.875 -8.140625 7.09375 -8.140625 Z M 7.09375 -8.140625 "/></g></g></g><g fill="#000000" fill-opacity="1"><g transform="translate(567.329627, 323.180639)"><g/></g></g><g fill="#000000" fill-opacity="1"><g transform="translate(575.27026, 323.180639)"><g><path d="M 7.09375 -8.0625 C 7.3125 -8.0625 7.488281 -7.988281 7.625 -7.84375 C 7.757812 -7.707031 7.828125 -7.535156 7.828125 -7.328125 L 7.828125 -3.234375 C 7.828125 -2.160156 7.53125 -1.328125 6.9375 -0.734375 C 6.351562 -0.148438 5.523438 0.140625 4.453125 0.140625 C 3.378906 0.140625 2.550781 -0.148438 1.96875 -0.734375 C 1.382812 -1.328125 1.09375 -2.160156 1.09375 -3.234375 L 1.09375 -7.328125 C 1.09375 -7.535156 1.160156 -7.707031 1.296875 -7.84375 C 1.441406 -7.988281 1.613281 -8.0625 1.8125 -8.0625 C 2.03125 -8.0625 2.207031 -7.988281 2.34375 -7.84375 C 2.488281 -7.707031 2.5625 -7.535156 2.5625 -7.328125 L 2.5625 -3.234375 C 2.5625 -1.890625 3.191406 -1.21875 4.453125 -1.21875 C 5.078125 -1.21875 5.550781 -1.382812 5.875 -1.71875 C 6.207031 -2.0625 6.375 -2.566406 6.375 -3.234375 L 6.375 -7.328125 C 6.375 -7.535156 6.441406 -7.707031 6.578125 -7.84375 C 6.710938 -7.988281 6.882812 -8.0625 7.09375 -8.0625 Z M 7.09375 -8.0625 "/></g></g></g><g fill="#000000" fill-opacity="1"><g transform="translate(587.873224, 323.180639)"><g><path d="M 0.625 -1.265625 C 0.539062 -1.410156 0.5 -1.546875 0.5 -1.671875 C 0.5 -1.878906 0.601562 -2.054688 0.8125 -2.203125 C 0.914062 -2.273438 1.035156 -2.3125 1.171875 -2.3125 C 1.359375 -2.3125 1.523438 -2.234375 1.671875 -2.078125 C 1.984375 -1.722656 2.316406 -1.457031 2.671875 -1.28125 C 3.023438 -1.113281 3.445312 -1.03125 3.9375 -1.03125 C 4.332031 -1.039062 4.675781 -1.128906 4.96875 -1.296875 C 5.269531 -1.460938 5.421875 -1.738281 5.421875 -2.125 C 5.421875 -2.46875 5.269531 -2.734375 4.96875 -2.921875 C 4.664062 -3.109375 4.21875 -3.28125 3.625 -3.4375 C 3.050781 -3.582031 2.570312 -3.738281 2.1875 -3.90625 C 1.8125 -4.082031 1.492188 -4.332031 1.234375 -4.65625 C 0.972656 -4.976562 0.84375 -5.398438 0.84375 -5.921875 C 0.84375 -6.390625 0.972656 -6.796875 1.234375 -7.140625 C 1.492188 -7.492188 1.84375 -7.765625 2.28125 -7.953125 C 2.71875 -8.148438 3.191406 -8.25 3.703125 -8.25 C 4.203125 -8.25 4.691406 -8.15625 5.171875 -7.96875 C 5.660156 -7.789062 6.0625 -7.507812 6.375 -7.125 C 6.5 -6.976562 6.5625 -6.828125 6.5625 -6.671875 C 6.5625 -6.515625 6.476562 -6.359375 6.3125 -6.203125 C 6.207031 -6.109375 6.078125 -6.0625 5.921875 -6.0625 C 5.734375 -6.0625 5.585938 -6.125 5.484375 -6.25 C 5.265625 -6.5 5 -6.6875 4.6875 -6.8125 C 4.375 -6.945312 4.023438 -7.015625 3.640625 -7.015625 C 3.253906 -7.015625 2.925781 -6.9375 2.65625 -6.78125 C 2.382812 -6.625 2.25 -6.351562 2.25 -5.96875 C 2.257812 -5.613281 2.414062 -5.347656 2.71875 -5.171875 C 3.019531 -4.992188 3.484375 -4.820312 4.109375 -4.65625 C 4.648438 -4.519531 5.097656 -4.367188 5.453125 -4.203125 C 5.816406 -4.035156 6.117188 -3.789062 6.359375 -3.46875 C 6.609375 -3.144531 6.734375 -2.722656 6.734375 -2.203125 C 6.734375 -1.722656 6.59375 -1.304688 6.3125 -0.953125 C 6.039062 -0.597656 5.679688 -0.320312 5.234375 -0.125 C 4.796875 0.0625 4.320312 0.15625 3.8125 0.15625 C 3.164062 0.15625 2.566406 0.046875 2.015625 -0.171875 C 1.472656 -0.398438 1.007812 -0.765625 0.625 -1.265625 Z M 0.625 -1.265625 "/></g></g></g><g fill="#000000" fill-opacity="1"><g transform="translate(598.891319, 323.180639)"><g><path d="M 8.171875 -4.34375 C 8.160156 -4.15625 8.082031 -3.992188 7.9375 -3.859375 C 7.789062 -3.734375 7.625 -3.671875 7.4375 -3.671875 L 2.015625 -3.671875 C 2.085938 -2.929688 2.367188 -2.332031 2.859375 -1.875 C 3.359375 -1.425781 3.96875 -1.203125 4.6875 -1.203125 C 5.1875 -1.203125 5.585938 -1.269531 5.890625 -1.40625 C 6.203125 -1.550781 6.472656 -1.738281 6.703125 -1.96875 C 6.859375 -2.0625 7.007812 -2.109375 7.15625 -2.109375 C 7.332031 -2.109375 7.476562 -2.046875 7.59375 -1.921875 C 7.707031 -1.796875 7.765625 -1.65625 7.765625 -1.5 C 7.765625 -1.28125 7.664062 -1.082031 7.46875 -0.90625 C 7.164062 -0.613281 6.769531 -0.363281 6.28125 -0.15625 C 5.789062 0.0507812 5.285156 0.15625 4.765625 0.15625 C 3.941406 0.15625 3.210938 -0.015625 2.578125 -0.359375 C 1.941406 -0.710938 1.453125 -1.203125 1.109375 -1.828125 C 0.765625 -2.453125 0.59375 -3.160156 0.59375 -3.953125 C 0.59375 -4.816406 0.769531 -5.570312 1.125 -6.21875 C 1.476562 -6.875 1.945312 -7.375 2.53125 -7.71875 C 3.113281 -8.070312 3.738281 -8.25 4.40625 -8.25 C 5.0625 -8.25 5.675781 -8.078125 6.25 -7.734375 C 6.820312 -7.398438 7.28125 -6.9375 7.625 -6.34375 C 7.976562 -5.75 8.160156 -5.082031 8.171875 -4.34375 Z M 4.40625 -6.890625 C 3.832031 -6.890625 3.332031 -6.726562 2.90625 -6.40625 C 2.488281 -6.082031 2.210938 -5.582031 2.078125 -4.90625 L 6.625 -4.90625 L 6.625 -5.03125 C 6.570312 -5.570312 6.328125 -6.015625 5.890625 -6.359375 C 5.453125 -6.710938 4.957031 -6.890625 4.40625 -6.890625 Z M 4.40625 -6.890625 "/></g></g></g></svg>