<svg xmlns="http://www.w3.org/2000/svg" xmlns:xlink="http://www.w3.org/1999/xlink" width="120" zoomAndPan="magnify" viewBox="0 0 90 60" height="80" preserveAspectRatio="xMidYMid meet" version="1.0"><defs><g/></defs><rect x="-9" width="108" fill="#ffffff" y="-6" height="72" fill-opacity="1"/><rect x="-9" width="108" fill="#292929" y="-6" height="72" fill-opacity="1"/><g fill="#ffffff" fill-opacity="1"><g transform="translate(19.292545, 31.354674)"><g><path d="M 0.765625 -4.390625 L 0.765625 -6.015625 L 2.28125 -6.015625 L 2.28125 -4.390625 L 3.203125 -4.390625 L 3.203125 -3.234375 L 2.28125 -3.234375 L 2.28125 -1.84375 C 2.28125 -1.4375 2.394531 -1.234375 2.625 -1.234375 C 2.675781 -1.234375 2.734375 -1.242188 2.796875 -1.265625 C 2.859375 -1.285156 2.910156 -1.304688 2.953125 -1.328125 L 3 -1.375 L 3.375 -0.140625 C 3.050781 0.0351562 2.679688 0.125 2.265625 0.125 C 1.984375 0.125 1.738281 0.078125 1.53125 -0.015625 C 1.320312 -0.117188 1.164062 -0.253906 1.0625 -0.421875 C 0.957031 -0.585938 0.878906 -0.765625 0.828125 -0.953125 C 0.785156 -1.140625 0.765625 -1.335938 0.765625 -1.546875 L 0.765625 -3.234375 L 0.140625 -3.234375 L 0.140625 -4.390625 Z M 0.765625 -4.390625 "/></g></g></g><g fill="#ffffff" fill-opacity="1"><g transform="translate(21.863113, 31.354674)"><g><path d="M 4.953125 -1.984375 L 1.765625 -1.984375 C 1.765625 -1.671875 1.863281 -1.441406 2.0625 -1.296875 C 2.269531 -1.148438 2.488281 -1.078125 2.71875 -1.078125 C 2.957031 -1.078125 3.148438 -1.109375 3.296875 -1.171875 C 3.441406 -1.242188 3.601562 -1.375 3.78125 -1.5625 L 4.875 -1.015625 C 4.425781 -0.253906 3.671875 0.125 2.609375 0.125 C 1.941406 0.125 1.375 -0.0976562 0.90625 -0.546875 C 0.4375 -1.003906 0.203125 -1.550781 0.203125 -2.1875 C 0.203125 -2.820312 0.4375 -3.367188 0.90625 -3.828125 C 1.375 -4.285156 1.941406 -4.515625 2.609375 -4.515625 C 3.304688 -4.515625 3.867188 -4.3125 4.296875 -3.90625 C 4.734375 -3.507812 4.953125 -2.9375 4.953125 -2.1875 C 4.953125 -2.082031 4.953125 -2.015625 4.953125 -1.984375 Z M 1.8125 -2.828125 L 3.484375 -2.828125 C 3.441406 -3.046875 3.347656 -3.21875 3.203125 -3.34375 C 3.054688 -3.46875 2.875 -3.53125 2.65625 -3.53125 C 2.40625 -3.53125 2.203125 -3.460938 2.046875 -3.328125 C 1.898438 -3.203125 1.820312 -3.035156 1.8125 -2.828125 Z M 1.8125 -2.828125 "/></g></g></g><g fill="#ffffff" fill-opacity="1"><g transform="translate(26.210184, 31.354674)"><g><path d="M 2.84375 -3.265625 C 2.5625 -3.265625 2.316406 -3.160156 2.109375 -2.953125 C 1.898438 -2.742188 1.796875 -2.492188 1.796875 -2.203125 C 1.796875 -1.898438 1.898438 -1.640625 2.109375 -1.421875 C 2.316406 -1.210938 2.5625 -1.109375 2.84375 -1.109375 C 2.976562 -1.109375 3.109375 -1.125 3.234375 -1.15625 C 3.359375 -1.195312 3.445312 -1.234375 3.5 -1.265625 L 3.578125 -1.3125 L 4.09375 -0.265625 C 4.050781 -0.234375 3.992188 -0.195312 3.921875 -0.15625 C 3.859375 -0.113281 3.695312 -0.0546875 3.4375 0.015625 C 3.1875 0.0859375 2.914062 0.125 2.625 0.125 C 1.976562 0.125 1.410156 -0.0976562 0.921875 -0.546875 C 0.441406 -1.003906 0.203125 -1.546875 0.203125 -2.171875 C 0.203125 -2.816406 0.441406 -3.367188 0.921875 -3.828125 C 1.410156 -4.285156 1.976562 -4.515625 2.625 -4.515625 C 2.914062 -4.515625 3.179688 -4.476562 3.421875 -4.40625 C 3.671875 -4.34375 3.847656 -4.273438 3.953125 -4.203125 L 4.09375 -4.109375 L 3.578125 -3.0625 C 3.390625 -3.195312 3.144531 -3.265625 2.84375 -3.265625 Z M 2.84375 -3.265625 "/></g></g></g><g fill="#ffffff" fill-opacity="1"><g transform="translate(29.600677, 31.354674)"><g><path d="M 0.515625 0 L 0.515625 -7.34375 L 2.03125 -7.34375 L 2.03125 -3.921875 L 2.046875 -3.921875 C 2.429688 -4.316406 2.847656 -4.515625 3.296875 -4.515625 C 3.515625 -4.515625 3.726562 -4.484375 3.9375 -4.421875 C 4.15625 -4.367188 4.363281 -4.28125 4.5625 -4.15625 C 4.757812 -4.039062 4.914062 -3.875 5.03125 -3.65625 C 5.15625 -3.4375 5.21875 -3.179688 5.21875 -2.890625 L 5.21875 0 L 3.703125 0 L 3.703125 -2.484375 C 3.703125 -2.710938 3.628906 -2.910156 3.484375 -3.078125 C 3.335938 -3.242188 3.148438 -3.328125 2.921875 -3.328125 C 2.691406 -3.328125 2.484375 -3.238281 2.296875 -3.0625 C 2.117188 -2.882812 2.03125 -2.691406 2.03125 -2.484375 L 2.03125 0 Z M 0.515625 0 "/></g></g></g><g fill="#ffffff" fill-opacity="1"><g transform="translate(34.443119, 31.354674)"><g><path d="M 2.421875 -4.515625 C 2.671875 -4.515625 2.914062 -4.484375 3.15625 -4.421875 C 3.40625 -4.367188 3.585938 -4.3125 3.703125 -4.25 L 3.890625 -4.171875 L 3.390625 -3.171875 C 3.046875 -3.359375 2.722656 -3.453125 2.421875 -3.453125 C 2.242188 -3.453125 2.117188 -3.429688 2.046875 -3.390625 C 1.984375 -3.359375 1.953125 -3.289062 1.953125 -3.1875 C 1.953125 -3.164062 1.953125 -3.140625 1.953125 -3.109375 C 1.960938 -3.085938 1.972656 -3.066406 1.984375 -3.046875 C 2.003906 -3.035156 2.019531 -3.019531 2.03125 -3 C 2.050781 -2.988281 2.078125 -2.972656 2.109375 -2.953125 C 2.140625 -2.941406 2.164062 -2.929688 2.1875 -2.921875 C 2.207031 -2.910156 2.238281 -2.894531 2.28125 -2.875 C 2.332031 -2.863281 2.367188 -2.851562 2.390625 -2.84375 C 2.410156 -2.832031 2.445312 -2.816406 2.5 -2.796875 C 2.5625 -2.785156 2.601562 -2.773438 2.625 -2.765625 C 2.800781 -2.710938 2.957031 -2.65625 3.09375 -2.59375 C 3.226562 -2.53125 3.363281 -2.441406 3.5 -2.328125 C 3.644531 -2.222656 3.757812 -2.085938 3.84375 -1.921875 C 3.925781 -1.765625 3.96875 -1.582031 3.96875 -1.375 C 3.96875 -0.375 3.273438 0.125 1.890625 0.125 C 1.578125 0.125 1.28125 0.078125 1 -0.015625 C 0.71875 -0.109375 0.515625 -0.207031 0.390625 -0.3125 L 0.203125 -0.46875 L 0.8125 -1.5 C 0.851562 -1.457031 0.910156 -1.410156 0.984375 -1.359375 C 1.066406 -1.304688 1.203125 -1.226562 1.390625 -1.125 C 1.585938 -1.03125 1.753906 -0.984375 1.890625 -0.984375 C 2.210938 -0.984375 2.375 -1.09375 2.375 -1.3125 C 2.375 -1.40625 2.332031 -1.476562 2.25 -1.53125 C 2.164062 -1.582031 2.03125 -1.644531 1.84375 -1.71875 C 1.65625 -1.789062 1.503906 -1.851562 1.390625 -1.90625 C 1.117188 -2.050781 0.898438 -2.210938 0.734375 -2.390625 C 0.578125 -2.566406 0.5 -2.804688 0.5 -3.109375 C 0.5 -3.546875 0.671875 -3.890625 1.015625 -4.140625 C 1.359375 -4.390625 1.828125 -4.515625 2.421875 -4.515625 Z M 2.421875 -4.515625 "/></g></g></g><g fill="#ffffff" fill-opacity="1"><g transform="translate(37.842152, 31.354674)"><g><path d="M 0.8125 -0.546875 C 0.40625 -0.992188 0.203125 -1.539062 0.203125 -2.1875 C 0.203125 -2.832031 0.40625 -3.378906 0.8125 -3.828125 C 1.21875 -4.285156 1.738281 -4.515625 2.375 -4.515625 C 2.957031 -4.515625 3.4375 -4.332031 3.8125 -3.96875 L 3.8125 -4.390625 L 5.328125 -4.390625 L 5.328125 0 L 3.828125 0 L 3.828125 -0.5 L 3.8125 -0.5 C 3.4375 -0.0820312 2.957031 0.125 2.375 0.125 C 1.738281 0.125 1.21875 -0.0976562 0.8125 -0.546875 Z M 2.09375 -2.921875 C 1.894531 -2.734375 1.796875 -2.488281 1.796875 -2.1875 C 1.796875 -1.882812 1.890625 -1.632812 2.078125 -1.4375 C 2.273438 -1.25 2.523438 -1.15625 2.828125 -1.15625 C 3.117188 -1.15625 3.359375 -1.253906 3.546875 -1.453125 C 3.742188 -1.648438 3.84375 -1.894531 3.84375 -2.1875 C 3.84375 -2.488281 3.742188 -2.734375 3.546875 -2.921875 C 3.347656 -3.117188 3.109375 -3.21875 2.828125 -3.21875 C 2.535156 -3.21875 2.289062 -3.117188 2.09375 -2.921875 Z M 2.09375 -2.921875 "/></g></g></g><g fill="#ffffff" fill-opacity="1"><g transform="translate(42.872492, 31.354674)"><g><path d="M 1.625 -4.390625 L 2.6875 -2 L 3.765625 -4.390625 L 5.5625 -4.390625 L 3.203125 0 L 2.171875 0 L -0.171875 -4.390625 Z M 1.625 -4.390625 "/></g></g></g><g fill="#ffffff" fill-opacity="1"><g transform="translate(47.450167, 31.354674)"><g><path d="M 1.625 -4.390625 L 2.6875 -2 L 3.765625 -4.390625 L 5.5625 -4.390625 L 3.203125 0 L 2.171875 0 L -0.171875 -4.390625 Z M 1.625 -4.390625 "/></g></g></g><g fill="#ffffff" fill-opacity="1"><g transform="translate(52.027842, 31.354674)"><g><path d="M 3.84375 -4.390625 L 5.578125 -4.390625 L 2.140625 2.21875 L 0.390625 2.21875 L 1.90625 -0.6875 L -0.171875 -4.390625 L 1.578125 -4.390625 L 2.796875 -2.140625 Z M 3.84375 -4.390625 "/></g></g></g><g fill="#ffffff" fill-opacity="1"><g transform="translate(56.63114, 31.354674)"><g><path d="M 0.8125 -0.546875 C 0.40625 -0.992188 0.203125 -1.539062 0.203125 -2.1875 C 0.203125 -2.832031 0.40625 -3.378906 0.8125 -3.828125 C 1.21875 -4.285156 1.738281 -4.515625 2.375 -4.515625 C 2.957031 -4.515625 3.4375 -4.332031 3.8125 -3.96875 L 3.8125 -4.390625 L 5.328125 -4.390625 L 5.328125 0 L 3.828125 0 L 3.828125 -0.5 L 3.8125 -0.5 C 3.4375 -0.0820312 2.957031 0.125 2.375 0.125 C 1.738281 0.125 1.21875 -0.0976562 0.8125 -0.546875 Z M 2.09375 -2.921875 C 1.894531 -2.734375 1.796875 -2.488281 1.796875 -2.1875 C 1.796875 -1.882812 1.890625 -1.632812 2.078125 -1.4375 C 2.273438 -1.25 2.523438 -1.15625 2.828125 -1.15625 C 3.117188 -1.15625 3.359375 -1.253906 3.546875 -1.453125 C 3.742188 -1.648438 3.84375 -1.894531 3.84375 -2.1875 C 3.84375 -2.488281 3.742188 -2.734375 3.546875 -2.921875 C 3.347656 -3.117188 3.109375 -3.21875 2.828125 -3.21875 C 2.535156 -3.21875 2.289062 -3.117188 2.09375 -2.921875 Z M 2.09375 -2.921875 "/></g></g></g><g fill="#ffffff" fill-opacity="1"><g transform="translate(61.66148, 31.354674)"><g><path d="M 2.421875 -4.515625 C 2.671875 -4.515625 2.914062 -4.484375 3.15625 -4.421875 C 3.40625 -4.367188 3.585938 -4.3125 3.703125 -4.25 L 3.890625 -4.171875 L 3.390625 -3.171875 C 3.046875 -3.359375 2.722656 -3.453125 2.421875 -3.453125 C 2.242188 -3.453125 2.117188 -3.429688 2.046875 -3.390625 C 1.984375 -3.359375 1.953125 -3.289062 1.953125 -3.1875 C 1.953125 -3.164062 1.953125 -3.140625 1.953125 -3.109375 C 1.960938 -3.085938 1.972656 -3.066406 1.984375 -3.046875 C 2.003906 -3.035156 2.019531 -3.019531 2.03125 -3 C 2.050781 -2.988281 2.078125 -2.972656 2.109375 -2.953125 C 2.140625 -2.941406 2.164062 -2.929688 2.1875 -2.921875 C 2.207031 -2.910156 2.238281 -2.894531 2.28125 -2.875 C 2.332031 -2.863281 2.367188 -2.851562 2.390625 -2.84375 C 2.410156 -2.832031 2.445312 -2.816406 2.5 -2.796875 C 2.5625 -2.785156 2.601562 -2.773438 2.625 -2.765625 C 2.800781 -2.710938 2.957031 -2.65625 3.09375 -2.59375 C 3.226562 -2.53125 3.363281 -2.441406 3.5 -2.328125 C 3.644531 -2.222656 3.757812 -2.085938 3.84375 -1.921875 C 3.925781 -1.765625 3.96875 -1.582031 3.96875 -1.375 C 3.96875 -0.375 3.273438 0.125 1.890625 0.125 C 1.578125 0.125 1.28125 0.078125 1 -0.015625 C 0.71875 -0.109375 0.515625 -0.207031 0.390625 -0.3125 L 0.203125 -0.46875 L 0.8125 -1.5 C 0.851562 -1.457031 0.910156 -1.410156 0.984375 -1.359375 C 1.066406 -1.304688 1.203125 -1.226562 1.390625 -1.125 C 1.585938 -1.03125 1.753906 -0.984375 1.890625 -0.984375 C 2.210938 -0.984375 2.375 -1.09375 2.375 -1.3125 C 2.375 -1.40625 2.332031 -1.476562 2.25 -1.53125 C 2.164062 -1.582031 2.03125 -1.644531 1.84375 -1.71875 C 1.65625 -1.789062 1.503906 -1.851562 1.390625 -1.90625 C 1.117188 -2.050781 0.898438 -2.210938 0.734375 -2.390625 C 0.578125 -2.566406 0.5 -2.804688 0.5 -3.109375 C 0.5 -3.546875 0.671875 -3.890625 1.015625 -4.140625 C 1.359375 -4.390625 1.828125 -4.515625 2.421875 -4.515625 Z M 2.421875 -4.515625 "/></g></g></g><g fill="#ffffff" fill-opacity="1"><g transform="translate(65.060515, 31.354674)"><g><path d="M 0.515625 0 L 0.515625 -7.34375 L 2.03125 -7.34375 L 2.03125 -3.921875 L 2.046875 -3.921875 C 2.429688 -4.316406 2.847656 -4.515625 3.296875 -4.515625 C 3.515625 -4.515625 3.726562 -4.484375 3.9375 -4.421875 C 4.15625 -4.367188 4.363281 -4.28125 4.5625 -4.15625 C 4.757812 -4.039062 4.914062 -3.875 5.03125 -3.65625 C 5.15625 -3.4375 5.21875 -3.179688 5.21875 -2.890625 L 5.21875 0 L 3.703125 0 L 3.703125 -2.484375 C 3.703125 -2.710938 3.628906 -2.910156 3.484375 -3.078125 C 3.335938 -3.242188 3.148438 -3.328125 2.921875 -3.328125 C 2.691406 -3.328125 2.484375 -3.238281 2.296875 -3.0625 C 2.117188 -2.882812 2.03125 -2.691406 2.03125 -2.484375 L 2.03125 0 Z M 0.515625 0 "/></g></g></g><g fill="#ffffff" fill-opacity="1"><g transform="translate(20.361932, 35.585526)"><g><path d="M 0.359375 -0.734375 L 0.359375 -0.21875 C 0.359375 -0.164062 0.382812 -0.140625 0.4375 -0.140625 C 0.445312 -0.140625 0.457031 -0.140625 0.46875 -0.140625 C 0.476562 -0.148438 0.488281 -0.15625 0.5 -0.15625 C 0.507812 -0.15625 0.519531 -0.144531 0.53125 -0.125 C 0.539062 -0.113281 0.546875 -0.101562 0.546875 -0.09375 C 0.546875 -0.0625 0.53125 -0.0351562 0.5 -0.015625 C 0.476562 -0.00390625 0.453125 0 0.421875 0 C 0.378906 0 0.34375 -0.00390625 0.3125 -0.015625 C 0.28125 -0.0234375 0.253906 -0.046875 0.234375 -0.078125 C 0.210938 -0.109375 0.203125 -0.15625 0.203125 -0.21875 L 0.203125 -0.734375 L 0.09375 -0.734375 C 0.0703125 -0.734375 0.0546875 -0.738281 0.046875 -0.75 C 0.0351562 -0.757812 0.03125 -0.773438 0.03125 -0.796875 C 0.03125 -0.816406 0.0351562 -0.832031 0.046875 -0.84375 C 0.0546875 -0.863281 0.0703125 -0.875 0.09375 -0.875 L 0.203125 -0.875 L 0.203125 -1.015625 C 0.203125 -1.035156 0.207031 -1.050781 0.21875 -1.0625 C 0.238281 -1.082031 0.257812 -1.09375 0.28125 -1.09375 C 0.300781 -1.09375 0.316406 -1.082031 0.328125 -1.0625 C 0.347656 -1.050781 0.359375 -1.035156 0.359375 -1.015625 L 0.359375 -0.875 L 0.5 -0.875 C 0.519531 -0.875 0.535156 -0.863281 0.546875 -0.84375 C 0.566406 -0.832031 0.578125 -0.816406 0.578125 -0.796875 C 0.578125 -0.773438 0.566406 -0.757812 0.546875 -0.75 C 0.535156 -0.738281 0.519531 -0.734375 0.5 -0.734375 Z M 0.359375 -0.734375 "/></g></g></g><g fill="#ffffff" fill-opacity="1"><g transform="translate(21.411163, 35.585526)"><g><path d="M 0.5625 -0.90625 C 0.59375 -0.90625 0.617188 -0.894531 0.640625 -0.875 C 0.660156 -0.863281 0.671875 -0.847656 0.671875 -0.828125 C 0.671875 -0.796875 0.660156 -0.773438 0.640625 -0.765625 C 0.628906 -0.753906 0.613281 -0.75 0.59375 -0.75 C 0.582031 -0.75 0.566406 -0.75 0.546875 -0.75 C 0.523438 -0.757812 0.507812 -0.765625 0.5 -0.765625 C 0.457031 -0.765625 0.421875 -0.75 0.390625 -0.71875 C 0.359375 -0.695312 0.332031 -0.664062 0.3125 -0.625 C 0.289062 -0.582031 0.28125 -0.535156 0.28125 -0.484375 L 0.28125 -0.078125 C 0.28125 -0.0546875 0.269531 -0.0351562 0.25 -0.015625 C 0.238281 -0.00390625 0.222656 0 0.203125 0 C 0.171875 0 0.148438 -0.00390625 0.140625 -0.015625 C 0.128906 -0.0351562 0.125 -0.0546875 0.125 -0.078125 L 0.125 -0.796875 C 0.125 -0.828125 0.128906 -0.847656 0.140625 -0.859375 C 0.160156 -0.878906 0.179688 -0.890625 0.203125 -0.890625 C 0.222656 -0.890625 0.238281 -0.878906 0.25 -0.859375 C 0.269531 -0.847656 0.28125 -0.828125 0.28125 -0.796875 L 0.28125 -0.71875 C 0.300781 -0.769531 0.335938 -0.8125 0.390625 -0.84375 C 0.441406 -0.882812 0.5 -0.90625 0.5625 -0.90625 Z M 0.5625 -0.90625 "/></g></g></g><g fill="#ffffff" fill-opacity="1"><g transform="translate(22.516326, 35.585526)"><g><path d="M 0.78125 -0.890625 C 0.800781 -0.890625 0.816406 -0.878906 0.828125 -0.859375 C 0.847656 -0.847656 0.859375 -0.832031 0.859375 -0.8125 L 0.859375 -0.078125 C 0.859375 0.0546875 0.816406 0.160156 0.734375 0.234375 C 0.660156 0.304688 0.5625 0.34375 0.4375 0.34375 C 0.394531 0.34375 0.351562 0.335938 0.3125 0.328125 C 0.269531 0.316406 0.238281 0.304688 0.21875 0.296875 C 0.175781 0.273438 0.15625 0.25 0.15625 0.21875 C 0.15625 0.207031 0.15625 0.195312 0.15625 0.1875 C 0.15625 0.175781 0.160156 0.164062 0.171875 0.15625 C 0.191406 0.144531 0.207031 0.140625 0.21875 0.140625 C 0.226562 0.140625 0.238281 0.140625 0.25 0.140625 C 0.28125 0.148438 0.3125 0.160156 0.34375 0.171875 C 0.375 0.179688 0.40625 0.1875 0.4375 0.1875 C 0.613281 0.1875 0.703125 0.0976562 0.703125 -0.078125 L 0.703125 -0.109375 C 0.671875 -0.0664062 0.628906 -0.0351562 0.578125 -0.015625 C 0.535156 0.00390625 0.484375 0.015625 0.421875 0.015625 C 0.328125 0.015625 0.253906 -0.0078125 0.203125 -0.0625 C 0.148438 -0.125 0.125 -0.207031 0.125 -0.3125 L 0.125 -0.8125 C 0.125 -0.832031 0.128906 -0.847656 0.140625 -0.859375 C 0.148438 -0.878906 0.171875 -0.890625 0.203125 -0.890625 C 0.222656 -0.890625 0.238281 -0.878906 0.25 -0.859375 C 0.269531 -0.847656 0.28125 -0.832031 0.28125 -0.8125 L 0.28125 -0.34375 C 0.28125 -0.269531 0.296875 -0.210938 0.328125 -0.171875 C 0.359375 -0.140625 0.410156 -0.125 0.484375 -0.125 C 0.546875 -0.125 0.597656 -0.144531 0.640625 -0.1875 C 0.679688 -0.226562 0.703125 -0.28125 0.703125 -0.34375 L 0.703125 -0.8125 C 0.703125 -0.832031 0.707031 -0.847656 0.71875 -0.859375 C 0.738281 -0.878906 0.757812 -0.890625 0.78125 -0.890625 Z M 0.78125 -0.890625 "/></g></g></g><g fill="#ffffff" fill-opacity="1"><g transform="translate(23.902839, 35.585526)"><g><path d="M 0.265625 -0.078125 C 0.265625 -0.0546875 0.253906 -0.0351562 0.234375 -0.015625 C 0.222656 -0.00390625 0.207031 0 0.1875 0 C 0.164062 0 0.144531 -0.00390625 0.125 -0.015625 C 0.113281 -0.0351562 0.109375 -0.0546875 0.109375 -0.078125 L 0.109375 -0.8125 C 0.109375 -0.832031 0.113281 -0.847656 0.125 -0.859375 C 0.144531 -0.878906 0.164062 -0.890625 0.1875 -0.890625 C 0.207031 -0.890625 0.222656 -0.878906 0.234375 -0.859375 C 0.253906 -0.847656 0.265625 -0.832031 0.265625 -0.8125 Z M 0.1875 -1 C 0.15625 -1 0.128906 -1.003906 0.109375 -1.015625 C 0.0976562 -1.035156 0.09375 -1.054688 0.09375 -1.078125 L 0.09375 -1.109375 C 0.09375 -1.128906 0.0976562 -1.144531 0.109375 -1.15625 C 0.128906 -1.164062 0.15625 -1.171875 0.1875 -1.171875 C 0.21875 -1.171875 0.238281 -1.164062 0.25 -1.15625 C 0.269531 -1.144531 0.28125 -1.128906 0.28125 -1.109375 L 0.28125 -1.078125 C 0.28125 -1.046875 0.269531 -1.023438 0.25 -1.015625 C 0.238281 -1.003906 0.21875 -1 0.1875 -1 Z M 0.1875 -1 "/></g></g></g><g fill="#ffffff" fill-opacity="1"><g transform="translate(24.692751, 35.585526)"><g><path d="M 0.578125 -0.90625 C 0.773438 -0.90625 0.875 -0.785156 0.875 -0.546875 L 0.875 -0.078125 C 0.875 -0.0546875 0.863281 -0.0351562 0.84375 -0.015625 C 0.832031 -0.00390625 0.816406 0 0.796875 0 C 0.773438 0 0.753906 -0.00390625 0.734375 -0.015625 C 0.722656 -0.0351562 0.71875 -0.0546875 0.71875 -0.078125 L 0.71875 -0.53125 C 0.71875 -0.601562 0.703125 -0.65625 0.671875 -0.6875 C 0.640625 -0.726562 0.585938 -0.75 0.515625 -0.75 C 0.472656 -0.75 0.429688 -0.738281 0.390625 -0.71875 C 0.359375 -0.707031 0.332031 -0.679688 0.3125 -0.640625 C 0.289062 -0.609375 0.28125 -0.570312 0.28125 -0.53125 L 0.28125 -0.078125 C 0.28125 -0.0546875 0.269531 -0.0351562 0.25 -0.015625 C 0.238281 -0.00390625 0.222656 0 0.203125 0 C 0.171875 0 0.148438 -0.00390625 0.140625 -0.015625 C 0.128906 -0.0351562 0.125 -0.0546875 0.125 -0.078125 L 0.125 -0.796875 C 0.125 -0.828125 0.128906 -0.847656 0.140625 -0.859375 C 0.160156 -0.878906 0.179688 -0.890625 0.203125 -0.890625 C 0.222656 -0.890625 0.238281 -0.878906 0.25 -0.859375 C 0.269531 -0.847656 0.28125 -0.828125 0.28125 -0.796875 L 0.28125 -0.75 C 0.3125 -0.789062 0.351562 -0.828125 0.40625 -0.859375 C 0.457031 -0.890625 0.515625 -0.90625 0.578125 -0.90625 Z M 0.578125 -0.90625 "/></g></g></g><g fill="#ffffff" fill-opacity="1"><g transform="translate(26.096214, 35.585526)"><g><path d="M 0.859375 -0.890625 C 0.878906 -0.890625 0.894531 -0.878906 0.90625 -0.859375 C 0.925781 -0.847656 0.9375 -0.832031 0.9375 -0.8125 L 0.9375 -0.078125 C 0.9375 0.015625 0.914062 0.09375 0.875 0.15625 C 0.84375 0.21875 0.789062 0.265625 0.71875 0.296875 C 0.65625 0.328125 0.582031 0.34375 0.5 0.34375 C 0.457031 0.34375 0.40625 0.332031 0.34375 0.3125 C 0.28125 0.300781 0.238281 0.285156 0.21875 0.265625 C 0.1875 0.242188 0.171875 0.222656 0.171875 0.203125 C 0.171875 0.191406 0.175781 0.179688 0.1875 0.171875 C 0.195312 0.140625 0.21875 0.125 0.25 0.125 C 0.257812 0.125 0.273438 0.128906 0.296875 0.140625 C 0.378906 0.171875 0.445312 0.1875 0.5 0.1875 C 0.59375 0.1875 0.660156 0.164062 0.703125 0.125 C 0.753906 0.0820312 0.78125 0.0234375 0.78125 -0.046875 L 0.78125 -0.140625 C 0.757812 -0.0976562 0.71875 -0.0625 0.65625 -0.03125 C 0.601562 0 0.546875 0.015625 0.484375 0.015625 C 0.410156 0.015625 0.335938 0 0.265625 -0.03125 C 0.203125 -0.0703125 0.148438 -0.128906 0.109375 -0.203125 C 0.078125 -0.273438 0.0625 -0.351562 0.0625 -0.4375 C 0.0625 -0.53125 0.078125 -0.609375 0.109375 -0.671875 C 0.148438 -0.742188 0.203125 -0.800781 0.265625 -0.84375 C 0.328125 -0.882812 0.398438 -0.90625 0.484375 -0.90625 C 0.546875 -0.90625 0.601562 -0.890625 0.65625 -0.859375 C 0.707031 -0.828125 0.75 -0.796875 0.78125 -0.765625 L 0.78125 -0.8125 C 0.78125 -0.832031 0.785156 -0.847656 0.796875 -0.859375 C 0.816406 -0.878906 0.835938 -0.890625 0.859375 -0.890625 Z M 0.5 -0.125 C 0.550781 -0.125 0.597656 -0.140625 0.640625 -0.171875 C 0.691406 -0.203125 0.726562 -0.238281 0.75 -0.28125 C 0.769531 -0.332031 0.78125 -0.382812 0.78125 -0.4375 C 0.78125 -0.5 0.769531 -0.550781 0.75 -0.59375 C 0.726562 -0.644531 0.691406 -0.679688 0.640625 -0.703125 C 0.597656 -0.734375 0.550781 -0.75 0.5 -0.75 C 0.445312 -0.75 0.398438 -0.734375 0.359375 -0.703125 C 0.316406 -0.679688 0.28125 -0.644531 0.25 -0.59375 C 0.226562 -0.550781 0.21875 -0.5 0.21875 -0.4375 C 0.21875 -0.382812 0.226562 -0.332031 0.25 -0.28125 C 0.28125 -0.238281 0.316406 -0.203125 0.359375 -0.171875 C 0.398438 -0.140625 0.445312 -0.125 0.5 -0.125 Z M 0.5 -0.125 "/></g></g></g><g fill="#ffffff" fill-opacity="1"><g transform="translate(27.564081, 35.585526)"><g/></g></g><g fill="#ffffff" fill-opacity="1"><g transform="translate(28.438738, 35.585526)"><g><path d="M 0.359375 -0.734375 L 0.359375 -0.21875 C 0.359375 -0.164062 0.382812 -0.140625 0.4375 -0.140625 C 0.445312 -0.140625 0.457031 -0.140625 0.46875 -0.140625 C 0.476562 -0.148438 0.488281 -0.15625 0.5 -0.15625 C 0.507812 -0.15625 0.519531 -0.144531 0.53125 -0.125 C 0.539062 -0.113281 0.546875 -0.101562 0.546875 -0.09375 C 0.546875 -0.0625 0.53125 -0.0351562 0.5 -0.015625 C 0.476562 -0.00390625 0.453125 0 0.421875 0 C 0.378906 0 0.34375 -0.00390625 0.3125 -0.015625 C 0.28125 -0.0234375 0.253906 -0.046875 0.234375 -0.078125 C 0.210938 -0.109375 0.203125 -0.15625 0.203125 -0.21875 L 0.203125 -0.734375 L 0.09375 -0.734375 C 0.0703125 -0.734375 0.0546875 -0.738281 0.046875 -0.75 C 0.0351562 -0.757812 0.03125 -0.773438 0.03125 -0.796875 C 0.03125 -0.816406 0.0351562 -0.832031 0.046875 -0.84375 C 0.0546875 -0.863281 0.0703125 -0.875 0.09375 -0.875 L 0.203125 -0.875 L 0.203125 -1.015625 C 0.203125 -1.035156 0.207031 -1.050781 0.21875 -1.0625 C 0.238281 -1.082031 0.257812 -1.09375 0.28125 -1.09375 C 0.300781 -1.09375 0.316406 -1.082031 0.328125 -1.0625 C 0.347656 -1.050781 0.359375 -1.035156 0.359375 -1.015625 L 0.359375 -0.875 L 0.5 -0.875 C 0.519531 -0.875 0.535156 -0.863281 0.546875 -0.84375 C 0.566406 -0.832031 0.578125 -0.816406 0.578125 -0.796875 C 0.578125 -0.773438 0.566406 -0.757812 0.546875 -0.75 C 0.535156 -0.738281 0.519531 -0.734375 0.5 -0.734375 Z M 0.359375 -0.734375 "/></g></g></g><g fill="#ffffff" fill-opacity="1"><g transform="translate(29.487969, 35.585526)"><g><path d="M 0.953125 -0.4375 C 0.953125 -0.351562 0.929688 -0.273438 0.890625 -0.203125 C 0.859375 -0.128906 0.804688 -0.0703125 0.734375 -0.03125 C 0.671875 0 0.597656 0.015625 0.515625 0.015625 C 0.429688 0.015625 0.351562 0 0.28125 -0.03125 C 0.21875 -0.0703125 0.164062 -0.128906 0.125 -0.203125 C 0.0820312 -0.273438 0.0625 -0.351562 0.0625 -0.4375 C 0.0625 -0.53125 0.0820312 -0.609375 0.125 -0.671875 C 0.164062 -0.742188 0.21875 -0.800781 0.28125 -0.84375 C 0.351562 -0.882812 0.429688 -0.90625 0.515625 -0.90625 C 0.597656 -0.90625 0.671875 -0.882812 0.734375 -0.84375 C 0.804688 -0.800781 0.859375 -0.742188 0.890625 -0.671875 C 0.929688 -0.609375 0.953125 -0.53125 0.953125 -0.4375 Z M 0.796875 -0.4375 C 0.796875 -0.5 0.78125 -0.550781 0.75 -0.59375 C 0.726562 -0.644531 0.695312 -0.679688 0.65625 -0.703125 C 0.613281 -0.734375 0.566406 -0.75 0.515625 -0.75 C 0.460938 -0.75 0.410156 -0.734375 0.359375 -0.703125 C 0.316406 -0.679688 0.28125 -0.644531 0.25 -0.59375 C 0.226562 -0.550781 0.21875 -0.5 0.21875 -0.4375 C 0.21875 -0.382812 0.226562 -0.332031 0.25 -0.28125 C 0.28125 -0.238281 0.316406 -0.203125 0.359375 -0.171875 C 0.410156 -0.140625 0.460938 -0.125 0.515625 -0.125 C 0.566406 -0.125 0.613281 -0.140625 0.65625 -0.171875 C 0.695312 -0.203125 0.726562 -0.238281 0.75 -0.28125 C 0.78125 -0.332031 0.796875 -0.382812 0.796875 -0.4375 Z M 0.796875 -0.4375 "/></g></g></g><g fill="#ffffff" fill-opacity="1"><g transform="translate(30.920243, 35.585526)"><g/></g></g><g fill="#ffffff" fill-opacity="1"><g transform="translate(31.7949, 35.585526)"><g><path d="M 0.5625 -0.90625 C 0.632812 -0.90625 0.703125 -0.882812 0.765625 -0.84375 C 0.828125 -0.800781 0.875 -0.742188 0.90625 -0.671875 C 0.945312 -0.609375 0.96875 -0.535156 0.96875 -0.453125 C 0.96875 -0.359375 0.945312 -0.273438 0.90625 -0.203125 C 0.875 -0.128906 0.828125 -0.0703125 0.765625 -0.03125 C 0.703125 0 0.632812 0.015625 0.5625 0.015625 C 0.507812 0.015625 0.457031 0.00390625 0.40625 -0.015625 C 0.351562 -0.046875 0.3125 -0.0820312 0.28125 -0.125 L 0.28125 -0.0625 C 0.28125 -0.0390625 0.269531 -0.0195312 0.25 0 C 0.238281 0.0078125 0.222656 0.015625 0.203125 0.015625 C 0.179688 0.015625 0.160156 0.0078125 0.140625 0 C 0.128906 -0.0195312 0.125 -0.0390625 0.125 -0.0625 L 0.125 -1.171875 C 0.125 -1.191406 0.128906 -1.207031 0.140625 -1.21875 C 0.148438 -1.238281 0.171875 -1.25 0.203125 -1.25 C 0.222656 -1.25 0.238281 -1.238281 0.25 -1.21875 C 0.269531 -1.207031 0.28125 -1.191406 0.28125 -1.171875 L 0.28125 -0.75 C 0.3125 -0.789062 0.347656 -0.828125 0.390625 -0.859375 C 0.441406 -0.890625 0.5 -0.90625 0.5625 -0.90625 Z M 0.546875 -0.125 C 0.597656 -0.125 0.644531 -0.140625 0.6875 -0.171875 C 0.726562 -0.203125 0.757812 -0.238281 0.78125 -0.28125 C 0.800781 -0.332031 0.8125 -0.390625 0.8125 -0.453125 C 0.8125 -0.503906 0.800781 -0.550781 0.78125 -0.59375 C 0.757812 -0.644531 0.726562 -0.679688 0.6875 -0.703125 C 0.644531 -0.734375 0.597656 -0.75 0.546875 -0.75 C 0.492188 -0.75 0.445312 -0.734375 0.40625 -0.703125 C 0.363281 -0.679688 0.328125 -0.644531 0.296875 -0.59375 C 0.273438 -0.550781 0.265625 -0.503906 0.265625 -0.453125 C 0.265625 -0.390625 0.273438 -0.332031 0.296875 -0.28125 C 0.328125 -0.238281 0.363281 -0.203125 0.40625 -0.171875 C 0.445312 -0.140625 0.492188 -0.125 0.546875 -0.125 Z M 0.546875 -0.125 "/></g></g></g><g fill="#ffffff" fill-opacity="1"><g transform="translate(33.240735, 35.585526)"><g><path d="M 0.78125 -0.890625 C 0.800781 -0.890625 0.816406 -0.878906 0.828125 -0.859375 C 0.847656 -0.847656 0.859375 -0.828125 0.859375 -0.796875 L 0.859375 -0.359375 C 0.859375 -0.234375 0.828125 -0.140625 0.765625 -0.078125 C 0.703125 -0.015625 0.609375 0.015625 0.484375 0.015625 C 0.367188 0.015625 0.28125 -0.015625 0.21875 -0.078125 C 0.15625 -0.140625 0.125 -0.234375 0.125 -0.359375 L 0.125 -0.796875 C 0.125 -0.828125 0.128906 -0.847656 0.140625 -0.859375 C 0.160156 -0.878906 0.179688 -0.890625 0.203125 -0.890625 C 0.222656 -0.890625 0.238281 -0.878906 0.25 -0.859375 C 0.269531 -0.847656 0.28125 -0.828125 0.28125 -0.796875 L 0.28125 -0.359375 C 0.28125 -0.210938 0.347656 -0.140625 0.484375 -0.140625 C 0.554688 -0.140625 0.609375 -0.15625 0.640625 -0.1875 C 0.679688 -0.226562 0.703125 -0.285156 0.703125 -0.359375 L 0.703125 -0.796875 C 0.703125 -0.828125 0.707031 -0.847656 0.71875 -0.859375 C 0.738281 -0.878906 0.757812 -0.890625 0.78125 -0.890625 Z M 0.78125 -0.890625 "/></g></g></g><g fill="#ffffff" fill-opacity="1"><g transform="translate(34.628943, 35.585526)"><g><path d="M 0.265625 -0.078125 C 0.265625 -0.0546875 0.253906 -0.0351562 0.234375 -0.015625 C 0.222656 -0.00390625 0.207031 0 0.1875 0 C 0.164062 0 0.144531 -0.00390625 0.125 -0.015625 C 0.113281 -0.0351562 0.109375 -0.0546875 0.109375 -0.078125 L 0.109375 -0.8125 C 0.109375 -0.832031 0.113281 -0.847656 0.125 -0.859375 C 0.144531 -0.878906 0.164062 -0.890625 0.1875 -0.890625 C 0.207031 -0.890625 0.222656 -0.878906 0.234375 -0.859375 C 0.253906 -0.847656 0.265625 -0.832031 0.265625 -0.8125 Z M 0.1875 -1 C 0.15625 -1 0.128906 -1.003906 0.109375 -1.015625 C 0.0976562 -1.035156 0.09375 -1.054688 0.09375 -1.078125 L 0.09375 -1.109375 C 0.09375 -1.128906 0.0976562 -1.144531 0.109375 -1.15625 C 0.128906 -1.164062 0.15625 -1.171875 0.1875 -1.171875 C 0.21875 -1.171875 0.238281 -1.164062 0.25 -1.15625 C 0.269531 -1.144531 0.28125 -1.128906 0.28125 -1.109375 L 0.28125 -1.078125 C 0.28125 -1.046875 0.269531 -1.023438 0.25 -1.015625 C 0.238281 -1.003906 0.21875 -1 0.1875 -1 Z M 0.1875 -1 "/></g></g></g><g fill="#ffffff" fill-opacity="1"><g transform="translate(35.418854, 35.585526)"><g><path d="M 0.296875 -0.078125 C 0.296875 -0.0546875 0.285156 -0.0351562 0.265625 -0.015625 C 0.253906 -0.00390625 0.238281 0 0.21875 0 C 0.1875 0 0.164062 -0.00390625 0.15625 -0.015625 C 0.144531 -0.0351562 0.140625 -0.0546875 0.140625 -0.078125 L 0.140625 -1.171875 C 0.140625 -1.191406 0.144531 -1.207031 0.15625 -1.21875 C 0.175781 -1.238281 0.195312 -1.25 0.21875 -1.25 C 0.238281 -1.25 0.253906 -1.238281 0.265625 -1.21875 C 0.285156 -1.207031 0.296875 -1.191406 0.296875 -1.171875 Z M 0.296875 -0.078125 "/></g></g></g><g fill="#ffffff" fill-opacity="1"><g transform="translate(36.252835, 35.585526)"><g><path d="M 0.84375 -1.25 C 0.863281 -1.25 0.878906 -1.238281 0.890625 -1.21875 C 0.910156 -1.207031 0.921875 -1.191406 0.921875 -1.171875 L 0.921875 -0.078125 C 0.921875 -0.0546875 0.910156 -0.0351562 0.890625 -0.015625 C 0.878906 -0.00390625 0.863281 0 0.84375 0 C 0.8125 0 0.785156 -0.00390625 0.765625 -0.015625 C 0.753906 -0.0351562 0.75 -0.0546875 0.75 -0.078125 L 0.75 -0.125 C 0.726562 -0.0820312 0.691406 -0.046875 0.640625 -0.015625 C 0.585938 0.00390625 0.53125 0.015625 0.46875 0.015625 C 0.394531 0.015625 0.328125 0 0.265625 -0.03125 C 0.203125 -0.0703125 0.148438 -0.128906 0.109375 -0.203125 C 0.078125 -0.273438 0.0625 -0.351562 0.0625 -0.4375 C 0.0625 -0.53125 0.078125 -0.609375 0.109375 -0.671875 C 0.148438 -0.742188 0.203125 -0.800781 0.265625 -0.84375 C 0.328125 -0.882812 0.394531 -0.90625 0.46875 -0.90625 C 0.53125 -0.90625 0.582031 -0.890625 0.625 -0.859375 C 0.675781 -0.835938 0.71875 -0.804688 0.75 -0.765625 L 0.75 -1.171875 C 0.75 -1.191406 0.753906 -1.207031 0.765625 -1.21875 C 0.785156 -1.238281 0.8125 -1.25 0.84375 -1.25 Z M 0.5 -0.125 C 0.550781 -0.125 0.59375 -0.140625 0.625 -0.171875 C 0.664062 -0.203125 0.695312 -0.238281 0.71875 -0.28125 C 0.75 -0.332031 0.765625 -0.382812 0.765625 -0.4375 C 0.765625 -0.5 0.75 -0.550781 0.71875 -0.59375 C 0.695312 -0.644531 0.664062 -0.679688 0.625 -0.703125 C 0.59375 -0.734375 0.550781 -0.75 0.5 -0.75 C 0.4375 -0.75 0.382812 -0.734375 0.34375 -0.703125 C 0.3125 -0.679688 0.28125 -0.644531 0.25 -0.59375 C 0.226562 -0.550781 0.21875 -0.5 0.21875 -0.4375 C 0.21875 -0.382812 0.226562 -0.332031 0.25 -0.28125 C 0.28125 -0.238281 0.3125 -0.203125 0.34375 -0.171875 C 0.382812 -0.140625 0.4375 -0.125 0.5 -0.125 Z M 0.5 -0.125 "/></g></g></g><g fill="#ffffff" fill-opacity="1"><g transform="translate(37.69867, 35.585526)"><g/></g></g><g fill="#ffffff" fill-opacity="1"><g transform="translate(38.573327, 35.585526)"><g><path d="M 0.359375 -0.734375 L 0.359375 -0.21875 C 0.359375 -0.164062 0.382812 -0.140625 0.4375 -0.140625 C 0.445312 -0.140625 0.457031 -0.140625 0.46875 -0.140625 C 0.476562 -0.148438 0.488281 -0.15625 0.5 -0.15625 C 0.507812 -0.15625 0.519531 -0.144531 0.53125 -0.125 C 0.539062 -0.113281 0.546875 -0.101562 0.546875 -0.09375 C 0.546875 -0.0625 0.53125 -0.0351562 0.5 -0.015625 C 0.476562 -0.00390625 0.453125 0 0.421875 0 C 0.378906 0 0.34375 -0.00390625 0.3125 -0.015625 C 0.28125 -0.0234375 0.253906 -0.046875 0.234375 -0.078125 C 0.210938 -0.109375 0.203125 -0.15625 0.203125 -0.21875 L 0.203125 -0.734375 L 0.09375 -0.734375 C 0.0703125 -0.734375 0.0546875 -0.738281 0.046875 -0.75 C 0.0351562 -0.757812 0.03125 -0.773438 0.03125 -0.796875 C 0.03125 -0.816406 0.0351562 -0.832031 0.046875 -0.84375 C 0.0546875 -0.863281 0.0703125 -0.875 0.09375 -0.875 L 0.203125 -0.875 L 0.203125 -1.015625 C 0.203125 -1.035156 0.207031 -1.050781 0.21875 -1.0625 C 0.238281 -1.082031 0.257812 -1.09375 0.28125 -1.09375 C 0.300781 -1.09375 0.316406 -1.082031 0.328125 -1.0625 C 0.347656 -1.050781 0.359375 -1.035156 0.359375 -1.015625 L 0.359375 -0.875 L 0.5 -0.875 C 0.519531 -0.875 0.535156 -0.863281 0.546875 -0.84375 C 0.566406 -0.832031 0.578125 -0.816406 0.578125 -0.796875 C 0.578125 -0.773438 0.566406 -0.757812 0.546875 -0.75 C 0.535156 -0.738281 0.519531 -0.734375 0.5 -0.734375 Z M 0.359375 -0.734375 "/></g></g></g><g fill="#ffffff" fill-opacity="1"><g transform="translate(39.622559, 35.585526)"><g><path d="M 0.5625 -0.90625 C 0.757812 -0.90625 0.859375 -0.78125 0.859375 -0.53125 L 0.859375 -0.078125 C 0.859375 -0.0546875 0.847656 -0.0351562 0.828125 -0.015625 C 0.816406 -0.00390625 0.800781 0 0.78125 0 C 0.757812 0 0.738281 -0.00390625 0.71875 -0.015625 C 0.707031 -0.0351562 0.703125 -0.0546875 0.703125 -0.078125 L 0.703125 -0.53125 C 0.703125 -0.675781 0.640625 -0.75 0.515625 -0.75 C 0.441406 -0.75 0.382812 -0.726562 0.34375 -0.6875 C 0.300781 -0.644531 0.28125 -0.59375 0.28125 -0.53125 L 0.28125 -0.078125 C 0.28125 -0.0546875 0.269531 -0.0351562 0.25 -0.015625 C 0.238281 -0.00390625 0.222656 0 0.203125 0 C 0.171875 0 0.148438 -0.00390625 0.140625 -0.015625 C 0.128906 -0.0351562 0.125 -0.0546875 0.125 -0.078125 L 0.125 -1.171875 C 0.125 -1.191406 0.128906 -1.207031 0.140625 -1.21875 C 0.160156 -1.238281 0.179688 -1.25 0.203125 -1.25 C 0.222656 -1.25 0.238281 -1.238281 0.25 -1.21875 C 0.269531 -1.207031 0.28125 -1.191406 0.28125 -1.171875 L 0.28125 -0.734375 C 0.3125 -0.785156 0.347656 -0.828125 0.390625 -0.859375 C 0.441406 -0.890625 0.5 -0.90625 0.5625 -0.90625 Z M 0.5625 -0.90625 "/></g></g></g><g fill="#ffffff" fill-opacity="1"><g transform="translate(41.009073, 35.585526)"><g><path d="M 0.265625 -0.078125 C 0.265625 -0.0546875 0.253906 -0.0351562 0.234375 -0.015625 C 0.222656 -0.00390625 0.207031 0 0.1875 0 C 0.164062 0 0.144531 -0.00390625 0.125 -0.015625 C 0.113281 -0.0351562 0.109375 -0.0546875 0.109375 -0.078125 L 0.109375 -0.8125 C 0.109375 -0.832031 0.113281 -0.847656 0.125 -0.859375 C 0.144531 -0.878906 0.164062 -0.890625 0.1875 -0.890625 C 0.207031 -0.890625 0.222656 -0.878906 0.234375 -0.859375 C 0.253906 -0.847656 0.265625 -0.832031 0.265625 -0.8125 Z M 0.1875 -1 C 0.15625 -1 0.128906 -1.003906 0.109375 -1.015625 C 0.0976562 -1.035156 0.09375 -1.054688 0.09375 -1.078125 L 0.09375 -1.109375 C 0.09375 -1.128906 0.0976562 -1.144531 0.109375 -1.15625 C 0.128906 -1.164062 0.15625 -1.171875 0.1875 -1.171875 C 0.21875 -1.171875 0.238281 -1.164062 0.25 -1.15625 C 0.269531 -1.144531 0.28125 -1.128906 0.28125 -1.109375 L 0.28125 -1.078125 C 0.28125 -1.046875 0.269531 -1.023438 0.25 -1.015625 C 0.238281 -1.003906 0.21875 -1 0.1875 -1 Z M 0.1875 -1 "/></g></g></g><g fill="#ffffff" fill-opacity="1"><g transform="translate(41.798985, 35.585526)"><g><path d="M 0.578125 -0.90625 C 0.773438 -0.90625 0.875 -0.785156 0.875 -0.546875 L 0.875 -0.078125 C 0.875 -0.0546875 0.863281 -0.0351562 0.84375 -0.015625 C 0.832031 -0.00390625 0.816406 0 0.796875 0 C 0.773438 0 0.753906 -0.00390625 0.734375 -0.015625 C 0.722656 -0.0351562 0.71875 -0.0546875 0.71875 -0.078125 L 0.71875 -0.53125 C 0.71875 -0.601562 0.703125 -0.65625 0.671875 -0.6875 C 0.640625 -0.726562 0.585938 -0.75 0.515625 -0.75 C 0.472656 -0.75 0.429688 -0.738281 0.390625 -0.71875 C 0.359375 -0.707031 0.332031 -0.679688 0.3125 -0.640625 C 0.289062 -0.609375 0.28125 -0.570312 0.28125 -0.53125 L 0.28125 -0.078125 C 0.28125 -0.0546875 0.269531 -0.0351562 0.25 -0.015625 C 0.238281 -0.00390625 0.222656 0 0.203125 0 C 0.171875 0 0.148438 -0.00390625 0.140625 -0.015625 C 0.128906 -0.0351562 0.125 -0.0546875 0.125 -0.078125 L 0.125 -0.796875 C 0.125 -0.828125 0.128906 -0.847656 0.140625 -0.859375 C 0.160156 -0.878906 0.179688 -0.890625 0.203125 -0.890625 C 0.222656 -0.890625 0.238281 -0.878906 0.25 -0.859375 C 0.269531 -0.847656 0.28125 -0.828125 0.28125 -0.796875 L 0.28125 -0.75 C 0.3125 -0.789062 0.351562 -0.828125 0.40625 -0.859375 C 0.457031 -0.890625 0.515625 -0.90625 0.578125 -0.90625 Z M 0.578125 -0.90625 "/></g></g></g><g fill="#ffffff" fill-opacity="1"><g transform="translate(43.202449, 35.585526)"><g><path d="M 0.859375 -0.890625 C 0.878906 -0.890625 0.894531 -0.878906 0.90625 -0.859375 C 0.925781 -0.847656 0.9375 -0.832031 0.9375 -0.8125 L 0.9375 -0.078125 C 0.9375 0.015625 0.914062 0.09375 0.875 0.15625 C 0.84375 0.21875 0.789062 0.265625 0.71875 0.296875 C 0.65625 0.328125 0.582031 0.34375 0.5 0.34375 C 0.457031 0.34375 0.40625 0.332031 0.34375 0.3125 C 0.28125 0.300781 0.238281 0.285156 0.21875 0.265625 C 0.1875 0.242188 0.171875 0.222656 0.171875 0.203125 C 0.171875 0.191406 0.175781 0.179688 0.1875 0.171875 C 0.195312 0.140625 0.21875 0.125 0.25 0.125 C 0.257812 0.125 0.273438 0.128906 0.296875 0.140625 C 0.378906 0.171875 0.445312 0.1875 0.5 0.1875 C 0.59375 0.1875 0.660156 0.164062 0.703125 0.125 C 0.753906 0.0820312 0.78125 0.0234375 0.78125 -0.046875 L 0.78125 -0.140625 C 0.757812 -0.0976562 0.71875 -0.0625 0.65625 -0.03125 C 0.601562 0 0.546875 0.015625 0.484375 0.015625 C 0.410156 0.015625 0.335938 0 0.265625 -0.03125 C 0.203125 -0.0703125 0.148438 -0.128906 0.109375 -0.203125 C 0.078125 -0.273438 0.0625 -0.351562 0.0625 -0.4375 C 0.0625 -0.53125 0.078125 -0.609375 0.109375 -0.671875 C 0.148438 -0.742188 0.203125 -0.800781 0.265625 -0.84375 C 0.328125 -0.882812 0.398438 -0.90625 0.484375 -0.90625 C 0.546875 -0.90625 0.601562 -0.890625 0.65625 -0.859375 C 0.707031 -0.828125 0.75 -0.796875 0.78125 -0.765625 L 0.78125 -0.8125 C 0.78125 -0.832031 0.785156 -0.847656 0.796875 -0.859375 C 0.816406 -0.878906 0.835938 -0.890625 0.859375 -0.890625 Z M 0.5 -0.125 C 0.550781 -0.125 0.597656 -0.140625 0.640625 -0.171875 C 0.691406 -0.203125 0.726562 -0.238281 0.75 -0.28125 C 0.769531 -0.332031 0.78125 -0.382812 0.78125 -0.4375 C 0.78125 -0.5 0.769531 -0.550781 0.75 -0.59375 C 0.726562 -0.644531 0.691406 -0.679688 0.640625 -0.703125 C 0.597656 -0.734375 0.550781 -0.75 0.5 -0.75 C 0.445312 -0.75 0.398438 -0.734375 0.359375 -0.703125 C 0.316406 -0.679688 0.28125 -0.644531 0.25 -0.59375 C 0.226562 -0.550781 0.21875 -0.5 0.21875 -0.4375 C 0.21875 -0.382812 0.226562 -0.332031 0.25 -0.28125 C 0.28125 -0.238281 0.316406 -0.203125 0.359375 -0.171875 C 0.398438 -0.140625 0.445312 -0.125 0.5 -0.125 Z M 0.5 -0.125 "/></g></g></g><g fill="#ffffff" fill-opacity="1"><g transform="translate(44.670318, 35.585526)"><g><path d="M 0.0625 -0.140625 C 0.0507812 -0.148438 0.046875 -0.164062 0.046875 -0.1875 C 0.046875 -0.207031 0.0625 -0.222656 0.09375 -0.234375 C 0.101562 -0.242188 0.113281 -0.25 0.125 -0.25 C 0.144531 -0.25 0.164062 -0.242188 0.1875 -0.234375 C 0.21875 -0.191406 0.25 -0.160156 0.28125 -0.140625 C 0.320312 -0.117188 0.375 -0.109375 0.4375 -0.109375 C 0.476562 -0.109375 0.515625 -0.117188 0.546875 -0.140625 C 0.578125 -0.160156 0.59375 -0.191406 0.59375 -0.234375 C 0.59375 -0.273438 0.578125 -0.300781 0.546875 -0.3125 C 0.515625 -0.332031 0.460938 -0.351562 0.390625 -0.375 C 0.328125 -0.394531 0.273438 -0.410156 0.234375 -0.421875 C 0.191406 -0.441406 0.15625 -0.46875 0.125 -0.5 C 0.101562 -0.539062 0.09375 -0.59375 0.09375 -0.65625 C 0.09375 -0.695312 0.101562 -0.738281 0.125 -0.78125 C 0.15625 -0.820312 0.195312 -0.851562 0.25 -0.875 C 0.300781 -0.894531 0.351562 -0.90625 0.40625 -0.90625 C 0.457031 -0.90625 0.507812 -0.894531 0.5625 -0.875 C 0.613281 -0.851562 0.660156 -0.820312 0.703125 -0.78125 C 0.710938 -0.757812 0.71875 -0.742188 0.71875 -0.734375 C 0.71875 -0.710938 0.707031 -0.695312 0.6875 -0.6875 C 0.675781 -0.675781 0.664062 -0.671875 0.65625 -0.671875 C 0.632812 -0.671875 0.613281 -0.675781 0.59375 -0.6875 C 0.570312 -0.707031 0.546875 -0.722656 0.515625 -0.734375 C 0.484375 -0.753906 0.445312 -0.765625 0.40625 -0.765625 C 0.351562 -0.765625 0.3125 -0.753906 0.28125 -0.734375 C 0.257812 -0.722656 0.25 -0.695312 0.25 -0.65625 C 0.25 -0.613281 0.265625 -0.582031 0.296875 -0.5625 C 0.328125 -0.539062 0.378906 -0.523438 0.453125 -0.515625 C 0.515625 -0.492188 0.5625 -0.472656 0.59375 -0.453125 C 0.632812 -0.441406 0.664062 -0.414062 0.6875 -0.375 C 0.71875 -0.34375 0.734375 -0.296875 0.734375 -0.234375 C 0.734375 -0.179688 0.71875 -0.132812 0.6875 -0.09375 C 0.65625 -0.0625 0.613281 -0.0351562 0.5625 -0.015625 C 0.519531 0.00390625 0.472656 0.015625 0.421875 0.015625 C 0.347656 0.015625 0.28125 0.00390625 0.21875 -0.015625 C 0.15625 -0.046875 0.101562 -0.0859375 0.0625 -0.140625 Z M 0.0625 -0.140625 "/></g></g></g><g fill="#ffffff" fill-opacity="1"><g transform="translate(45.883954, 35.585526)"><g/></g></g><g fill="#ffffff" fill-opacity="1"><g transform="translate(46.758612, 35.585526)"><g><path d="M 0.5625 -0.90625 C 0.632812 -0.90625 0.703125 -0.882812 0.765625 -0.84375 C 0.828125 -0.800781 0.875 -0.742188 0.90625 -0.671875 C 0.945312 -0.609375 0.96875 -0.53125 0.96875 -0.4375 C 0.96875 -0.351562 0.945312 -0.273438 0.90625 -0.203125 C 0.875 -0.140625 0.828125 -0.0859375 0.765625 -0.046875 C 0.703125 -0.00390625 0.632812 0.015625 0.5625 0.015625 C 0.507812 0.015625 0.457031 0.00390625 0.40625 -0.015625 C 0.351562 -0.046875 0.3125 -0.0820312 0.28125 -0.125 L 0.28125 0.25 C 0.28125 0.28125 0.269531 0.300781 0.25 0.3125 C 0.238281 0.332031 0.222656 0.34375 0.203125 0.34375 C 0.179688 0.34375 0.160156 0.332031 0.140625 0.3125 C 0.128906 0.300781 0.125 0.28125 0.125 0.25 L 0.125 -0.8125 C 0.125 -0.832031 0.128906 -0.847656 0.140625 -0.859375 C 0.148438 -0.878906 0.171875 -0.890625 0.203125 -0.890625 C 0.222656 -0.890625 0.238281 -0.878906 0.25 -0.859375 C 0.269531 -0.847656 0.28125 -0.832031 0.28125 -0.8125 L 0.28125 -0.75 C 0.3125 -0.789062 0.347656 -0.828125 0.390625 -0.859375 C 0.441406 -0.890625 0.5 -0.90625 0.5625 -0.90625 Z M 0.546875 -0.140625 C 0.597656 -0.140625 0.644531 -0.148438 0.6875 -0.171875 C 0.726562 -0.203125 0.757812 -0.238281 0.78125 -0.28125 C 0.800781 -0.332031 0.8125 -0.382812 0.8125 -0.4375 C 0.8125 -0.5 0.800781 -0.550781 0.78125 -0.59375 C 0.757812 -0.644531 0.726562 -0.679688 0.6875 -0.703125 C 0.644531 -0.734375 0.597656 -0.75 0.546875 -0.75 C 0.492188 -0.75 0.445312 -0.734375 0.40625 -0.703125 C 0.363281 -0.679688 0.328125 -0.644531 0.296875 -0.59375 C 0.273438 -0.550781 0.265625 -0.5 0.265625 -0.4375 C 0.265625 -0.382812 0.273438 -0.332031 0.296875 -0.28125 C 0.328125 -0.238281 0.363281 -0.203125 0.40625 -0.171875 C 0.445312 -0.148438 0.492188 -0.140625 0.546875 -0.140625 Z M 0.546875 -0.140625 "/></g></g></g><g fill="#ffffff" fill-opacity="1"><g transform="translate(48.204448, 35.585526)"><g><path d="M 0.890625 -0.46875 C 0.890625 -0.457031 0.878906 -0.441406 0.859375 -0.421875 C 0.847656 -0.410156 0.832031 -0.40625 0.8125 -0.40625 L 0.21875 -0.40625 C 0.226562 -0.320312 0.257812 -0.253906 0.3125 -0.203125 C 0.363281 -0.148438 0.429688 -0.125 0.515625 -0.125 C 0.566406 -0.125 0.609375 -0.128906 0.640625 -0.140625 C 0.679688 -0.160156 0.710938 -0.1875 0.734375 -0.21875 C 0.753906 -0.226562 0.769531 -0.234375 0.78125 -0.234375 C 0.800781 -0.234375 0.816406 -0.222656 0.828125 -0.203125 C 0.847656 -0.191406 0.859375 -0.175781 0.859375 -0.15625 C 0.859375 -0.132812 0.84375 -0.113281 0.8125 -0.09375 C 0.78125 -0.0625 0.738281 -0.0351562 0.6875 -0.015625 C 0.632812 0.00390625 0.578125 0.015625 0.515625 0.015625 C 0.429688 0.015625 0.351562 0 0.28125 -0.03125 C 0.207031 -0.0703125 0.148438 -0.125 0.109375 -0.1875 C 0.078125 -0.257812 0.0625 -0.34375 0.0625 -0.4375 C 0.0625 -0.53125 0.0820312 -0.613281 0.125 -0.6875 C 0.164062 -0.757812 0.21875 -0.8125 0.28125 -0.84375 C 0.34375 -0.882812 0.410156 -0.90625 0.484375 -0.90625 C 0.554688 -0.90625 0.625 -0.882812 0.6875 -0.84375 C 0.75 -0.8125 0.796875 -0.757812 0.828125 -0.6875 C 0.867188 -0.625 0.890625 -0.550781 0.890625 -0.46875 Z M 0.484375 -0.75 C 0.421875 -0.75 0.363281 -0.734375 0.3125 -0.703125 C 0.269531 -0.671875 0.242188 -0.613281 0.234375 -0.53125 L 0.71875 -0.53125 L 0.71875 -0.546875 C 0.71875 -0.609375 0.691406 -0.65625 0.640625 -0.6875 C 0.597656 -0.726562 0.546875 -0.75 0.484375 -0.75 Z M 0.484375 -0.75 "/></g></g></g><g fill="#ffffff" fill-opacity="1"><g transform="translate(49.575708, 35.585526)"><g><path d="M 0.953125 -0.4375 C 0.953125 -0.351562 0.929688 -0.273438 0.890625 -0.203125 C 0.859375 -0.128906 0.804688 -0.0703125 0.734375 -0.03125 C 0.671875 0 0.597656 0.015625 0.515625 0.015625 C 0.429688 0.015625 0.351562 0 0.28125 -0.03125 C 0.21875 -0.0703125 0.164062 -0.128906 0.125 -0.203125 C 0.0820312 -0.273438 0.0625 -0.351562 0.0625 -0.4375 C 0.0625 -0.53125 0.0820312 -0.609375 0.125 -0.671875 C 0.164062 -0.742188 0.21875 -0.800781 0.28125 -0.84375 C 0.351562 -0.882812 0.429688 -0.90625 0.515625 -0.90625 C 0.597656 -0.90625 0.671875 -0.882812 0.734375 -0.84375 C 0.804688 -0.800781 0.859375 -0.742188 0.890625 -0.671875 C 0.929688 -0.609375 0.953125 -0.53125 0.953125 -0.4375 Z M 0.796875 -0.4375 C 0.796875 -0.5 0.78125 -0.550781 0.75 -0.59375 C 0.726562 -0.644531 0.695312 -0.679688 0.65625 -0.703125 C 0.613281 -0.734375 0.566406 -0.75 0.515625 -0.75 C 0.460938 -0.75 0.410156 -0.734375 0.359375 -0.703125 C 0.316406 -0.679688 0.28125 -0.644531 0.25 -0.59375 C 0.226562 -0.550781 0.21875 -0.5 0.21875 -0.4375 C 0.21875 -0.382812 0.226562 -0.332031 0.25 -0.28125 C 0.28125 -0.238281 0.316406 -0.203125 0.359375 -0.171875 C 0.410156 -0.140625 0.460938 -0.125 0.515625 -0.125 C 0.566406 -0.125 0.613281 -0.140625 0.65625 -0.171875 C 0.695312 -0.203125 0.726562 -0.238281 0.75 -0.28125 C 0.78125 -0.332031 0.796875 -0.382812 0.796875 -0.4375 Z M 0.796875 -0.4375 "/></g></g></g><g fill="#ffffff" fill-opacity="1"><g transform="translate(51.007983, 35.585526)"><g><path d="M 0.5625 -0.90625 C 0.632812 -0.90625 0.703125 -0.882812 0.765625 -0.84375 C 0.828125 -0.800781 0.875 -0.742188 0.90625 -0.671875 C 0.945312 -0.609375 0.96875 -0.53125 0.96875 -0.4375 C 0.96875 -0.351562 0.945312 -0.273438 0.90625 -0.203125 C 0.875 -0.140625 0.828125 -0.0859375 0.765625 -0.046875 C 0.703125 -0.00390625 0.632812 0.015625 0.5625 0.015625 C 0.507812 0.015625 0.457031 0.00390625 0.40625 -0.015625 C 0.351562 -0.046875 0.3125 -0.0820312 0.28125 -0.125 L 0.28125 0.25 C 0.28125 0.28125 0.269531 0.300781 0.25 0.3125 C 0.238281 0.332031 0.222656 0.34375 0.203125 0.34375 C 0.179688 0.34375 0.160156 0.332031 0.140625 0.3125 C 0.128906 0.300781 0.125 0.28125 0.125 0.25 L 0.125 -0.8125 C 0.125 -0.832031 0.128906 -0.847656 0.140625 -0.859375 C 0.148438 -0.878906 0.171875 -0.890625 0.203125 -0.890625 C 0.222656 -0.890625 0.238281 -0.878906 0.25 -0.859375 C 0.269531 -0.847656 0.28125 -0.832031 0.28125 -0.8125 L 0.28125 -0.75 C 0.3125 -0.789062 0.347656 -0.828125 0.390625 -0.859375 C 0.441406 -0.890625 0.5 -0.90625 0.5625 -0.90625 Z M 0.546875 -0.140625 C 0.597656 -0.140625 0.644531 -0.148438 0.6875 -0.171875 C 0.726562 -0.203125 0.757812 -0.238281 0.78125 -0.28125 C 0.800781 -0.332031 0.8125 -0.382812 0.8125 -0.4375 C 0.8125 -0.5 0.800781 -0.550781 0.78125 -0.59375 C 0.757812 -0.644531 0.726562 -0.679688 0.6875 -0.703125 C 0.644531 -0.734375 0.597656 -0.75 0.546875 -0.75 C 0.492188 -0.75 0.445312 -0.734375 0.40625 -0.703125 C 0.363281 -0.679688 0.328125 -0.644531 0.296875 -0.59375 C 0.273438 -0.550781 0.265625 -0.5 0.265625 -0.4375 C 0.265625 -0.382812 0.273438 -0.332031 0.296875 -0.28125 C 0.328125 -0.238281 0.363281 -0.203125 0.40625 -0.171875 C 0.445312 -0.148438 0.492188 -0.140625 0.546875 -0.140625 Z M 0.546875 -0.140625 "/></g></g></g><g fill="#ffffff" fill-opacity="1"><g transform="translate(52.453817, 35.585526)"><g><path d="M 0.296875 -0.078125 C 0.296875 -0.0546875 0.285156 -0.0351562 0.265625 -0.015625 C 0.253906 -0.00390625 0.238281 0 0.21875 0 C 0.1875 0 0.164062 -0.00390625 0.15625 -0.015625 C 0.144531 -0.0351562 0.140625 -0.0546875 0.140625 -0.078125 L 0.140625 -1.171875 C 0.140625 -1.191406 0.144531 -1.207031 0.15625 -1.21875 C 0.175781 -1.238281 0.195312 -1.25 0.21875 -1.25 C 0.238281 -1.25 0.253906 -1.238281 0.265625 -1.21875 C 0.285156 -1.207031 0.296875 -1.191406 0.296875 -1.171875 Z M 0.296875 -0.078125 "/></g></g></g><g fill="#ffffff" fill-opacity="1"><g transform="translate(53.287799, 35.585526)"><g><path d="M 0.890625 -0.46875 C 0.890625 -0.457031 0.878906 -0.441406 0.859375 -0.421875 C 0.847656 -0.410156 0.832031 -0.40625 0.8125 -0.40625 L 0.21875 -0.40625 C 0.226562 -0.320312 0.257812 -0.253906 0.3125 -0.203125 C 0.363281 -0.148438 0.429688 -0.125 0.515625 -0.125 C 0.566406 -0.125 0.609375 -0.128906 0.640625 -0.140625 C 0.679688 -0.160156 0.710938 -0.1875 0.734375 -0.21875 C 0.753906 -0.226562 0.769531 -0.234375 0.78125 -0.234375 C 0.800781 -0.234375 0.816406 -0.222656 0.828125 -0.203125 C 0.847656 -0.191406 0.859375 -0.175781 0.859375 -0.15625 C 0.859375 -0.132812 0.84375 -0.113281 0.8125 -0.09375 C 0.78125 -0.0625 0.738281 -0.0351562 0.6875 -0.015625 C 0.632812 0.00390625 0.578125 0.015625 0.515625 0.015625 C 0.429688 0.015625 0.351562 0 0.28125 -0.03125 C 0.207031 -0.0703125 0.148438 -0.125 0.109375 -0.1875 C 0.078125 -0.257812 0.0625 -0.34375 0.0625 -0.4375 C 0.0625 -0.53125 0.0820312 -0.613281 0.125 -0.6875 C 0.164062 -0.757812 0.21875 -0.8125 0.28125 -0.84375 C 0.34375 -0.882812 0.410156 -0.90625 0.484375 -0.90625 C 0.554688 -0.90625 0.625 -0.882812 0.6875 -0.84375 C 0.75 -0.8125 0.796875 -0.757812 0.828125 -0.6875 C 0.867188 -0.625 0.890625 -0.550781 0.890625 -0.46875 Z M 0.484375 -0.75 C 0.421875 -0.75 0.363281 -0.734375 0.3125 -0.703125 C 0.269531 -0.671875 0.242188 -0.613281 0.234375 -0.53125 L 0.71875 -0.53125 L 0.71875 -0.546875 C 0.71875 -0.609375 0.691406 -0.65625 0.640625 -0.6875 C 0.597656 -0.726562 0.546875 -0.75 0.484375 -0.75 Z M 0.484375 -0.75 "/></g></g></g><g fill="#ffffff" fill-opacity="1"><g transform="translate(54.659059, 35.585526)"><g/></g></g><g fill="#ffffff" fill-opacity="1"><g transform="translate(55.533715, 35.585526)"><g><path d="M 0.84375 -0.890625 C 0.863281 -0.890625 0.878906 -0.878906 0.890625 -0.859375 C 0.910156 -0.847656 0.921875 -0.832031 0.921875 -0.8125 L 0.921875 -0.078125 C 0.921875 -0.0546875 0.910156 -0.0351562 0.890625 -0.015625 C 0.878906 -0.00390625 0.863281 0 0.84375 0 C 0.8125 0 0.785156 -0.00390625 0.765625 -0.015625 C 0.753906 -0.0351562 0.75 -0.0546875 0.75 -0.078125 L 0.75 -0.125 C 0.726562 -0.0820312 0.691406 -0.046875 0.640625 -0.015625 C 0.585938 0.00390625 0.53125 0.015625 0.46875 0.015625 C 0.394531 0.015625 0.328125 0 0.265625 -0.03125 C 0.203125 -0.0703125 0.148438 -0.128906 0.109375 -0.203125 C 0.078125 -0.273438 0.0625 -0.351562 0.0625 -0.4375 C 0.0625 -0.53125 0.078125 -0.609375 0.109375 -0.671875 C 0.148438 -0.742188 0.203125 -0.800781 0.265625 -0.84375 C 0.328125 -0.882812 0.394531 -0.90625 0.46875 -0.90625 C 0.53125 -0.90625 0.585938 -0.890625 0.640625 -0.859375 C 0.691406 -0.835938 0.726562 -0.804688 0.75 -0.765625 L 0.75 -0.8125 C 0.75 -0.832031 0.753906 -0.847656 0.765625 -0.859375 C 0.785156 -0.878906 0.8125 -0.890625 0.84375 -0.890625 Z M 0.5 -0.125 C 0.550781 -0.125 0.59375 -0.140625 0.625 -0.171875 C 0.664062 -0.203125 0.695312 -0.238281 0.71875 -0.28125 C 0.75 -0.332031 0.765625 -0.382812 0.765625 -0.4375 C 0.765625 -0.5 0.75 -0.550781 0.71875 -0.59375 C 0.695312 -0.644531 0.664062 -0.679688 0.625 -0.703125 C 0.59375 -0.734375 0.550781 -0.75 0.5 -0.75 C 0.4375 -0.75 0.382812 -0.734375 0.34375 -0.703125 C 0.3125 -0.679688 0.28125 -0.644531 0.25 -0.59375 C 0.226562 -0.550781 0.21875 -0.5 0.21875 -0.4375 C 0.21875 -0.382812 0.226562 -0.332031 0.25 -0.28125 C 0.28125 -0.238281 0.3125 -0.203125 0.34375 -0.171875 C 0.382812 -0.140625 0.4375 -0.125 0.5 -0.125 Z M 0.5 -0.125 "/></g></g></g><g fill="#ffffff" fill-opacity="1"><g transform="translate(56.97955, 35.585526)"><g><path d="M 0.5 -0.90625 C 0.59375 -0.90625 0.664062 -0.890625 0.71875 -0.859375 C 0.78125 -0.828125 0.8125 -0.789062 0.8125 -0.75 C 0.8125 -0.726562 0.804688 -0.710938 0.796875 -0.703125 C 0.785156 -0.691406 0.769531 -0.6875 0.75 -0.6875 C 0.738281 -0.6875 0.726562 -0.6875 0.71875 -0.6875 C 0.707031 -0.6875 0.695312 -0.691406 0.6875 -0.703125 C 0.675781 -0.710938 0.660156 -0.722656 0.640625 -0.734375 C 0.628906 -0.742188 0.609375 -0.75 0.578125 -0.75 C 0.554688 -0.75 0.535156 -0.75 0.515625 -0.75 C 0.460938 -0.75 0.410156 -0.734375 0.359375 -0.703125 C 0.316406 -0.679688 0.28125 -0.644531 0.25 -0.59375 C 0.226562 -0.550781 0.21875 -0.5 0.21875 -0.4375 C 0.21875 -0.382812 0.226562 -0.332031 0.25 -0.28125 C 0.28125 -0.238281 0.316406 -0.203125 0.359375 -0.171875 C 0.410156 -0.140625 0.460938 -0.125 0.515625 -0.125 C 0.578125 -0.125 0.625 -0.132812 0.65625 -0.15625 C 0.664062 -0.164062 0.675781 -0.175781 0.6875 -0.1875 C 0.695312 -0.1875 0.707031 -0.1875 0.71875 -0.1875 C 0.726562 -0.195312 0.738281 -0.203125 0.75 -0.203125 C 0.769531 -0.203125 0.785156 -0.195312 0.796875 -0.1875 C 0.816406 -0.175781 0.828125 -0.15625 0.828125 -0.125 C 0.828125 -0.101562 0.8125 -0.0820312 0.78125 -0.0625 C 0.75 -0.0390625 0.707031 -0.0195312 0.65625 0 C 0.601562 0.0078125 0.550781 0.015625 0.5 0.015625 C 0.414062 0.015625 0.335938 -0.00390625 0.265625 -0.046875 C 0.203125 -0.0859375 0.148438 -0.140625 0.109375 -0.203125 C 0.078125 -0.273438 0.0625 -0.351562 0.0625 -0.4375 C 0.0625 -0.53125 0.078125 -0.609375 0.109375 -0.671875 C 0.148438 -0.742188 0.203125 -0.800781 0.265625 -0.84375 C 0.335938 -0.882812 0.414062 -0.90625 0.5 -0.90625 Z M 0.5 -0.90625 "/></g></g></g><g fill="#ffffff" fill-opacity="1"><g transform="translate(58.255896, 35.585526)"><g><path d="M 0.359375 -0.734375 L 0.359375 -0.21875 C 0.359375 -0.164062 0.382812 -0.140625 0.4375 -0.140625 C 0.445312 -0.140625 0.457031 -0.140625 0.46875 -0.140625 C 0.476562 -0.148438 0.488281 -0.15625 0.5 -0.15625 C 0.507812 -0.15625 0.519531 -0.144531 0.53125 -0.125 C 0.539062 -0.113281 0.546875 -0.101562 0.546875 -0.09375 C 0.546875 -0.0625 0.53125 -0.0351562 0.5 -0.015625 C 0.476562 -0.00390625 0.453125 0 0.421875 0 C 0.378906 0 0.34375 -0.00390625 0.3125 -0.015625 C 0.28125 -0.0234375 0.253906 -0.046875 0.234375 -0.078125 C 0.210938 -0.109375 0.203125 -0.15625 0.203125 -0.21875 L 0.203125 -0.734375 L 0.09375 -0.734375 C 0.0703125 -0.734375 0.0546875 -0.738281 0.046875 -0.75 C 0.0351562 -0.757812 0.03125 -0.773438 0.03125 -0.796875 C 0.03125 -0.816406 0.0351562 -0.832031 0.046875 -0.84375 C 0.0546875 -0.863281 0.0703125 -0.875 0.09375 -0.875 L 0.203125 -0.875 L 0.203125 -1.015625 C 0.203125 -1.035156 0.207031 -1.050781 0.21875 -1.0625 C 0.238281 -1.082031 0.257812 -1.09375 0.28125 -1.09375 C 0.300781 -1.09375 0.316406 -1.082031 0.328125 -1.0625 C 0.347656 -1.050781 0.359375 -1.035156 0.359375 -1.015625 L 0.359375 -0.875 L 0.5 -0.875 C 0.519531 -0.875 0.535156 -0.863281 0.546875 -0.84375 C 0.566406 -0.832031 0.578125 -0.816406 0.578125 -0.796875 C 0.578125 -0.773438 0.566406 -0.757812 0.546875 -0.75 C 0.535156 -0.738281 0.519531 -0.734375 0.5 -0.734375 Z M 0.359375 -0.734375 "/></g></g></g><g fill="#ffffff" fill-opacity="1"><g transform="translate(59.305128, 35.585526)"><g><path d="M 0.78125 -0.890625 C 0.800781 -0.890625 0.816406 -0.878906 0.828125 -0.859375 C 0.847656 -0.847656 0.859375 -0.828125 0.859375 -0.796875 L 0.859375 -0.359375 C 0.859375 -0.234375 0.828125 -0.140625 0.765625 -0.078125 C 0.703125 -0.015625 0.609375 0.015625 0.484375 0.015625 C 0.367188 0.015625 0.28125 -0.015625 0.21875 -0.078125 C 0.15625 -0.140625 0.125 -0.234375 0.125 -0.359375 L 0.125 -0.796875 C 0.125 -0.828125 0.128906 -0.847656 0.140625 -0.859375 C 0.160156 -0.878906 0.179688 -0.890625 0.203125 -0.890625 C 0.222656 -0.890625 0.238281 -0.878906 0.25 -0.859375 C 0.269531 -0.847656 0.28125 -0.828125 0.28125 -0.796875 L 0.28125 -0.359375 C 0.28125 -0.210938 0.347656 -0.140625 0.484375 -0.140625 C 0.554688 -0.140625 0.609375 -0.15625 0.640625 -0.1875 C 0.679688 -0.226562 0.703125 -0.285156 0.703125 -0.359375 L 0.703125 -0.796875 C 0.703125 -0.828125 0.707031 -0.847656 0.71875 -0.859375 C 0.738281 -0.878906 0.757812 -0.890625 0.78125 -0.890625 Z M 0.78125 -0.890625 "/></g></g></g><g fill="#ffffff" fill-opacity="1"><g transform="translate(60.693336, 35.585526)"><g><path d="M 0.84375 -0.890625 C 0.863281 -0.890625 0.878906 -0.878906 0.890625 -0.859375 C 0.910156 -0.847656 0.921875 -0.832031 0.921875 -0.8125 L 0.921875 -0.078125 C 0.921875 -0.0546875 0.910156 -0.0351562 0.890625 -0.015625 C 0.878906 -0.00390625 0.863281 0 0.84375 0 C 0.8125 0 0.785156 -0.00390625 0.765625 -0.015625 C 0.753906 -0.0351562 0.75 -0.0546875 0.75 -0.078125 L 0.75 -0.125 C 0.726562 -0.0820312 0.691406 -0.046875 0.640625 -0.015625 C 0.585938 0.00390625 0.53125 0.015625 0.46875 0.015625 C 0.394531 0.015625 0.328125 0 0.265625 -0.03125 C 0.203125 -0.0703125 0.148438 -0.128906 0.109375 -0.203125 C 0.078125 -0.273438 0.0625 -0.351562 0.0625 -0.4375 C 0.0625 -0.53125 0.078125 -0.609375 0.109375 -0.671875 C 0.148438 -0.742188 0.203125 -0.800781 0.265625 -0.84375 C 0.328125 -0.882812 0.394531 -0.90625 0.46875 -0.90625 C 0.53125 -0.90625 0.585938 -0.890625 0.640625 -0.859375 C 0.691406 -0.835938 0.726562 -0.804688 0.75 -0.765625 L 0.75 -0.8125 C 0.75 -0.832031 0.753906 -0.847656 0.765625 -0.859375 C 0.785156 -0.878906 0.8125 -0.890625 0.84375 -0.890625 Z M 0.5 -0.125 C 0.550781 -0.125 0.59375 -0.140625 0.625 -0.171875 C 0.664062 -0.203125 0.695312 -0.238281 0.71875 -0.28125 C 0.75 -0.332031 0.765625 -0.382812 0.765625 -0.4375 C 0.765625 -0.5 0.75 -0.550781 0.71875 -0.59375 C 0.695312 -0.644531 0.664062 -0.679688 0.625 -0.703125 C 0.59375 -0.734375 0.550781 -0.75 0.5 -0.75 C 0.4375 -0.75 0.382812 -0.734375 0.34375 -0.703125 C 0.3125 -0.679688 0.28125 -0.644531 0.25 -0.59375 C 0.226562 -0.550781 0.21875 -0.5 0.21875 -0.4375 C 0.21875 -0.382812 0.226562 -0.332031 0.25 -0.28125 C 0.28125 -0.238281 0.3125 -0.203125 0.34375 -0.171875 C 0.382812 -0.140625 0.4375 -0.125 0.5 -0.125 Z M 0.5 -0.125 "/></g></g></g><g fill="#ffffff" fill-opacity="1"><g transform="translate(62.139172, 35.585526)"><g><path d="M 0.296875 -0.078125 C 0.296875 -0.0546875 0.285156 -0.0351562 0.265625 -0.015625 C 0.253906 -0.00390625 0.238281 0 0.21875 0 C 0.1875 0 0.164062 -0.00390625 0.15625 -0.015625 C 0.144531 -0.0351562 0.140625 -0.0546875 0.140625 -0.078125 L 0.140625 -1.171875 C 0.140625 -1.191406 0.144531 -1.207031 0.15625 -1.21875 C 0.175781 -1.238281 0.195312 -1.25 0.21875 -1.25 C 0.238281 -1.25 0.253906 -1.238281 0.265625 -1.21875 C 0.285156 -1.207031 0.296875 -1.191406 0.296875 -1.171875 Z M 0.296875 -0.078125 "/></g></g></g><g fill="#ffffff" fill-opacity="1"><g transform="translate(62.973153, 35.585526)"><g><path d="M 0.296875 -0.078125 C 0.296875 -0.0546875 0.285156 -0.0351562 0.265625 -0.015625 C 0.253906 -0.00390625 0.238281 0 0.21875 0 C 0.1875 0 0.164062 -0.00390625 0.15625 -0.015625 C 0.144531 -0.0351562 0.140625 -0.0546875 0.140625 -0.078125 L 0.140625 -1.171875 C 0.140625 -1.191406 0.144531 -1.207031 0.15625 -1.21875 C 0.175781 -1.238281 0.195312 -1.25 0.21875 -1.25 C 0.238281 -1.25 0.253906 -1.238281 0.265625 -1.21875 C 0.285156 -1.207031 0.296875 -1.191406 0.296875 -1.171875 Z M 0.296875 -0.078125 "/></g></g></g><g fill="#ffffff" fill-opacity="1"><g transform="translate(63.807135, 35.585526)"><g><path d="M 0.78125 -0.890625 C 0.800781 -0.890625 0.816406 -0.878906 0.828125 -0.859375 C 0.847656 -0.847656 0.859375 -0.832031 0.859375 -0.8125 L 0.859375 -0.078125 C 0.859375 0.0546875 0.816406 0.160156 0.734375 0.234375 C 0.660156 0.304688 0.5625 0.34375 0.4375 0.34375 C 0.394531 0.34375 0.351562 0.335938 0.3125 0.328125 C 0.269531 0.316406 0.238281 0.304688 0.21875 0.296875 C 0.175781 0.273438 0.15625 0.25 0.15625 0.21875 C 0.15625 0.207031 0.15625 0.195312 0.15625 0.1875 C 0.15625 0.175781 0.160156 0.164062 0.171875 0.15625 C 0.191406 0.144531 0.207031 0.140625 0.21875 0.140625 C 0.226562 0.140625 0.238281 0.140625 0.25 0.140625 C 0.28125 0.148438 0.3125 0.160156 0.34375 0.171875 C 0.375 0.179688 0.40625 0.1875 0.4375 0.1875 C 0.613281 0.1875 0.703125 0.0976562 0.703125 -0.078125 L 0.703125 -0.109375 C 0.671875 -0.0664062 0.628906 -0.0351562 0.578125 -0.015625 C 0.535156 0.00390625 0.484375 0.015625 0.421875 0.015625 C 0.328125 0.015625 0.253906 -0.0078125 0.203125 -0.0625 C 0.148438 -0.125 0.125 -0.207031 0.125 -0.3125 L 0.125 -0.8125 C 0.125 -0.832031 0.128906 -0.847656 0.140625 -0.859375 C 0.148438 -0.878906 0.171875 -0.890625 0.203125 -0.890625 C 0.222656 -0.890625 0.238281 -0.878906 0.25 -0.859375 C 0.269531 -0.847656 0.28125 -0.832031 0.28125 -0.8125 L 0.28125 -0.34375 C 0.28125 -0.269531 0.296875 -0.210938 0.328125 -0.171875 C 0.359375 -0.140625 0.410156 -0.125 0.484375 -0.125 C 0.546875 -0.125 0.597656 -0.144531 0.640625 -0.1875 C 0.679688 -0.226562 0.703125 -0.28125 0.703125 -0.34375 L 0.703125 -0.8125 C 0.703125 -0.832031 0.707031 -0.847656 0.71875 -0.859375 C 0.738281 -0.878906 0.757812 -0.890625 0.78125 -0.890625 Z M 0.78125 -0.890625 "/></g></g></g><g fill="#ffffff" fill-opacity="1"><g transform="translate(65.193648, 35.585526)"><g/></g></g><g fill="#ffffff" fill-opacity="1"><g transform="translate(66.068304, 35.585526)"><g><path d="M 0.78125 -0.890625 C 0.800781 -0.890625 0.816406 -0.878906 0.828125 -0.859375 C 0.847656 -0.847656 0.859375 -0.828125 0.859375 -0.796875 L 0.859375 -0.359375 C 0.859375 -0.234375 0.828125 -0.140625 0.765625 -0.078125 C 0.703125 -0.015625 0.609375 0.015625 0.484375 0.015625 C 0.367188 0.015625 0.28125 -0.015625 0.21875 -0.078125 C 0.15625 -0.140625 0.125 -0.234375 0.125 -0.359375 L 0.125 -0.796875 C 0.125 -0.828125 0.128906 -0.847656 0.140625 -0.859375 C 0.160156 -0.878906 0.179688 -0.890625 0.203125 -0.890625 C 0.222656 -0.890625 0.238281 -0.878906 0.25 -0.859375 C 0.269531 -0.847656 0.28125 -0.828125 0.28125 -0.796875 L 0.28125 -0.359375 C 0.28125 -0.210938 0.347656 -0.140625 0.484375 -0.140625 C 0.554688 -0.140625 0.609375 -0.15625 0.640625 -0.1875 C 0.679688 -0.226562 0.703125 -0.285156 0.703125 -0.359375 L 0.703125 -0.796875 C 0.703125 -0.828125 0.707031 -0.847656 0.71875 -0.859375 C 0.738281 -0.878906 0.757812 -0.890625 0.78125 -0.890625 Z M 0.78125 -0.890625 "/></g></g></g><g fill="#ffffff" fill-opacity="1"><g transform="translate(67.456513, 35.585526)"><g><path d="M 0.0625 -0.140625 C 0.0507812 -0.148438 0.046875 -0.164062 0.046875 -0.1875 C 0.046875 -0.207031 0.0625 -0.222656 0.09375 -0.234375 C 0.101562 -0.242188 0.113281 -0.25 0.125 -0.25 C 0.144531 -0.25 0.164062 -0.242188 0.1875 -0.234375 C 0.21875 -0.191406 0.25 -0.160156 0.28125 -0.140625 C 0.320312 -0.117188 0.375 -0.109375 0.4375 -0.109375 C 0.476562 -0.109375 0.515625 -0.117188 0.546875 -0.140625 C 0.578125 -0.160156 0.59375 -0.191406 0.59375 -0.234375 C 0.59375 -0.273438 0.578125 -0.300781 0.546875 -0.3125 C 0.515625 -0.332031 0.460938 -0.351562 0.390625 -0.375 C 0.328125 -0.394531 0.273438 -0.410156 0.234375 -0.421875 C 0.191406 -0.441406 0.15625 -0.46875 0.125 -0.5 C 0.101562 -0.539062 0.09375 -0.59375 0.09375 -0.65625 C 0.09375 -0.695312 0.101562 -0.738281 0.125 -0.78125 C 0.15625 -0.820312 0.195312 -0.851562 0.25 -0.875 C 0.300781 -0.894531 0.351562 -0.90625 0.40625 -0.90625 C 0.457031 -0.90625 0.507812 -0.894531 0.5625 -0.875 C 0.613281 -0.851562 0.660156 -0.820312 0.703125 -0.78125 C 0.710938 -0.757812 0.71875 -0.742188 0.71875 -0.734375 C 0.71875 -0.710938 0.707031 -0.695312 0.6875 -0.6875 C 0.675781 -0.675781 0.664062 -0.671875 0.65625 -0.671875 C 0.632812 -0.671875 0.613281 -0.675781 0.59375 -0.6875 C 0.570312 -0.707031 0.546875 -0.722656 0.515625 -0.734375 C 0.484375 -0.753906 0.445312 -0.765625 0.40625 -0.765625 C 0.351562 -0.765625 0.3125 -0.753906 0.28125 -0.734375 C 0.257812 -0.722656 0.25 -0.695312 0.25 -0.65625 C 0.25 -0.613281 0.265625 -0.582031 0.296875 -0.5625 C 0.328125 -0.539062 0.378906 -0.523438 0.453125 -0.515625 C 0.515625 -0.492188 0.5625 -0.472656 0.59375 -0.453125 C 0.632812 -0.441406 0.664062 -0.414062 0.6875 -0.375 C 0.71875 -0.34375 0.734375 -0.296875 0.734375 -0.234375 C 0.734375 -0.179688 0.71875 -0.132812 0.6875 -0.09375 C 0.65625 -0.0625 0.613281 -0.0351562 0.5625 -0.015625 C 0.519531 0.00390625 0.472656 0.015625 0.421875 0.015625 C 0.347656 0.015625 0.28125 0.00390625 0.21875 -0.015625 C 0.15625 -0.046875 0.101562 -0.0859375 0.0625 -0.140625 Z M 0.0625 -0.140625 "/></g></g></g><g fill="#ffffff" fill-opacity="1"><g transform="translate(68.670149, 35.585526)"><g><path d="M 0.890625 -0.46875 C 0.890625 -0.457031 0.878906 -0.441406 0.859375 -0.421875 C 0.847656 -0.410156 0.832031 -0.40625 0.8125 -0.40625 L 0.21875 -0.40625 C 0.226562 -0.320312 0.257812 -0.253906 0.3125 -0.203125 C 0.363281 -0.148438 0.429688 -0.125 0.515625 -0.125 C 0.566406 -0.125 0.609375 -0.128906 0.640625 -0.140625 C 0.679688 -0.160156 0.710938 -0.1875 0.734375 -0.21875 C 0.753906 -0.226562 0.769531 -0.234375 0.78125 -0.234375 C 0.800781 -0.234375 0.816406 -0.222656 0.828125 -0.203125 C 0.847656 -0.191406 0.859375 -0.175781 0.859375 -0.15625 C 0.859375 -0.132812 0.84375 -0.113281 0.8125 -0.09375 C 0.78125 -0.0625 0.738281 -0.0351562 0.6875 -0.015625 C 0.632812 0.00390625 0.578125 0.015625 0.515625 0.015625 C 0.429688 0.015625 0.351562 0 0.28125 -0.03125 C 0.207031 -0.0703125 0.148438 -0.125 0.109375 -0.1875 C 0.078125 -0.257812 0.0625 -0.34375 0.0625 -0.4375 C 0.0625 -0.53125 0.0820312 -0.613281 0.125 -0.6875 C 0.164062 -0.757812 0.21875 -0.8125 0.28125 -0.84375 C 0.34375 -0.882812 0.410156 -0.90625 0.484375 -0.90625 C 0.554688 -0.90625 0.625 -0.882812 0.6875 -0.84375 C 0.75 -0.8125 0.796875 -0.757812 0.828125 -0.6875 C 0.867188 -0.625 0.890625 -0.550781 0.890625 -0.46875 Z M 0.484375 -0.75 C 0.421875 -0.75 0.363281 -0.734375 0.3125 -0.703125 C 0.269531 -0.671875 0.242188 -0.613281 0.234375 -0.53125 L 0.71875 -0.53125 L 0.71875 -0.546875 C 0.71875 -0.609375 0.691406 -0.65625 0.640625 -0.6875 C 0.597656 -0.726562 0.546875 -0.75 0.484375 -0.75 Z M 0.484375 -0.75 "/></g></g></g></svg>