<svg width="100%" viewBox="0 0 680 210" xmlns="http://www.w3.org/2000/svg">
  <defs>
    <marker id="arw" viewBox="0 0 10 10" refX="8" refY="5" markerWidth="5" markerHeight="5" orient="auto">
      <path d="M2 2L8 5L2 8" fill="none" stroke="#94a3b8" stroke-width="1.5" stroke-linecap="round"/>
    </marker>
    <path id="fp1" d="M165,110 C210,110 250,60 290,60"/>
    <path id="fp2" d="M165,110 C210,110 250,88 290,88"/>
    <path id="fp3" d="M165,110 C215,110 290,116 290,116"/>
    <path id="fp4" d="M165,110 C210,110 250,144 290,144"/>
    <path id="fp5" d="M165,110 C210,110 250,172 290,172"/>
    <path id="rp1" d="M482,115 L498,115"/>
    <path id="op1" d="M592,115 L612,115"/>
  </defs>
  <style>text { font-family: system-ui,-apple-system,sans-serif; }</style>

  <text font-size="12" font-weight="600" fill="#b45309" x="162" y="24" text-anchor="middle">Opus 4.6 — eager doer</text>
  <text font-size="12" font-weight="600" fill="#0f766e" x="510" y="24" text-anchor="middle">Codex — deep reader</text>

  <line x1="340" y1="32" x2="340" y2="196" stroke="#e5e7eb" stroke-width="0.5" stroke-dasharray="4 3"/>

  <rect x="55" y="88" width="110" height="44" rx="8" fill="#fffbeb" stroke="#fcd34d" stroke-width="0.5"/>
  <text font-size="13" font-weight="600" fill="#92400e" x="110" y="110" text-anchor="middle" dominant-baseline="central">Opus 4.6</text>

  <path d="M165,110 C210,110 250,60 290,60"  fill="none" stroke="#fde68a" stroke-width="1"/>
  <path d="M165,110 C210,110 250,88 290,88"  fill="none" stroke="#fde68a" stroke-width="1"/>
  <path d="M165,110 C215,110 290,116 290,116" fill="none" stroke="#fde68a" stroke-width="1"/>
  <path d="M165,110 C210,110 250,144 290,144" fill="none" stroke="#fde68a" stroke-width="1"/>
  <path d="M165,110 C210,110 250,172 290,172" fill="none" stroke="#fde68a" stroke-width="1"/>

  <circle cx="290" cy="60"  r="4" fill="#fcd34d" opacity="0.45"/>
  <circle cx="290" cy="88"  r="4" fill="#fcd34d" opacity="0.45"/>
  <circle cx="290" cy="116" r="4" fill="#fcd34d" opacity="0.45"/>
  <circle cx="290" cy="144" r="4" fill="#fcd34d" opacity="0.45"/>
  <circle cx="290" cy="172" r="4" fill="#fcd34d" opacity="0.45"/>

  <circle r="3" fill="#f59e0b"><animateMotion dur="0.9s" repeatCount="indefinite" begin="0s"><mpath href="#fp1"/></animateMotion><animate attributeName="opacity" values="0;1;1;0" keyTimes="0;0.05;0.9;1" dur="0.9s" repeatCount="indefinite" begin="0s"/></circle>
  <circle r="3" fill="#f59e0b"><animateMotion dur="0.9s" repeatCount="indefinite" begin="0.3s"><mpath href="#fp1"/></animateMotion><animate attributeName="opacity" values="0;1;1;0" keyTimes="0;0.05;0.9;1" dur="0.9s" repeatCount="indefinite" begin="0.3s"/></circle>
  <circle r="3" fill="#f59e0b"><animateMotion dur="0.9s" repeatCount="indefinite" begin="0.6s"><mpath href="#fp1"/></animateMotion><animate attributeName="opacity" values="0;1;1;0" keyTimes="0;0.05;0.9;1" dur="0.9s" repeatCount="indefinite" begin="0.6s"/></circle>
  <circle r="3" fill="#f59e0b"><animateMotion dur="0.9s" repeatCount="indefinite" begin="0.06s"><mpath href="#fp2"/></animateMotion><animate attributeName="opacity" values="0;1;1;0" keyTimes="0;0.05;0.9;1" dur="0.9s" repeatCount="indefinite" begin="0.06s"/></circle>
  <circle r="3" fill="#f59e0b"><animateMotion dur="0.9s" repeatCount="indefinite" begin="0.36s"><mpath href="#fp2"/></animateMotion><animate attributeName="opacity" values="0;1;1;0" keyTimes="0;0.05;0.9;1" dur="0.9s" repeatCount="indefinite" begin="0.36s"/></circle>
  <circle r="3" fill="#f59e0b"><animateMotion dur="0.9s" repeatCount="indefinite" begin="0.66s"><mpath href="#fp2"/></animateMotion><animate attributeName="opacity" values="0;1;1;0" keyTimes="0;0.05;0.9;1" dur="0.9s" repeatCount="indefinite" begin="0.66s"/></circle>
  <circle r="3" fill="#f59e0b"><animateMotion dur="0.9s" repeatCount="indefinite" begin="0.12s"><mpath href="#fp3"/></animateMotion><animate attributeName="opacity" values="0;1;1;0" keyTimes="0;0.05;0.9;1" dur="0.9s" repeatCount="indefinite" begin="0.12s"/></circle>
  <circle r="3" fill="#f59e0b"><animateMotion dur="0.9s" repeatCount="indefinite" begin="0.42s"><mpath href="#fp3"/></animateMotion><animate attributeName="opacity" values="0;1;1;0" keyTimes="0;0.05;0.9;1" dur="0.9s" repeatCount="indefinite" begin="0.42s"/></circle>
  <circle r="3" fill="#f59e0b"><animateMotion dur="0.9s" repeatCount="indefinite" begin="0.72s"><mpath href="#fp3"/></animateMotion><animate attributeName="opacity" values="0;1;1;0" keyTimes="0;0.05;0.9;1" dur="0.9s" repeatCount="indefinite" begin="0.72s"/></circle>
  <circle r="3" fill="#f59e0b"><animateMotion dur="0.9s" repeatCount="indefinite" begin="0.18s"><mpath href="#fp4"/></animateMotion><animate attributeName="opacity" values="0;1;1;0" keyTimes="0;0.05;0.9;1" dur="0.9s" repeatCount="indefinite" begin="0.18s"/></circle>
  <circle r="3" fill="#f59e0b"><animateMotion dur="0.9s" repeatCount="indefinite" begin="0.48s"><mpath href="#fp4"/></animateMotion><animate attributeName="opacity" values="0;1;1;0" keyTimes="0;0.05;0.9;1" dur="0.9s" repeatCount="indefinite" begin="0.48s"/></circle>
  <circle r="3" fill="#f59e0b"><animateMotion dur="0.9s" repeatCount="indefinite" begin="0.78s"><mpath href="#fp4"/></animateMotion><animate attributeName="opacity" values="0;1;1;0" keyTimes="0;0.05;0.9;1" dur="0.9s" repeatCount="indefinite" begin="0.78s"/></circle>
  <circle r="3" fill="#f59e0b"><animateMotion dur="0.9s" repeatCount="indefinite" begin="0.24s"><mpath href="#fp5"/></animateMotion><animate attributeName="opacity" values="0;1;1;0" keyTimes="0;0.05;0.9;1" dur="0.9s" repeatCount="indefinite" begin="0.24s"/></circle>
  <circle r="3" fill="#f59e0b"><animateMotion dur="0.9s" repeatCount="indefinite" begin="0.54s"><mpath href="#fp5"/></animateMotion><animate attributeName="opacity" values="0;1;1;0" keyTimes="0;0.05;0.9;1" dur="0.9s" repeatCount="indefinite" begin="0.54s"/></circle>
  <circle r="3" fill="#f59e0b"><animateMotion dur="0.9s" repeatCount="indefinite" begin="0.84s"><mpath href="#fp5"/></animateMotion><animate attributeName="opacity" values="0;1;1;0" keyTimes="0;0.05;0.9;1" dur="0.9s" repeatCount="indefinite" begin="0.84s"/></circle>

  <rect x="360" y="48" width="120" height="134" rx="6" fill="#f8fafc" stroke="#e2e8f0" stroke-width="0.5"/>
  <rect x="370" y="58"  width="90"  height="5" rx="2" fill="#e2e8f0"/>
  <rect x="370" y="68"  width="70"  height="5" rx="2" fill="#e2e8f0"/>
  <rect x="370" y="78"  width="100" height="5" rx="2" fill="#e2e8f0"/>
  <rect x="370" y="88"  width="55"  height="5" rx="2" fill="#e2e8f0"/>
  <rect x="370" y="98"  width="85"  height="5" rx="2" fill="#e2e8f0"/>
  <rect x="370" y="108" width="75"  height="5" rx="2" fill="#e2e8f0"/>
  <rect x="370" y="118" width="95"  height="5" rx="2" fill="#e2e8f0"/>
  <rect x="370" y="128" width="60"  height="5" rx="2" fill="#e2e8f0"/>
  <rect x="370" y="138" width="80"  height="5" rx="2" fill="#e2e8f0"/>
  <rect x="370" y="148" width="65"  height="5" rx="2" fill="#e2e8f0"/>
  <rect x="370" y="158" width="88"  height="5" rx="2" fill="#e2e8f0"/>
  <rect x="370" y="168" width="50"  height="5" rx="2" fill="#e2e8f0"/>

  <rect x="360" y="48" width="120" height="14" rx="3" fill="#0d9488" opacity="0.16">
    <animate attributeName="y" values="48;168;168;48" keyTimes="0;0.72;0.88;1" dur="2.6s" repeatCount="indefinite" calcMode="spline" keySplines="0.4 0 0.6 1;0 0 1 1;0 0 1 1"/>
  </rect>

  <line x1="482" y1="115" x2="498" y2="115" stroke="#94a3b8" stroke-width="1.5" marker-end="url(#arw)"/>

  <rect x="500" y="93" width="90" height="44" rx="8" fill="#f0fdfa" stroke="#5eead4" stroke-width="0.5"/>
  <text font-size="13" font-weight="600" fill="#134e4a" x="545" y="115" text-anchor="middle" dominant-baseline="central">Codex</text>

  <line x1="592" y1="115" x2="612" y2="115" stroke="#94a3b8" stroke-width="1.5" marker-end="url(#arw)"/>
  <circle cx="620" cy="115" r="6" fill="#f0fdfa" stroke="#14b8a6" stroke-width="1"/>
  <text font-size="8" fill="#0f766e" x="620" y="115" text-anchor="middle" dominant-baseline="central">1</text>

  <circle r="3" fill="#14b8a6"><animateMotion dur="2.0s" repeatCount="indefinite" begin="0s"><mpath href="#rp1"/></animateMotion><animate attributeName="opacity" values="0;1;1;0" keyTimes="0;0.05;0.9;1" dur="2.0s" repeatCount="indefinite" begin="0s"/></circle>
  <circle r="3" fill="#14b8a6"><animateMotion dur="2.4s" repeatCount="indefinite" begin="0.8s"><mpath href="#op1"/></animateMotion><animate attributeName="opacity" values="0;1;1;0" keyTimes="0;0.05;0.9;1" dur="2.4s" repeatCount="indefinite" begin="0.8s"/></circle>
</svg>